SplineFontDB: 3.0
FontName: Garuda-Bold
FullName: Garuda Bold
FamilyName: Garuda
Weight: Bold
Copyright: Generated by NECTEC for Public Domain\n\nModified under GNU General Public License by TLWG
Version: 2.60: 2009-07-22
ItalicAngle: 0
UnderlinePosition: -27
UnderlineWidth: 20
Ascent: 872
Descent: 128
LayerCount: 2
Layer: 0 0 "Back"  1
Layer: 1 0 "Fore"  0
NeedsXUIDChange: 1
FSType: 0
OS2Version: 0
OS2_WeightWidthSlopeOnly: 0
OS2_UseTypoMetrics: 0
CreationTime: 1153661448
ModificationTime: 1248252878
PfmFamily: 33
TTFWeight: 700
TTFWidth: 5
LineGap: 0
VLineGap: 0
Panose: 2 11 7 4 2 2 2 2 2 4
OS2TypoAscent: 0
OS2TypoAOffset: 1
OS2TypoDescent: 0
OS2TypoDOffset: 1
OS2TypoLinegap: 0
OS2WinAscent: 1284
OS2WinAOffset: 0
OS2WinDescent: 591
OS2WinDOffset: 0
HheadAscent: 1284
HheadAOffset: 0
HheadDescent: -591
HheadDOffset: 0
OS2Vendor: 'PfEd'
Lookup: 6 0 0 "'ccmp' Thai General Composition"  {"'ccmp' Thai Below Vowel Tone Reordering"  "'ccmp' Thai General Composition"  } ['ccmp' ('DFLT' <'dflt' > 'thai' <'KUY ' 'PAL ' 'THA ' 'dflt' > ) ]
Lookup: 6 0 0 "'ccmp' Thai Conditional Descender Removal"  {"'ccmp' Thai Conditional Descender Removal"  } ['ccmp' ('DFLT' <'dflt' > 'thai' <'KUY ' 'PAL ' 'THA ' 'dflt' > ) ]
Lookup: 5 0 0 "Required Thai Descender Removal"  {"Required Thai Descender Removal"  } [' RQD' ('thai' <'PAL ' > ) ]
Lookup: 1 0 0 "Thai Descender Removal Single Substitution"  {"Thai Descender Removal Single Substitution" ("descless" ) } []
Lookup: 2 0 0 "Thai Sara Am Decomposition"  {"Thai Sara Am Decomposition"  } []
Lookup: 2 0 0 "Thai Tone Nikhahit Attachment"  {"Thai Tone Nikhahit Attachment"  } []
Lookup: 1 0 0 "Thai Sara Am Lakkhang"  {"Thai Sara Am Lakkhang"  } []
Lookup: 1 0 0 "Thai Tone Low Variant"  {"Thai Tone Low Variant" ("low" ) } []
Lookup: 1 0 0 "Thai Mark High Variant"  {"Thai Mark High Variant" ("high" ) } []
Lookup: 1 0 0 "Thai Sara U Mai Ek Reordering"  {"Thai Sara U Mai Ek Reordering"  } []

StartChar: .notdef
Encoding: 0 -1 0
Width: 766
VWidth: 2048
Flags: W
HStem: 0 95<192 575> 1242 95<192 575>
VStem: 95 97<95 1242> 575 96<95 1242>
LayerCount: 2
Fore
SplineSet
95 0 m 1
 95 1337 l 1
 671 1337 l 1
 671 0 l 1
 95 0 l 1
192 95 m 1
 575 95 l 1
 575 1242 l 1
 192 1242 l 1
 192 95 l 1
EndSplineSet
EndChar

StartChar: exclam
Encoding: 33 33 2
Width: 308
Flags: W
HStem: 2 145<112.38 209.167>
VStem: 94 133<19.5198 129.864 212 697>
LayerCount: 2
Fore
SplineSet
221 212 m 1
 98 212 l 1
 98 697 l 1
 221 697 l 1
 221 212 l 1
227 75 m 0
 227 41 207 2 161 2 c 0
 115 2 94 41 94 75 c 0
 94 109 115 147 161 147 c 0
 207 147 227 109 227 75 c 0
EndSplineSet
EndChar

StartChar: quotedbl
Encoding: 34 34 3
Width: 458
Flags: W
VStem: 61 101<555.342 697> 296 101<555.342 697>
LayerCount: 2
Fore
SplineSet
360 455 m 1
 334 455 l 1
 296 578 l 1
 296 697 l 1
 397 697 l 1
 397 578 l 1
 360 455 l 1
124 455 m 1
 98 455 l 1
 61 578 l 1
 61 697 l 1
 162 697 l 1
 162 578 l 1
 124 455 l 1
EndSplineSet
EndChar

StartChar: numbersign
Encoding: 35 35 4
Width: 597
Flags: W
HStem: 0 21G<86 188.096 290 390.337> 166 99<31 120 238 325 441 540> 412 103<72 166 282 374 484 567> 680 20G<212.324 316 421.892 521>
VStem: 86 98<0 98> 216 100<600 700> 290 96<0 96> 426 95<605 700>
DStem2: 86 0 184 0 0.185306 0.982681<18.1599 169.425 288.577 419.689 542.401 711.966> 290 0 386 0 0.19072 0.981645<18.3091 169.628 288.934 420.458 542.547 713.089>
LayerCount: 2
Fore
SplineSet
441 265 m 1xfd
 540 265 l 1
 540 166 l 1
 422 166 l 1
 386 0 l 1
 290 0 l 1xfb
 325 166 l 1
 218 166 l 1
 184 0 l 1
 86 0 l 1
 120 166 l 1
 31 166 l 1
 31 265 l 1
 139 265 l 1
 166 412 l 1
 72 412 l 1
 72 515 l 1
 182 515 l 1
 216 700 l 1
 316 700 l 1
 282 515 l 1
 388 515 l 1
 426 700 l 1
 521 700 l 1
 484 515 l 1
 567 515 l 1
 567 412 l 1
 469 412 l 1
 441 265 l 1xfd
238 265 m 1
 343 265 l 1
 374 412 l 1
 264 412 l 1
 238 265 l 1
EndSplineSet
EndChar

StartChar: dollar
Encoding: 36 36 5
Width: 574
Flags: W
HStem: 535 101<224.016 264 359 386.153> 680 20G<264 359>
VStem: 92 110<129.617 210 421.675 514.794> 264 95<-75 2 106 264 400 532 636 700> 406 112<434 516.315> 414 114<122.977 239.666>
LayerCount: 2
Fore
SplineSet
92 457 m 0xf4
 92 567 178 636 264 636 c 1
 264 700 l 1
 359 700 l 1
 359 636 l 1
 443 625 518 560 518 474 c 0
 518 453 515 434 497 434 c 2
 426 434 l 2
 423 434 408 435 406 454 c 0xf8
 406 489 395 521 359 532 c 1
 359 377 l 1
 429 353 528 310 528 185 c 0
 528 65 433 2 359 2 c 1
 359 -75 l 1
 264 -75 l 1
 264 2 l 1
 133 2 93 123.5 93 183 c 0
 93 196 98 210 113 210 c 2
 182 210 l 2
 201 210 204 187 204 184 c 0
 204 145.5 216 120 264 106 c 1
 264 285 l 1
 230 291 166 310 123 357 c 0
 104 378 92 416 92 457 c 0xf4
265 400 m 1
 265 535 l 1
 236 530 202 509 202 461 c 0
 202 429 246 403 265 400 c 1
359 264 m 1
 359 104 l 1
 385 110 414 132 414 186 c 0xf4
 414 230 386 252 359 264 c 1
EndSplineSet
EndChar

StartChar: percent
Encoding: 37 37 6
Width: 697
Flags: W
HStem: -8 62<509.564 579.524> 0 21G<95 226.686> 311 58<509.344 579.571> 322 61<143.729 213.973> 642 57<143.509 216.133>
VStem: 41 85<401.081 620.583> 95 120<0 120> 231 86<400.869 620.215> 406 86<71.7218 290.21> 507 117<583 700> 598 86<72.5765 291.405>
DStem2: 95 0 215 0 0.507235 0.861808<60.8682 812.246>
LayerCount: 2
Fore
SplineSet
41 510 m 0x1d80
 41 607 81 699 178 699 c 0
 276 699 317 607 317 510 c 0
 317 415 277 322 178 322 c 0
 81 322 41 417 41 510 c 0x1d80
231 507 m 0
 231 565 234 642 178 642 c 0
 123 642 126 549 126 510 c 0
 126 477 124 383 178 383 c 0
 235 383 231 469 231 507 c 0
406 182 m 0
 406 276 446 369 544 369 c 0
 642 369 684 279 684 182 c 0
 684 86 642 -8 544 -8 c 0xa9a0
 446 -8 406 87 406 182 c 0
544 311 m 0
 489 311 492 219 492 182 c 0
 492 147 490 54 544 54 c 0
 599 54 598 139 598 176 c 0
 598 215 602 311 544 311 c 0
507 700 m 1x4bc0
 624 700 l 1
 215 0 l 1
 95 0 l 1
 507 700 l 1x4bc0
EndSplineSet
EndChar

StartChar: ampersand
Encoding: 38 38 7
Width: 717
Flags: W
HStem: -8 95<222.414 371.945> 0 100<597.775 683.596> 635 72<276.012 392.859>
VStem: 31 131<150.761 283.513> 136 114<496.534 610.69> 426 86<479.364 601.543> 573 106<319.116 374.991>
DStem2: 371 372 270 326 0.668396 -0.743805<0 188.124>
LayerCount: 2
Fore
SplineSet
212 394 m 1xb6
 174 443 136 492 136 552 c 0
 136 659 228 707 328 707 c 0
 432 707 512 651 512 540 c 0
 512 460 466 412 371 372 c 1
 500 235 l 1
 544 288 563 342 573 389 c 1
 679 374 l 1
 661 299 622 228 566 155 c 1
 599 117 614 100 661 100 c 0
 668 100 684 101 684 101 c 1
 684 8 l 1
 667 3 651 0 635 0 c 0x6e
 576 0 535 18 489 81 c 1
 412 14 353 -8 271 -8 c 0
 213 -8 153 3 107 38 c 0
 60 75 31 152 31 219 c 0
 31 314 101 351 212 394 c 1xb6
331 635 m 0
 296 635 250 612 250 556 c 0
 250 500 303 466 330 429 c 1
 377 449 426 478 426 540 c 0
 426 601 380 635 331 635 c 0
162 226 m 0xb6
 162 153 217 87 291 87 c 0
 336 87 380 107 431 149 c 1
 270 326 l 1
 204 315 162 279 162 226 c 0xb6
EndSplineSet
EndChar

StartChar: quotesingle
Encoding: 39 39 8
Width: 298
Flags: W
VStem: 100 99<588.73 731>
LayerCount: 2
Fore
SplineSet
162 489 m 1
 136 489 l 1
 100 612 l 1
 100 731 l 1
 199 731 l 1
 199 612 l 1
 162 489 l 1
EndSplineSet
EndChar

StartChar: parenleft
Encoding: 40 40 9
Width: 378
Flags: W
VStem: 57 99<96.2531 467.633>
LayerCount: 2
Fore
SplineSet
156 276 m 0
 156 124 192 -34 258 -167 c 1
 190 -167 l 1
 107 -37 57 120 57 281 c 0
 57 441 104 604 193 731 c 1
 261 731 l 1
 189 592 156 435 156 276 c 0
EndSplineSet
EndChar

StartChar: parenright
Encoding: 41 41 10
Width: 378
Flags: W
VStem: 179 100<99.8758 467.633>
LayerCount: 2
Fore
SplineSet
146 -167 m 1
 78 -167 l 1
 144 -34 179 124 179 276 c 0
 179 435 147 592 75 731 c 1
 143 731 l 1
 231 604 279 441 279 281 c 0
 279 120 228 -37 146 -167 c 1
EndSplineSet
EndChar

StartChar: asterisk
Encoding: 42 42 11
Width: 597
Flags: W
HStem: 572 46<454.833 465.13>
VStem: 277 43<558 731> 284 30<558 731>
LayerCount: 2
Fore
SplineSet
325 524 m 1xa0
 422 386 l 1
 388 359 l 1
 299 504 l 1
 210 359 l 1
 176 386 l 1
 276 524 l 1
 121 572 l 1
 135 616 l 1
 284 558 l 1xa0
 277 731 l 1
 320 731 l 1xc0
 314 558 l 1
 463 618 l 1
 477 572 l 1
 325 524 l 1xa0
EndSplineSet
EndChar

StartChar: plus
Encoding: 43 43 12
Width: 565
Flags: W
HStem: 264 90<66 247 330 510>
VStem: 247 83<64 264 354 553>
LayerCount: 2
Fore
SplineSet
330 264 m 1
 330 64 l 1
 247 64 l 1
 247 264 l 1
 66 264 l 1
 66 354 l 1
 247 354 l 1
 247 553 l 1
 330 553 l 1
 330 354 l 1
 510 354 l 1
 510 264 l 1
 330 264 l 1
EndSplineSet
EndChar

StartChar: comma
Encoding: 44 44 13
Width: 252
Flags: W
HStem: -161 51<52 103> 0 159<70.6594 131.842>
VStem: 133 73<-59.0031 0>
LayerCount: 2
Fore
SplineSet
52 -110 m 1
 83 -106 133 -93 133 -23 c 0
 133 -16 132 -9 132 0 c 1
 71 0 47 40 47 79 c 0
 47 119 73 159 120 159 c 0
 186 159 206 96 206 47 c 0
 206 -24 178 -142 52 -161 c 1
 52 -110 l 1
EndSplineSet
EndChar

StartChar: hyphen
Encoding: 45 45 14
AltUni2: 002010.ffffffff.0
Width: 455
Flags: W
HStem: 241 81<40 412>
LayerCount: 2
Fore
SplineSet
40 241 m 1
 40 322 l 1
 412 322 l 1
 412 241 l 1
 40 241 l 1
EndSplineSet
EndChar

StartChar: period
Encoding: 46 46 15
Width: 217
Flags: W
HStem: 0 147<70.4958 165.504>
VStem: 51 134<18.2873 129.864>
LayerCount: 2
Fore
SplineSet
185 75 m 0
 185 41 164 0 118 0 c 0
 72 0 51 41 51 75 c 0
 51 109 72 147 118 147 c 0
 164 147 185 109 185 75 c 0
EndSplineSet
EndChar

StartChar: slash
Encoding: 47 47 16
Width: 597
Flags: W
HStem: 0 21G<32 172.686> 680 20G<433.2 570>
VStem: 32 129<0 129> 445 125<575 700>
DStem2: 32 0 161 0 0.508149 0.861269<65.5512 812.754>
LayerCount: 2
Fore
SplineSet
445 700 m 1
 570 700 l 1
 161 0 l 1
 32 0 l 1
 445 700 l 1
EndSplineSet
EndChar

StartChar: zero
Encoding: 48 48 17
Width: 697
Flags: W
HStem: 0 77<300.384 444.82> 619 81<302.062 449.671>
VStem: 81 124<205.277 494.275> 536 126<195.229 506.78>
LayerCount: 2
Fore
SplineSet
662 353 m 0
 662 181 613 0 369 0 c 0
 155 0 81 173 81 351 c 0
 81 512 155 700 369 700 c 0
 601 700 662 517 662 353 c 0
374 619 m 0
 242 619 205 468 205 351 c 0
 205 241 236 77 372 77 c 0
 510 77 536 233 536 349 c 0
 536 466 517 619 374 619 c 0
EndSplineSet
EndChar

StartChar: one
Encoding: 49 49 18
Width: 697
Flags: W
HStem: 0 21G<376 504> 680 20G<327 504>
VStem: 376 128<0 622>
LayerCount: 2
Fore
SplineSet
376 622 m 1
 339 580 288 528 219 479 c 1
 162 538 l 1
 210 571 308 654 346 700 c 1
 504 700 l 1
 504 0 l 1
 376 0 l 1
 376 622 l 1
EndSplineSet
EndChar

StartChar: two
Encoding: 50 50 19
Width: 697
Flags: W
HStem: 0 98<267 668> 625 89<292.598 481.968>
VStem: 105 128<437.977 571.489> 552 120<461.375 567.791>
LayerCount: 2
Fore
SplineSet
394 714 m 0
 580 714 672 602 672 511 c 0
 672 436 612 378 575 354 c 0
 526 322 489 297 452 276 c 0
 395 244 336 205 284 144 c 0
 271 130 267 116 267 98 c 1
 668 98 l 1
 668 0 l 1
 116 0 l 1
 116 83 124 155 182 216 c 0
 250 290 323 328 409 372 c 0
 513 424 552 474 552 517 c 0
 552 580 465 625 382 625 c 0
 290 625 233 572 233 509 c 0
 233 489 239 469 251 445 c 1
 135 400 l 1
 112 434 105 466 105 499 c 0
 105 628 232 714 394 714 c 0
EndSplineSet
EndChar

StartChar: three
Encoding: 51 51 20
Width: 697
Flags: W
HStem: -8 84<293.068 480.551> 326 82<322 479.891> 618 88<307.478 491.504>
VStem: 101 126<137.806 212> 126 122<501 562.171> 539 117<456.009 574.02> 547 132<134.192 272.451>
LayerCount: 2
Fore
SplineSet
679 195 m 0xe2
 679 51 535 -8 392 -8 c 0
 241 -8 101 51 101 212 c 1
 227 212 l 1
 227 108 310 76 389 76 c 0
 468 76 547 114 547 205 c 0xf2
 547 314 442 326 354 326 c 2
 322 326 l 1
 322 412 l 1
 343 412 361 408 377 408 c 0
 398 408 539 416 539 510 c 0
 539 551 518 618 396 618 c 0
 292 618 248 552 248 501 c 1
 126 501 l 1
 126 644 263 706 407 706 c 0
 589 706 656 596 656 515 c 0xec
 656 432 584 393 524 377 c 1
 524 368 l 1
 593 358 679 299 679 195 c 0xe2
EndSplineSet
EndChar

StartChar: four
Encoding: 52 52 21
Width: 697
Flags: W
HStem: 0 21G<458 587> 178 83<189 457 587 700> 680 20G<401.73 586>
VStem: 457 129<0 178 261 607>
LayerCount: 2
Fore
SplineSet
587 178 m 1
 587 0 l 1
 458 0 l 1
 458 178 l 1
 69 178 l 1
 69 271 l 1
 418 700 l 1
 586 700 l 1
 586 261 l 1
 700 261 l 1
 700 178 l 1
 587 178 l 1
457 607 m 1
 189 261 l 1
 457 261 l 1
 457 607 l 1
EndSplineSet
EndChar

StartChar: five
Encoding: 53 53 22
Width: 697
Flags: W
HStem: -15 89<300.025 491.234> 393 103<326.823 488.961> 601 96<281 638>
VStem: 118 129<55 184> 564 124<146.572 318.999>
LayerCount: 2
Fore
SplineSet
441 496 m 0
 614 496 688 376 688 223 c 0
 688 81 604 -15 403 -15 c 0
 150 -15 130 121 118 184 c 1
 247 184 l 1
 259 103 313 74 394 74 c 0
 530 74 564 158 564 240 c 0
 564 341 487 393 403 393 c 0
 343 393 280 367 239 314 c 1
 121 314 l 1
 176 697 l 1
 638 697 l 1
 651 601 l 1
 281 601 l 1
 248 429 l 1
 289 451 329 496 441 496 c 0
EndSplineSet
EndChar

StartChar: six
Encoding: 54 54 23
Width: 697
Flags: W
HStem: -15 86<311.744 486.856> 380 78<317.486 482.885> 628 82<328.105 499.172>
VStem: 108 137<172.147 491.666> 556 120<137.758 309.164>
LayerCount: 2
Fore
SplineSet
413 -15 m 0
 167 -15 108 154 108 329 c 0
 108 644 292 710 415 710 c 0
 532 710 628 669 664 550 c 1
 550 550 l 1
 522 607 475 628 408 628 c 0
 340 628 239 589 239 382 c 1
 286 424 335 458 424 458 c 0
 584 458 676 364 676 224 c 0
 676 96 595 -15 413 -15 c 0
402 380 m 0
 306 380 245 316 245 227 c 0
 245 139 292 71 399 71 c 0
 507 71 556 139 556 221 c 0
 556 330 480 380 402 380 c 0
EndSplineSet
EndChar

StartChar: seven
Encoding: 55 55 24
Width: 697
Flags: W
HStem: 0 21G<231 376> 615 85<132 552>
VStem: 231 145<0 135.842>
LayerCount: 2
Fore
SplineSet
423 253 m 0
 388 158 376 92.5 376 0 c 1
 231 0 l 1
 231 97.5 273 224 337 339 c 0
 391 435 466 530 552 615 c 1
 132 615 l 1
 132 700 l 1
 661 700 l 1
 661 607 l 1
 559 513 471 376 423 253 c 0
EndSplineSet
EndChar

StartChar: eight
Encoding: 56 56 25
Width: 697
Flags: W
HStem: -6 73<306.992 478.159> 348 87<305.841 477.896> 639 66<304.18 477.513>
VStem: 110 118<140.013 285.375> 142 120<475.952 598.787> 518 118<474.371 600.355> 547 118<134.172 285.417>
LayerCount: 2
Fore
SplineSet
389 705 m 0xe8
 515 705 636 665 636 544 c 0xec
 636 465 584 421 510 408 c 1
 512 385 l 1
 552 377 665 344 665 212 c 0
 665 90 580 -6 397 -6 c 0
 164 -6 110 128 110 217 c 0xf2
 110 348 244 380 277 385 c 1
 277 408 l 1
 202 417 142 463 142 543 c 0
 142 673 291 705 389 705 c 0xe8
547 207 m 0xf2
 547 265 516 348 388 348 c 0
 258 348 228 263 228 211 c 0
 228 140 288 67 394 67 c 0
 495 67 547 137 547 207 c 0xf2
518 537 m 0xec
 518 619 453 639 389 639 c 0
 333 639 262 618 262 536 c 0
 262 478 309 435 386 435 c 0
 478 435 518 476 518 537 c 0xec
EndSplineSet
EndChar

StartChar: nine
Encoding: 57 57 26
Width: 697
Flags: W
HStem: -8 74<283.813 450.791> 248 80<302.303 467.86> 628 82<299.921 472.296>
VStem: 113 117<397.688 560.126> 540 133<303.026 537.232> 558 115<222.051 337>
LayerCount: 2
Fore
SplineSet
673 384 m 0xf8
 673 205 605 -8 371 -8 c 0
 179 -8 139 103 126 144 c 1
 233 144 l 1
 260 87 309 66 375 66 c 0
 486 66 558 185 558 337 c 1xf4
 541 315 495 248 366 248 c 0
 208 248 113 336 113 475 c 0
 113 600 193 710 370 710 c 0
 612 710 673 558 673 384 c 0xf8
540 473 m 0xf8
 540 538 510 628 388 628 c 0
 277 628 230 559 230 478 c 0
 230 377 307 328 384 328 c 0
 462 328 540 378 540 473 c 0xf8
EndSplineSet
EndChar

StartChar: colon
Encoding: 58 58 27
Width: 294
Flags: W
HStem: 2 145<93.9268 190.714> 383 146<93.9268 190.714>
VStem: 75 133<20.71 128.697 401.626 509.883>
LayerCount: 2
Fore
SplineSet
208 455 m 0
 208 422 189 383 143 383 c 0
 97 383 75 422 75 455 c 0
 75 489 97 529 143 529 c 0
 189 529 208 489 208 455 c 0
208 75 m 0
 208 41 189 2 143 2 c 0
 97 2 75 41 75 75 c 0
 75 109 97 147 143 147 c 0
 189 147 208 109 208 75 c 0
EndSplineSet
EndChar

StartChar: semicolon
Encoding: 59 59 28
Width: 320
Flags: W
HStem: -161 51<79 130> 0 159<97.6594 158.842> 379 145<98.38 196.073>
VStem: 80 135<397.303 504.967> 160 73<-59.0031 0>
LayerCount: 2
Fore
SplineSet
79 -110 m 1xe8
 110 -106 160 -93 160 -23 c 0
 160 -16 159 -9 159 0 c 1
 98 0 74 40 74 79 c 0
 74 119 100 159 147 159 c 0
 213 159 233 96 233 47 c 0
 233 -24 205 -142 79 -161 c 1
 79 -110 l 1xe8
215 451 m 0xf0
 215 417 193 379 147 379 c 0
 101 379 80 417 80 451 c 0
 80 484 101 524 147 524 c 0
 193 524 215 484 215 451 c 0xf0
EndSplineSet
EndChar

StartChar: less
Encoding: 60 60 29
Width: 597
Flags: W
HStem: 63 98<426 524> 435 98<426 524>
DStem2: 173 299 74 247 0.925612 -0.378473<0 377.119>
LayerCount: 2
Fore
SplineSet
74 247 m 1
 74 349 l 1
 524 533 l 1
 524 435 l 1
 173 299 l 1
 524 161 l 1
 524 63 l 1
 74 247 l 1
EndSplineSet
EndChar

StartChar: equal
Encoding: 61 61 30
Width: 544
Flags: W
HStem: 138 92<66 497> 402 90<66 497>
LayerCount: 2
Fore
SplineSet
66 402 m 1
 66 492 l 1
 497 492 l 1
 497 402 l 1
 66 402 l 1
66 138 m 1
 66 230 l 1
 497 230 l 1
 497 138 l 1
 66 138 l 1
EndSplineSet
EndChar

StartChar: greater
Encoding: 62 62 31
Width: 597
Flags: W
HStem: 63 98<74 172> 435 98<74 172>
DStem2: 74 533 74 435 0.925612 -0.378473<37.0903 411.601> 74 161 74 63 0.925612 0.378473<0 375.268>
LayerCount: 2
Fore
SplineSet
74 63 m 1
 74 161 l 1
 423 299 l 1
 74 435 l 1
 74 533 l 1
 524 349 l 1
 524 247 l 1
 74 63 l 1
EndSplineSet
EndChar

StartChar: question
Encoding: 63 63 32
Width: 538
Flags: W
HStem: -2 115<222.703 313.867> 369 147<147.935 235.095> 626 81<185.334 321.387>
VStem: 62 81<501.843 583.151> 211 115<9.54661 101.513> 222 81<141 240.166> 368 113<430.747 578.38>
LayerCount: 2
Fore
SplineSet
271 707 m 0xf6
 344 707 481 668 481 512 c 0
 481 449 456 381 403 325 c 0
 359 279 305 244 305 173 c 0
 305 167 303 162 303 141 c 1
 222 141 l 1
 222 226 228 234 261 305 c 0
 295 379 368 418 368 511 c 0
 368 585 310 626 252 626 c 0
 182 626 143 570 143 522 c 0
 143 515 144 507 147 500 c 1
 167 511 184 516 199 516 c 0
 239 516 260 481 260 446 c 0
 260 393 213 369 178 369 c 0
 132 369 62 408 62 508 c 0
 62 632 158 707 271 707 c 0xf6
268 113 m 0
 306 113 326 84 326 56 c 0
 326 27 306 -2 268 -2 c 0
 230 -2 211 27 211 56 c 0xfa
 211 84 230 113 268 113 c 0
EndSplineSet
EndChar

StartChar: at
Encoding: 64 64 33
Width: 784
Flags: W
HStem: -26 80<311.358 523.002> 135 64<496 600.608> 138 95<332.457 412.312> 440 96<347.549 451.307> 644 79<307.528 512.886>
VStem: 57 92<224.366 475.508> 204 104<258.243 396.638> 475 72<274.66 377.656> 653 75<275.623 504.341>
LayerCount: 2
Fore
SplineSet
512 135 m 0xdf80
 480 135 451 153 451 195 c 1
 411 152 383 138 356 138 c 0xbf80
 274 138 204 215 204 310 c 0
 204 428 276 536 388 536 c 0
 429 536 461 523 501 472 c 1
 510 530 l 1
 590 530 l 1
 562 323 547 245 547 216 c 0
 547 199 552 199 563 199 c 0
 602 199 653 277 653 388 c 0
 653 556 546 644 406 644 c 0
 251 644 149 520 149 349 c 0
 149 167 265 54 422 54 c 0
 487 54 546 80 595 121 c 1
 679 121 l 1
 607 32 535 -26 414 -26 c 0
 198 -26 57 130 57 346 c 0
 57 558 205 723 408 723 c 0
 586 723 728 590 728 420 c 0
 728 340 720 282 677 222 c 0
 630 156 599 135 512 135 c 0xdf80
308 326 m 0
 308 276 334 233 380 233 c 0
 438 233 475 288 475 351 c 0
 475 403 446 440 400 440 c 0
 346 440 308 383 308 326 c 0
EndSplineSet
EndChar

StartChar: A
Encoding: 65 65 34
Width: 628
Flags: W
HStem: 0 21G<25 146.658 454.474 590> 152 96<210 392> 680 20G<224.143 396.686>
VStem: 25 116<0 116> 460 130<0 130>
DStem2: 25 0 141 0 0.281053 0.959692<32.6021 190.561 289.998 289.998>
LayerCount: 2
Fore
SplineSet
460 0 m 1
 418 152 l 1
 184 152 l 1
 141 0 l 1
 25 0 l 1
 230 700 l 1
 391 700 l 1
 590 0 l 1
 460 0 l 1
303 592 m 1
 210 248 l 1
 392 248 l 1
 303 592 l 1
EndSplineSet
EndChar

StartChar: B
Encoding: 66 66 35
Width: 646
Flags: W
HStem: 0 97<202 431.023> 316 90<202 421.42> 608 92<202 425.467>
VStem: 83 119<97 316 406 608> 458 124<445.989 576.103> 472 129<138.16 264.871>
LayerCount: 2
Fore
SplineSet
527 37 m 0xf4
 483 2 425 0 365 0 c 2
 83 0 l 1
 83 700 l 1
 365 700 l 2
 414 700 466 701 510 670 c 0
 558 637 582 589 582 526 c 0xf8
 582 454 535 389 457 366 c 1
 455 357 l 1
 544 337 601 265 601 179 c 0
 601 123 570 72 527 37 c 0xf4
415 595 m 0
 388 612 346 608 316 608 c 2
 202 608 l 1
 202 406 l 1
 328 406 l 2
 360 406 394 405 422 428 c 0
 446 448 458 480 458 512 c 0
 458 544 445 577 415 595 c 0
425 299 m 0
 400 316 365 316 337 316 c 2
 202 316 l 1
 202 97 l 1
 330 97 l 2
 363 97 400 97 429 117 c 0
 457 136 472 173 472 210 c 0xf4
 472 245 454 281 425 299 c 0
EndSplineSet
EndChar

StartChar: C
Encoding: 67 67 36
Width: 646
Flags: W
HStem: -3 100<278.965 414.026> 615 101<275.711 409.126>
VStem: 51 138<216.722 487.617> 478 117<169.96 227.479>
LayerCount: 2
Fore
SplineSet
339 -3 m 0
 152 -3 51 161 51 357 c 0
 51 555 155 716 343 716 c 0
 495 716 573 627 595 471 c 1
 469 461 l 1
 464 538 432 615 339 615 c 0
 225 615 189 446 189 349 c 0
 189 238 232 97 346 97 c 0
 428 97 466 167 478 235 c 1
 595 227 l 1
 573 80 478 -3 339 -3 c 0
EndSplineSet
EndChar

StartChar: D
Encoding: 68 68 37
Width: 646
Flags: W
HStem: 0 106<176 365.753> 592 108<176 375.875>
VStem: 55 121<106 592> 469 124<230.827 474.667>
LayerCount: 2
Fore
SplineSet
510 97 m 0
 449 22 351 0 259 0 c 2
 55 0 l 1
 55 700 l 1
 233 700 l 2
 330 700 429 692 497 621 c 0
 564 551 593 455 593 353 c 0
 593 258 567 166 510 97 c 0
415 536 m 0
 374 595 305 592 248 592 c 2
 176 592 l 1
 176 106 l 1
 247 106 l 2
 316 106 388 115 428 187 c 0
 457 239 469 299 469 357 c 0
 469 420 452 485 415 536 c 0
EndSplineSet
EndChar

StartChar: E
Encoding: 69 69 38
Width: 568
Flags: W
HStem: 0 93<199 523> 294 98<199 454> 599 101<199 523>
VStem: 80 119<93 294 392 599>
LayerCount: 2
Fore
SplineSet
80 0 m 1
 80 700 l 1
 523 700 l 1
 523 599 l 1
 199 599 l 1
 199 392 l 1
 454 392 l 1
 454 294 l 1
 199 294 l 1
 199 93 l 1
 523 93 l 1
 523 0 l 1
 80 0 l 1
EndSplineSet
EndChar

StartChar: F
Encoding: 70 70 39
Width: 530
Flags: W
HStem: 0 21G<78 198> 288 104<198 454> 595 105<198 520>
VStem: 78 120<0 288 392 595>
LayerCount: 2
Fore
SplineSet
198 595 m 1
 198 392 l 1
 454 392 l 1
 454 288 l 1
 198 288 l 1
 198 0 l 1
 78 0 l 1
 78 700 l 1
 520 700 l 1
 520 595 l 1
 198 595 l 1
EndSplineSet
EndChar

StartChar: G
Encoding: 71 71 40
Width: 646
Flags: W
HStem: -6 98<276.4 426.492> 261 96<356 481> 615 96<271.363 415.774>
VStem: 31 124<240.312 461.431> 481 114<155.046 261 496.528 550.567> 495 100<0 75>
LayerCount: 2
Fore
SplineSet
495 0 m 1xf4
 495 75 l 1xf4
 469 5 406 -6 334 -6 c 0
 152 -6 31 155 31 346 c 0
 31 541 135 711 349 711 c 0
 480 711 575 632 599 497 c 1
 487 480 l 1
 475 552 423 615 345 615 c 0
 213 615 155 445 155 342 c 0
 155 250 222 92 353 92 c 0
 434 92 481 149 481 261 c 1xf8
 356 261 l 1
 356 357 l 1
 595 357 l 1
 595 0 l 1
 495 0 l 1xf4
EndSplineSet
EndChar

StartChar: H
Encoding: 72 72 41
Width: 657
Flags: W
HStem: 0 21G<60 181 480 605> 305 107<181 480> 680 20G<60 181 480 605>
VStem: 60 121<0 305 412 700> 480 125<0 305 412 700>
LayerCount: 2
Fore
SplineSet
480 0 m 1
 480 305 l 1
 181 305 l 1
 181 0 l 1
 60 0 l 1
 60 700 l 1
 181 700 l 1
 181 412 l 1
 480 412 l 1
 480 700 l 1
 605 700 l 1
 605 0 l 1
 480 0 l 1
EndSplineSet
EndChar

StartChar: I
Encoding: 73 73 42
Width: 294
Flags: W
HStem: 0 21G<83 202> 680 20G<83 202>
VStem: 83 119<0 700>
LayerCount: 2
Fore
SplineSet
83 0 m 1
 83 700 l 1
 202 700 l 1
 202 0 l 1
 83 0 l 1
EndSplineSet
EndChar

StartChar: J
Encoding: 74 74 43
Width: 482
Flags: W
HStem: -3 109<171.751 289.076> 680 20G<326 445>
VStem: 29 117<132.86 274> 326 119<146.52 700>
LayerCount: 2
Fore
SplineSet
445 210 m 2
 445 124 387 -3 237 -3 c 0
 82 -3 29 110 29 187 c 2
 29 274 l 1
 146 274 l 1
 146 190 l 2
 146 136 187 106 230 106 c 0
 287 106 326 150 326 231 c 2
 326 700 l 1
 445 700 l 1
 445 210 l 2
EndSplineSet
EndChar

StartChar: K
Encoding: 75 75 44
Width: 628
Flags: W
HStem: 0 21G<83 198 449.534 593> 680 20G<83 198 421.676 561>
VStem: 83 115<0 130 317 700> 434 127<573 700> 458 135<0 135>
DStem2: 198 317 320 326 0.537163 0.843479<0 73.1252 213.791 449.823> 406 438 320 326 0.392652 -0.919687<69.2369 423.241>
LayerCount: 2
Fore
SplineSet
458 0 m 1xe8
 320 326 l 1
 198 130 l 1
 198 0 l 1
 83 0 l 1
 83 700 l 1
 198 700 l 1
 198 317 l 1
 434 700 l 1
 434 700 541 700 561 700 c 1xf0
 406 438 l 1
 593 0 l 1
 458 0 l 1xe8
EndSplineSet
EndChar

StartChar: L
Encoding: 76 76 45
Width: 490
Flags: W
HStem: 0 107<196 466> 680 20G<75 196>
VStem: 75 121<107 700>
LayerCount: 2
Fore
SplineSet
75 0 m 1
 75 700 l 1
 196 700 l 1
 196 107 l 1
 466 107 l 1
 466 0 l 1
 75 0 l 1
EndSplineSet
EndChar

StartChar: M
Encoding: 77 77 46
Width: 862
Flags: W
HStem: 0 21G<80 198 380.561 470.539 659 777> 603 97<198 222 632 659>
VStem: 80 118<0 603> 659 118<0 603>
DStem2: 294 700 222 603 0.26244 -0.964948<74.7043 512.292> 426 205 465 0 0.266902 0.963724<0 438.544>
LayerCount: 2
Back
SplineSet
658 0 m 1
 658 603 l 1
 621 603 l 1
 454 0 l 1
 374 0 l 1
 210 603 l 1
 176 603 l 1
 176 0 l 1
 80 0 l 1
 80 700 l 1
 294 700 l 1
 426 205 l 1
 563 700 l 1
 777 700 l 1
 777 0 l 1
 658 0 l 1
EndSplineSet
Fore
SplineSet
659 0 m 1
 659 603 l 1
 632 603 l 1
 465 0 l 1
 386 0 l 1
 222 603 l 1
 198 603 l 1
 198 0 l 1
 80 0 l 1
 80 700 l 1
 294 700 l 1
 426 205 l 1
 563 700 l 1
 777 700 l 1
 777 0 l 1
 659 0 l 1
EndSplineSet
EndChar

StartChar: N
Encoding: 78 78 47
Width: 646
Flags: W
HStem: 0 21G<80 198 445.21 561> 680 20G<80 228.593 443 561>
VStem: 80 118<0 525> 443 118<233 700>
DStem2: 219 700 198 525 0.43967 -0.898159<147.945 517.927>
LayerCount: 2
Back
SplineSet
455 0 m 1
 198 525 l 1
 164 525 l 1
 164 0 l 1
 80 0 l 1
 80 700 l 1
 219 700 l 1
 445 233 l 1
 475 233 l 1
 475 700 l 1
 561 700 l 1
 561 0 l 1
 455 0 l 1
EndSplineSet
Fore
SplineSet
455 0 m 1
 198 525 l 1
 198 0 l 1
 80 0 l 1
 80 700 l 1
 219 700 l 1
 443 233 l 1
 443 700 l 1
 561 700 l 1
 561 0 l 1
 455 0 l 1
EndSplineSet
EndChar

StartChar: O
Encoding: 79 79 48
Width: 646
Flags: W
HStem: -3 104<257.893 394.665> 616 100<256.233 396.994>
VStem: 32 129<226.426 486.446> 480 119<217.272 508.122>
LayerCount: 2
Fore
SplineSet
320 -3 m 0
 122 -3 32 175 32 365 c 0
 32 536 125 716 329 716 c 0
 550 716 599 526 599 359 c 0
 599 175 515 -3 320 -3 c 0
325 616 m 0
 210 616 161 470 161 357 c 0
 161 254 204 101 326 101 c 0
 438 101 480 236 480 357 c 0
 480 479 451 616 325 616 c 0
EndSplineSet
EndChar

StartChar: P
Encoding: 80 80 49
Width: 625
Flags: W
HStem: 0 21G<63 182> 275 93<182 401.646> 604 96<182 405.267>
VStem: 63 119<0 275 368 604> 448 122<415.368 558.574>
LayerCount: 2
Fore
SplineSet
570 494 m 0
 570 384 515 293 423 280 c 0
 392 273 359 275 325 275 c 2
 182 275 l 1
 182 0 l 1
 63 0 l 1
 63 700 l 1
 320 700 l 2
 380 700 438 699 490 661 c 0
 543 621 570 563 570 494 c 0
408 580 m 0
 379 604 345 604 311 604 c 2
 182 604 l 1
 182 368 l 1
 313 368 l 2
 324 368 384 362 420 407 c 0
 440 430 448 459 448 486 c 0
 448 520 435 557 408 580 c 0
EndSplineSet
EndChar

StartChar: Q
Encoding: 81 81 50
Width: 646
Flags: W
HStem: -153 93<475.297 573> -9 104<263.205 387.758> 612 99<253.189 392.956>
VStem: 46 129<215.519 499.257> 477 127<209.568 495.675>
LayerCount: 2
Fore
SplineSet
304 -9 m 0
 150 -9 46 161 46 353 c 0
 46 544 141 711 326 711 c 0
 543 711 604 519 604 353 c 0
 604 221 555 94 455 28 c 1
 455 -40 487 -60 526 -60 c 2
 573 -57 l 1
 573 -150 l 1
 561 -152 547 -153 536 -153 c 0
 443 -153 400 -124 386 -2 c 1
 386 -2 324 -9 304 -9 c 0
326 612 m 0
 200 612 175 480 175 353 c 0
 175 250 210 95 333 95 c 0
 461 95 477 248 477 353 c 0
 477 446 450 612 326 612 c 0
EndSplineSet
EndChar

StartChar: R
Encoding: 82 82 51
Width: 659
Flags: W
HStem: 0 21G<54 170 494.5 630> 291 98<170 450.823> 602 98<170 452.087>
VStem: 54 116<0 291 389 602> 478 116<52.1816 264.316> 486 119<413.378 567.565> 506 124<0 61.5627>
LayerCount: 2
Back
SplineSet
374 700 m 2xf8
 499 700 605 664 605 488 c 0xf4
 605 415 577 393 518 345 c 1
 584 299 594 245 594 195 c 2
 594 130 l 2
 594 95 598 63 630 37 c 1
 630 0 l 1
 506 0 l 1
 483 59 478 80 478 134 c 2
 478 177 l 2
 478 238 468 283 380 283 c 2
 170 283 l 1
 170 0 l 1
 54 0 l 1
 54 700 l 1
 374 700 l 2xf8
398 397 m 2
 447 397 486 406 486 498 c 0
 486 583 427 584 376 584 c 2
 170 584 l 1
 170 397 l 1
 398 397 l 2
EndSplineSet
Fore
SplineSet
374 700 m 2xf8
 499 700 605 664 605 488 c 0xf4
 605 415 577 393 518 345 c 1
 584 299 594 245 594 195 c 2
 594 130 l 2xf8
 594 95 598 63 630 37 c 1
 630 0 l 1
 506 0 l 1xf2
 483 59 478 80 478 134 c 2
 478 177 l 2
 478 238 468 291 380 291 c 2
 170 291 l 1
 170 0 l 1
 54 0 l 1
 54 700 l 1
 374 700 l 2xf8
398 389 m 2
 447 389 486 406 486 498 c 0
 486 583 427 602 376 602 c 2
 170 602 l 1
 170 389 l 1
 398 389 l 2
EndSplineSet
EndChar

StartChar: S
Encoding: 83 83 52
Width: 588
Flags: W
HStem: -6 110<196.533 366.61> 607 106<211.27 368.928>
VStem: 54 131<467.081 579.673> 406 129<141.651 250.213>
LayerCount: 2
Fore
SplineSet
54 501 m 0
 54 627 136 713 279 713 c 0
 386 713 471 676 510 572 c 1
 403 535 l 1
 385 579 363 607 288 607 c 0
 236 607 185 588 185 526 c 0
 185 470 204 453 287 435 c 0
 331 425 535 392 535 219 c 0
 535 56 412 -6 274 -6 c 0
 159 -6 60 44 26 162 c 1
 26 162 139 198 147 198 c 1
 172 123 219 104 288 104 c 0
 320 104 406 122 406 189 c 0
 406 270 334 281 279 293 c 0
 158 320 54 357 54 501 c 0
EndSplineSet
EndChar

StartChar: T
Encoding: 84 84 53
Width: 530
Flags: W
HStem: 0 21G<202 322> 593 107<31 202 322 490>
VStem: 202 120<0 593>
LayerCount: 2
Fore
SplineSet
322 593 m 1
 322 0 l 1
 202 0 l 1
 202 593 l 1
 31 593 l 1
 31 700 l 1
 490 700 l 1
 490 593 l 1
 322 593 l 1
EndSplineSet
EndChar

StartChar: U
Encoding: 85 85 54
Width: 646
Flags: W
HStem: -6 104<251.073 420.767> 680 20G<69 204 460 586>
VStem: 69 135<146.188 700> 460 126<142.735 700>
LayerCount: 2
Fore
SplineSet
326 -6 m 0
 159.91 -6 69 60.0596 69 232 c 2
 69 700 l 1
 204 700 l 1
 204 244 l 2
 204 126 254 98 337 98 c 0
 420 98 460 126 460 244 c 2
 460 700 l 1
 586 700 l 1
 586 232 l 2
 586 82 481.18 -6 326 -6 c 0
EndSplineSet
EndChar

StartChar: V
Encoding: 86 86 55
Width: 588
Flags: W
HStem: 0 126<222 374> 680 20G<31 165.948 440.052 558>
VStem: 31 130<570 700> 445 113<587 700>
DStem2: 303 126 374 0 0.254221 0.967146<0 591.241>
LayerCount: 2
Fore
SplineSet
374 0 m 1
 222 0 l 1
 31 700 l 1
 161 700 l 1
 303 126 l 1
 445 700 l 1
 558 700 l 1
 374 0 l 1
EndSplineSet
EndChar

StartChar: W
Encoding: 87 87 56
Width: 882
Flags: W
HStem: 0 21G<185.314 320.83 556.529 695.6> 680 20G<26 153.177 378.391 507.715 740.462 852>
VStem: 26 123<577 700> 745 107<593 700>
DStem2: 149 700 26 700 0.228109 -0.973636<0 512.893> 268 201 316 0 0.234767 0.972052<-2.54914 331.291> 503 700 449 501 0.218168 -0.975911<182.425 505.456> 632 202 691 0 0.224148 0.974555<0 510.657>
LayerCount: 2
Fore
SplineSet
691 0 m 1
 561 0 l 1
 449 501 l 1
 437 501 l 1
 316 0 l 1
 190 0 l 1
 26 700 l 1
 149 700 l 1
 253 202 l 1
 253 202 259 201 268 201 c 1
 383 700 l 1
 503 700 l 1
 619 208 l 1
 632 202 l 1
 745 700 l 1
 852 700 l 1
 691 0 l 1
EndSplineSet
EndChar

StartChar: X
Encoding: 88 88 57
Width: 628
Flags: W
HStem: 0 21G<41 180.299 430.149 579> 680 20G<66 214.956 424.869 559>
VStem: 41 129<0 129> 66 139<561 700> 435 124<576 700> 440 139<0 139>
DStem2: 41 0 170 0 0.490498 0.871442<63.2742 63.2742 546.808 803.266> 205 700 66 700 0.469091 -0.88315<0 255.718> 388 372 308 268 0.456754 -0.889593<55.9774 354.68> 319 471 388 372 0.490498 0.871442<0 256.458>
LayerCount: 2
Fore
SplineSet
440 0 m 1xc4
 308 268 l 1
 170 0 l 1
 41 0 l 1xe4
 245 363 l 1
 66 700 l 1
 205 700 l 1
 319 471 l 1
 435 700 l 1
 559 700 l 1xd8
 388 372 l 1
 579 0 l 1
 440 0 l 1xc4
EndSplineSet
EndChar

StartChar: Y
Encoding: 89 89 58
Width: 588
Flags: W
HStem: 0 21G<235 354> 680 20G<35 185.149 427.638 556>
VStem: 35 141<559 700> 235 119<0 282> 437 119<581 700>
DStem2: 176 700 35 700 0.444544 -0.895757<0 309.95> 305 418 354 282 0.43511 0.900377<0 311.341>
LayerCount: 2
Fore
SplineSet
354 282 m 1
 354 0 l 1
 235 0 l 1
 235 297 l 1
 35 700 l 1
 176 700 l 1
 305 418 l 1
 437 700 l 1
 556 700 l 1
 354 282 l 1
EndSplineSet
EndChar

StartChar: Z
Encoding: 90 90 59
Width: 646
Flags: W
HStem: 0 102<222 593> 600 100<110 446>
DStem2: 86 100 222 102 0.584305 0.811534<81.0885 616.117>
LayerCount: 2
Fore
SplineSet
86 0 m 1
 86 100 l 1
 446 600 l 1
 110 600 l 1
 110 700 l 1
 582 700 l 1
 582 600 l 1
 222 102 l 1
 593 102 l 1
 593 0 l 1
 86 0 l 1
EndSplineSet
EndChar

StartChar: bracketleft
Encoding: 91 91 60
Width: 372
Flags: W
HStem: -190 60<176 274> 639 61<176 274>
VStem: 98 176<-190 -130 639 700> 98 78<-130 639>
LayerCount: 2
Fore
SplineSet
98 -190 m 1xe0
 98 700 l 1
 274 700 l 1
 274 639 l 1xe0
 176 639 l 1
 176 -130 l 1xd0
 274 -130 l 1
 274 -190 l 1
 98 -190 l 1xe0
EndSplineSet
EndChar

StartChar: backslash
Encoding: 92 92 61
Width: 415
Flags: W
HStem: 0 21G<242.057 360> 680 20G<40 145.314>
VStem: 40 99<601 700> 248 112<0 112>
LayerCount: 2
Fore
SplineSet
248 0 m 1
 40 700 l 1
 139 700 l 1
 360 0 l 1
 248 0 l 1
EndSplineSet
EndChar

StartChar: bracketright
Encoding: 93 93 62
Width: 372
Flags: W
HStem: -201 68<98 196> 633 67<98 196>
VStem: 98 176<-201 -133 633 700> 196 78<-133 633>
LayerCount: 2
Fore
SplineSet
98 -201 m 1xe0
 98 -133 l 1xe0
 196 -133 l 1
 196 633 l 1xd0
 98 633 l 1
 98 700 l 1
 274 700 l 1
 274 -201 l 1
 98 -201 l 1xe0
EndSplineSet
EndChar

StartChar: asciicircum
Encoding: 94 94 63
Width: 588
Flags: W
HStem: 684 20G<236.888 347.255>
VStem: 95 71<285 356> 422 70<285 355>
DStem2: 95 285 166 285 0.335054 0.942199<23.7888 402.706> 340 704 293 642 0.341022 -0.940055<42.2554 421.847>
LayerCount: 2
Fore
SplineSet
422 285 m 1
 293 642 l 1
 166 285 l 1
 95 285 l 1
 244 704 l 1
 340 704 l 1
 492 285 l 1
 422 285 l 1
EndSplineSet
EndChar

StartChar: underscore
Encoding: 95 95 64
Width: 556
VWidth: 2048
Flags: W
HStem: -199 64<-15 569>
LayerCount: 2
Fore
SplineSet
-15 -199 m 1
 -15 -135 l 1
 569 -135 l 1
 569 -199 l 1
 -15 -199 l 1
EndSplineSet
EndChar

StartChar: grave
Encoding: 96 96 65
Width: 372
Flags: W
LayerCount: 2
Fore
SplineSet
274 619 m 1
 87 691 l 1
 104 768 l 1
 287 671 l 1
 274 619 l 1
EndSplineSet
EndChar

StartChar: a
Encoding: 97 97 66
Width: 536
Flags: W
HStem: -5 74<183.129 304.461> 0 61<478.007 523> 250 69<231.891 357> 452 74<194.473 329.79>
VStem: 48 116<86.8967 199.592> 66 98<380 421.187> 357 107<124.414 250 317.249 423.571>
LayerCount: 2
Fore
SplineSet
48 130 m 0xba
 48 315 280 311 357 319 c 1
 357 340 l 2
 357 371 357 395 339 420 c 0
 322 445 291 452 267 452 c 0
 221 452 175 434 164 380 c 1
 66 380 l 1
 81 487 172 526 282 526 c 0
 359 526 392 510 428 478 c 0
 461 449 464 412 464 369 c 2
 464 124 l 2
 464 63 520 61 523 61 c 1
 523 0 l 1
 505 0 l 2x76
 478 0 428 3 411 26 c 0
 389 54 385 69 385 69 c 1
 350 1 286 -5 227 -5 c 2
 187 -5 l 2
 104 -5 48 40 48 130 c 0xba
357 250 m 1
 274 241 164 236 164 147 c 0
 164 92 192 69 244 69 c 0xba
 281 69 316 92 336 126 c 0
 357 164 357 182 357 225 c 2
 357 250 l 1
EndSplineSet
EndChar

StartChar: b
Encoding: 98 98 67
Width: 541
Flags: W
HStem: -3 69<209.029 327.781> 435 90<210.259 331.153> 680 20G<63 170>
VStem: 63 107<111.306 388.375 468 700> 63 99<0 49> 399 113<154.55 354.644>
LayerCount: 2
Fore
SplineSet
310 -3 m 0xf4
 245 -3 182 6 162 49 c 1
 162 0 l 1
 63 0 l 1xec
 63 700 l 1
 170 700 l 1
 170 468 l 1
 176 466 l 1
 198 515 252 525 303 525 c 0
 452 525 512 392 512 256 c 0
 512 113 443 -3 310 -3 c 0xf4
271 435 m 0
 190 435 172 359 172 290 c 2
 172 212 l 2
 172 125 197.56 66 268 66 c 0
 360 66 399 187 399 256 c 0
 399 325 362 435 271 435 c 0
EndSplineSet
EndChar

StartChar: c
Encoding: 99 99 68
Width: 530
Flags: W
HStem: -4 90<225.843 344.654> 437 89<227.322 350.21>
VStem: 46 127<148.906 374.951> 383 104<76 180 349 453>
LayerCount: 2
Fore
SplineSet
279 -4 m 0
 136.5 -4 46 102 46 254 c 0
 46 413 143 526 287 526 c 0
 408 526 468 453 484 349 c 1
 382 349 l 1
 376 396 349 437 291 437 c 0
 199 437 173 350 173 269 c 0
 173 191 192 86 287 86 c 0
 343 86 374 131 383 180 c 1
 487 178 l 1
 469 68 408 -4 279 -4 c 0
EndSplineSet
EndChar

StartChar: d
Encoding: 100 100 69
Width: 530
Flags: W
HStem: -6 78<169.367 336.309> 422 103<226.412 334.623> 684 20G<377 484>
VStem: 48 114<152.061 344.271> 377 107<0 48 119.983 373.943 461 704>
LayerCount: 2
Fore
SplineSet
383 0 m 1
 383 48 l 1
 374 46 l 1
 353 -1 323 -6 230 -6 c 0
 114 -6 48 115 48 251 c 0
 48 383 109 525 233 525 c 0
 306 525 336 516 377 461 c 1
 377 704 l 1
 484 704 l 1
 484 0 l 1
 383 0 l 1
284 72 m 0
 367 72 377 184 377 213 c 2
 377 284 l 2
 377 290 368 422 291 422 c 0
 198 422 162 320 162 247 c 0
 162 178 202 72 284 72 c 0
EndSplineSet
EndChar

StartChar: e
Encoding: 101 101 70
Width: 530
Flags: W
HStem: -3 87<209.575 342.315> 259 78<166 376> 440 86<199.856 345.831>
VStem: 43 118<148.623 259> 374 103<114.281 159>
LayerCount: 2
Fore
SplineSet
159 259 m 1
 161 214 l 2
 164 139 204 84 279 84 c 0
 325 84 363 106 374 159 c 1
 477 159 l 1
 461 113 425 -3 271 -3 c 0
 132 -3 43 114 43 268 c 0
 43 421 113 526 256 526 c 0
 362 526 423 489 449 434 c 0
 478 368 478 324 478 259 c 1
 159 259 l 1
276 440 m 0
 222 440 173 426 166 337 c 1
 376 337 l 1
 371 418 333 440 276 440 c 0
EndSplineSet
EndChar

StartChar: f
Encoding: 102 102 71
Width: 294
Flags: W
HStem: 0 21G<86 193> 415 83<28 86 193 282> 628 86<205.773 294>
VStem: 86 107<0 415 498 615.117>
LayerCount: 2
Fore
SplineSet
255 628 m 0
 197 628 193 586 193 529 c 2
 193 498 l 1
 282 498 l 1
 282 415 l 1
 193 415 l 1
 193 0 l 1
 86 0 l 1
 86 415 l 1
 28 415 l 1
 28 498 l 1
 86 498 l 1
 86 513 86 543 86 543 c 2
 86 586 88 625 106 651 c 0
 132 695 182 714 231 714 c 0
 242 714 294 710 294 710 c 1
 294 627 l 1
 294 627 265 628 255 628 c 0
EndSplineSet
EndChar

StartChar: g
Encoding: 103 103 72
Width: 525
Flags: W
HStem: -231 81<172.698 327.651> -2 83<182.122 317.694> 431 92<179.45 308.215>
VStem: 20 96<153.802 354.127> 34 98<-111.951 -55> 376 93<-94.4903 49 149.188 350.336 460 524>
LayerCount: 2
Fore
SplineSet
376 460 m 1xf4
 376 524 l 1
 469 524 l 1
 469 103 l 2
 469 -76 449 -231 246 -231 c 0
 142 -231 37 -177 34 -55 c 1
 132 -55 l 1xec
 134 -122 188 -150 256 -150 c 0
 331 -150 376 -96 376 -31 c 2
 376 49 l 1
 339 19 296 -2 234 -2 c 0
 91 -2 20 118 20 248 c 0
 20 398 102 523 232 523 c 0
 285 523 335 507 376 460 c 1xf4
246 431 m 0
 156 431 116 339 116 252 c 0xf4
 116 151 169 81 251 81 c 0
 341 81 374 165 374 250 c 0
 374 348 325 431 246 431 c 0
EndSplineSet
EndChar

StartChar: h
Encoding: 104 104 73
Width: 530
Flags: W
HStem: 0 21G<64 172 365 472> 418 107<243.521 351.755> 680 20G<64 172>
VStem: 64 108<0 355.403 442 700> 365 107<0 405.34>
LayerCount: 2
Fore
SplineSet
365 0 m 1
 365 313 l 2
 365 381.01 361 418 308 418 c 0
 261 418 204 383 189 347 c 0
 173 314 172 275 172 243 c 2
 172 0 l 1
 64 0 l 1
 64 700 l 1
 172 700 l 1
 172 442 l 1
 175 438 l 1
 201 505 293 525 346 525 c 0
 439 525 472 450 472 361 c 2
 472 0 l 1
 365 0 l 1
EndSplineSet
EndChar

StartChar: i
Encoding: 105 105 74
Width: 254
Flags: W
HStem: 0 21G<72 179> 505 20G<72 179> 595 105<72 179>
VStem: 72 107<0 525 595 700>
LayerCount: 2
Fore
SplineSet
72 595 m 1
 72 700 l 1
 179 700 l 1
 179 595 l 1
 72 595 l 1
72 0 m 1
 72 525 l 1
 179 525 l 1
 179 0 l 1
 72 0 l 1
EndSplineSet
EndChar

StartChar: j
Encoding: 106 106 75
Width: 254
Flags: W
HStem: -207 87<-23 55.5984> 505 20G<72 179> 594 106<72 179>
VStem: 72 107<-103.799 525 594 700>
LayerCount: 2
Fore
SplineSet
72 594 m 1
 72 700 l 1
 179 700 l 1
 179 594 l 1
 72 594 l 1
-6 -207 m 0
 -12 -207 -23 -205 -23 -205 c 1
 -23 -118 l 1
 -23 -118 -5 -120 4 -120 c 0
 78 -120 72 -56 72 8 c 2
 72 525 l 1
 179 525 l 1
 179 8 l 2
 179 -165 156 -207 -6 -207 c 0
EndSplineSet
EndChar

StartChar: k
Encoding: 107 107 76
Width: 548
Flags: W
HStem: 0 21G<74 181 388.274 517> 501 20G<371.891 503> 684 20G<74 181>
VStem: 74 107<0 121 264 704> 388 115<406 521> 397 120<0 120>
DStem2: 181 264 284 259 0.627279 0.778795<0 60.7157 186.138 329.997> 366 354 284 259 0.392351 -0.919816<55.2097 337.778>
LayerCount: 2
Fore
SplineSet
397 0 m 1xf4
 284 259 l 1
 181 121 l 1
 181 0 l 1
 74 0 l 1
 74 704 l 1
 181 704 l 1
 181 264 l 1
 388 521 l 1
 503 521 l 1xf8
 366 354 l 1
 517 0 l 1
 397 0 l 1xf4
EndSplineSet
EndChar

StartChar: l
Encoding: 108 108 77
Width: 254
Flags: W
HStem: 0 21G<72 179> 680 20G<72 179>
VStem: 72 107<0 700>
LayerCount: 2
Fore
SplineSet
72 0 m 1
 72 700 l 1
 179 700 l 1
 179 0 l 1
 72 0 l 1
EndSplineSet
EndChar

StartChar: m
Encoding: 109 109 78
Width: 804
Flags: W
HStem: 0 21G<66 173 348 455 630 737> 435 91<222.378 328.901 501.461 611.237>
VStem: 66 107<0 376.074 449 521> 348 107<0 381.37> 630 107<0 416.342>
CounterMasks: 1 38
LayerCount: 2
Fore
SplineSet
630 0 m 1
 630 354 l 2
 630 410 605 435 549 435 c 0
 504 435 455 374 455 304 c 2
 455 0 l 1
 348 0 l 1
 348 304 l 2
 348 388 341 437 273 437 c 0
 227 437 195 385 182 349 c 0
 173 319 173 282 173 250 c 2
 173 0 l 1
 66 0 l 1
 66 521 l 1
 167 521 l 1
 167 457 l 1
 169 449 l 1
 207 518 254 526 313 526 c 0
 360 526 411 475 422 435 c 1
 466 518 525 526 577 526 c 0
 706 526 737 444 737 372 c 2
 737 0 l 1
 630 0 l 1
EndSplineSet
EndChar

StartChar: n
Encoding: 110 110 79
Width: 530
Flags: W
HStem: 0 21G<67 174 356 463> 430 96<229.06 333.455>
VStem: 67 107<0 370.43 443 521> 356 107<0 405.301>
LayerCount: 2
Fore
SplineSet
356 0 m 1
 356 298 l 2
 356 374 348 430 282 430 c 0
 234 430 174 385 174 267 c 2
 174 0 l 1
 67 0 l 1
 67 521 l 1
 172 521 l 1
 172 443 l 1
 212 504 252 526 301 526 c 0
 420 526 463 485 463 339 c 2
 463 0 l 1
 356 0 l 1
EndSplineSet
EndChar

StartChar: o
Encoding: 111 111 80
Width: 536
Flags: W
HStem: -3 78<212.735 326.662> 443 83<202.291 322.675>
VStem: 40 118<148.173 383.807> 377 118<142.551 376.554>
LayerCount: 2
Fore
SplineSet
264 -3 m 0
 123 -3 40 110 40 261 c 0
 40 412 123 526 264 526 c 0
 406 526 495 409 495 256 c 0
 495 109 399 -3 264 -3 c 0
264 443 m 0
 175 443 158 349 158 277 c 0
 158 208 175 75 268 75 c 0
 360 75 377 179 377 254 c 0
 377 314 366 443 264 443 c 0
EndSplineSet
EndChar

StartChar: p
Encoding: 112 112 81
Width: 536
Flags: W
HStem: -5 80<205.839 316.501> 432 94<214.561 319.219>
VStem: 54 107<-179 38 126.625 383.151> 54 98<438 521> 380 115<155.409 353.591>
LayerCount: 2
Fore
SplineSet
297 -5 m 0xd8
 268 -5 198 -12 175 40 c 1
 161 38 l 1
 161 -179 l 1
 54 -179 l 1xe8
 54 521 l 1
 152 521 l 1
 152 438 l 1
 187 508 250 526 313 526 c 0
 442 526 495 382 495 258 c 0
 495 124 426 -5 297 -5 c 0xd8
264 432 m 0
 212 432 161 387 161 291 c 2
 161 219 l 2
 161 125 208 75 261 75 c 0
 346 75 380 193 380 256 c 0
 380 322 346 432 264 432 c 0
EndSplineSet
EndChar

StartChar: q
Encoding: 113 113 82
Width: 530
Flags: W
HStem: -5 85<198.734 321.569> 435 88<212.413 333.669>
VStem: 34 115<135.618 359.899> 377 104<142.934 386.836 454 521>
LayerCount: 2
Fore
SplineSet
481 521 m 1
 481 -179 l 1
 374 -179 l 1
 374 46 l 1
 336 -8 288 -5 242 -5 c 0
 109 -5 34 120 34 259 c 0
 34 399 103 523 239 523 c 0
 302 523 353 515 382 454 c 1
 382 521 l 1
 481 521 l 1
377 307 m 2
 377 362 347 435 276 435 c 0
 182 435 149 331 149 259 c 0
 149 159 173 80 264 80 c 0
 335 80 377 163 377 224 c 2
 377 307 l 2
EndSplineSet
EndChar

StartChar: r
Encoding: 114 114 83
Width: 346
Flags: W
HStem: 0 21G<49 155> 419 107<213.425 319>
VStem: 49 106<0 357.903 455 521>
LayerCount: 2
Fore
SplineSet
155 455 m 1
 185 498 230 526 264 526 c 2
 319 526 l 1
 319 419 l 1
 291 419 258 416 231 407 c 0
 179 383 155 339 155 254 c 2
 155 0 l 1
 49 0 l 1
 49 521 l 1
 155 521 l 1
 155 455 l 1
EndSplineSet
EndChar

StartChar: s
Encoding: 115 115 84
Width: 482
Flags: W
HStem: -6 86<169.725 337.016> 435 91<164.993 312.621>
VStem: 32 95<122.688 184> 46 106<352.031 419.684> 336 98<349 409.524> 356 100<99.6079 189.733>
LayerCount: 2
Fore
SplineSet
456 159 m 0xd4
 456 113 424.5 -6 265 -6 c 0
 129 -6 35 20 32 184 c 1
 127 184 l 1
 135 94 193 80 268 80 c 0
 309 80 356 94 356 147 c 0xe4
 356 170 348.753 188.176 314 199 c 0
 253 217.999 197.987 238.983 139 265 c 0
 97.5432 283.285 46 300 46 379 c 0
 46 484 136 526 238 526 c 0
 374 526 429 468 434 349 c 1
 336 349 l 1xd8
 334 414 307 435 230 435 c 0
 182 435 152 411 152 385 c 0
 152 298 456 333 456 159 c 0xd4
EndSplineSet
EndChar

StartChar: t
Encoding: 116 116 85
Width: 372
Flags: W
HStem: -6 86<228.917 324.838> 435 88<23 105 212 322> 680 20G<109 212>
VStem: 105 107<96.2339 435 523 700>
LayerCount: 2
Fore
SplineSet
326 1 m 1
 300 -1 281 -6 254 -6 c 0
 118 -6 105 54 105 158 c 2
 105 435 l 1
 23 435 l 1
 23 521 l 1
 109 521 l 1
 109 700 l 1
 212 700 l 1
 212 523 l 1
 322 523 l 1
 322 435 l 1
 212 435 l 1
 212 189 l 2
 212 127 213 80 286 80 c 0
 298 80 302 81 326 83 c 1
 326 1 l 1
EndSplineSet
EndChar

StartChar: u
Encoding: 117 117 86
Width: 530
Flags: W
HStem: 501 20G<72 179 351 458>
VStem: 72 107<112.108 521> 351 107<140.45 521> 362 96<0 69>
LayerCount: 2
Fore
SplineSet
362 0 m 1xd0
 362 69 l 1xd0
 340 69 l 1
 299 6 259 -6 199 -6 c 0
 75 -6 72 98 72 190 c 2
 72 521 l 1
 179 521 l 1
 179 190 l 2
 179 135 189 94 253 94 c 0
 317 94 351 164 351 204 c 2
 351 521 l 1
 458 521 l 1xe0
 458 0 l 1
 362 0 l 1xd0
EndSplineSet
EndChar

StartChar: v
Encoding: 118 118 87
Width: 469
Flags: W
HStem: 0 21G<178.973 302.065> 501 20G<28 148.983 337.587 454>
VStem: 28 115<406 521> 343 111<410 521>
DStem2: 143 521 28 521 0.288528 -0.957471<0 366.368> 248 170 296 0 0.290211 0.956963<0 363.464>
LayerCount: 2
Fore
SplineSet
296 0 m 1
 185 0 l 1
 28 521 l 1
 143 521 l 1
 248 170 l 1
 343 521 l 1
 454 521 l 1
 296 0 l 1
EndSplineSet
EndChar

StartChar: w
Encoding: 119 119 88
Width: 726
Flags: W
HStem: 0 21G<161.587 280.652 453.348 564.374> 501 20G<26 145.68 308.406 427.874 596.209 699>
VStem: 26 115<406 521> 601 98<423 521>
DStem2: 141 521 26 521 0.261236 -0.965275<0 368.478> 231 164 276 0 0.226571 0.973995<0 234.446> 423 521 371 374 0.226571 -0.973995<131.396 367.428> 515 162 559 0 0.259508 0.965741<0 369.019>
LayerCount: 2
Fore
SplineSet
559 0 m 1
 458 0 l 1
 371 374 l 1
 363 374 l 1
 276 0 l 1
 167 0 l 1
 26 521 l 1
 141 521 l 1
 225 162 l 1
 231 164 l 1
 313 521 l 1
 316 521 423 521 423 521 c 1
 510 164 l 1
 515 162 l 1
 601 521 l 1
 699 521 l 1
 559 0 l 1
EndSplineSet
EndChar

StartChar: x
Encoding: 120 120 89
Width: 530
Flags: W
HStem: 0 21G<49 172.543 342.783 477> 501 20G<64 198.689 336.186 454>
VStem: 49 113<0 113> 353 124<0 124>
DStem2: 49 0 162 0 0.490114 0.871658<55.3829 263.309>
LayerCount: 2
Fore
SplineSet
353 0 m 1
 259 184 l 1
 162 0 l 1
 49 0 l 1
 204 270 l 1
 64 521 l 1
 189 521 l 1
 267 360 l 1
 346 521 l 1
 454 521 l 1
 320 281 l 1
 477 0 l 1
 353 0 l 1
EndSplineSet
EndChar

StartChar: y
Encoding: 121 121 90
Width: 470
Flags: W
HStem: 501 20G<38 158.391 348.555 449>
VStem: 38 115<406 521> 354 95<426 521>
DStem2: 253 150 279 -52 0.28443 0.958697<0 384.404>
LayerCount: 2
Fore
SplineSet
279 -52 m 2
 254 -135 201 -185 109 -192 c 2
 43 -196 l 1
 44 -94 l 1
 57 -95 68 -96 79 -96 c 0
 140 -96 179 -75 199 14 c 1
 38 521 l 1
 153 521 l 1
 253 150 l 1
 354 521 l 1
 449 521 l 1
 279 -52 l 2
EndSplineSet
EndChar

StartChar: z
Encoding: 122 122 91
Width: 412
Flags: W
HStem: 0 87<129 379> 436 85<41 261>
DStem2: 23 103 129 87 0.557388 0.830252<45.7991 409.132>
LayerCount: 2
Fore
SplineSet
23 0 m 1
 23 103 l 1
 261 436 l 1
 41 436 l 1
 41 521 l 1
 368 521 l 1
 368 443 l 1
 129 87 l 1
 379 87 l 1
 379 0 l 1
 23 0 l 1
EndSplineSet
EndChar

StartChar: braceleft
Encoding: 123 123 92
Width: 372
Flags: W
HStem: -182 56<235.33 305> 645 57<235.33 305>
VStem: 67 63<251.524 276.466> 147 77<-112.744 218.459 310.224 632.344>
LayerCount: 2
Fore
SplineSet
241 -182 m 2
 213 -182 147 -146 147 -67 c 2
 147 161 l 2
 147 224 100 238 67 239 c 1
 67 291 l 1
 100 293 147 305 147 359 c 2
 147 587 l 2
 147 665 213 702 241 702 c 2
 305 702 l 1
 305 645 l 1
 288 645 l 2
 225 645 224 601 224 573 c 2
 224 362 l 2
 224 302 176 277 130 273 c 1
 130 254 l 1
 176 251 224 236 224 159 c 2
 224 -54 l 2
 224 -81 225 -126 288 -126 c 2
 305 -126 l 1
 305 -182 l 1
 241 -182 l 2
EndSplineSet
EndChar

StartChar: bar
Encoding: 124 124 93
Width: 294
Flags: W
HStem: 0 21G<107 187> 680 20G<107 187>
VStem: 107 80<0 700>
LayerCount: 2
Fore
SplineSet
107 0 m 1
 107 700 l 1
 187 700 l 1
 187 0 l 1
 107 0 l 1
EndSplineSet
EndChar

StartChar: braceright
Encoding: 125 125 94
Width: 372
Flags: W
HStem: -185 56<67 136.957> 642 57<67 136.957>
VStem: 149 76<-116.221 214.275 307.766 629.344> 239 66<247.59 274.735>
LayerCount: 2
Fore
SplineSet
225 158 m 2
 225 -71 l 2
 225 -149 159 -185 132 -185 c 2
 67 -185 l 1
 67 -129 l 1
 86 -129 l 2
 147 -129 149 -83 149 -57 c 2
 149 156 l 2
 149 233 192 247 239 250 c 1
 239 271 l 1
 192 276 149 299 149 359 c 2
 149 570 l 2
 149 596 147 642 86 642 c 2
 67 642 l 1
 67 699 l 1
 132 699 l 2
 159 699 225 662 225 584 c 2
 225 356 l 2
 225 302 273 290 305 288 c 1
 305 236 l 1
 273 235 225 221 225 158 c 2
EndSplineSet
EndChar

StartChar: asciitilde
Encoding: 126 126 95
Width: 588
Flags: W
HStem: 220 85<363.86 445.029> 330 95<142.109 235.549>
VStem: 46 89<253 325.194> 455 86<309.632 391>
LayerCount: 2
Fore
SplineSet
541 391 m 1
 536 313 517 220 423 220 c 0
 336 220 240 330 173 330 c 0
 138 330 135 294 135 253 c 1
 46 253 l 1
 55 392 113 425 158 425 c 0
 254 425 360 305 418 305 c 0
 449 305 453 342 455 391 c 1
 541 391 l 1
EndSplineSet
EndChar

StartChar: uni0E10.descless
Encoding: 128 63232 96
Width: 613
Flags: W
HStem: -3 75<321.824 410.389> 168 65<148.198 202.682> 305 68<148.847 215.25> 445 50<195 217.006> 497 75<372.671 562.368> 534 70<211.795 394.943>
VStem: 77 68<235.714 301.443> 423 113<175 347.919>
DStem2: 412 104 526 133 0.0608626 0.998146<-28.083 182.051>
LayerCount: 2
Fore
SplineSet
484 572 m 0xfb
 543 572 555 598 555 598 c 1
 590 532 l 1
 587 530 558 497 489 497 c 0xfb
 403 497 362 534 287 534 c 0
 214 534 201 502 195 495 c 1
 199 495 270 495 363 466 c 0
 458 435 503 402 524 353 c 0
 534 332 536 317 536 302 c 0
 536 292 535 283 535 273 c 2
 526 133 l 2
 519 17 428 -3 360 -3 c 0
 286.5 -3 217.059 19.4059 208 110 c 2
 202 170 l 1
 195 169 187 168 180 168 c 0
 128 168 77 203 77 266 c 0
 77 325 118 373 185 373 c 0
 285 373 306 303 310 247 c 2
 317 115 l 2
 319 89 325 72 363 72 c 0
 397 72 411 78 412 104 c 2
 422 268 l 2
 423 274 423 280 423 286 c 0
 423 309 417 329 399 351 c 0
 371 382 300 409 218 423 c 0
 132 438 67 445 66 445 c 1
 66 476 110 604 278 604 c 0xf7
 368 604 422 572 484 572 c 0xfb
181 305 m 0
 157 305 145 287 145 269 c 0
 145 251 157 233 181 233 c 0
 206 233 218 251 218 269 c 0
 218 287 206 305 181 305 c 0
EndSplineSet
EndChar

StartChar: ellipsis
Encoding: 133 8230 101
Width: 637
VWidth: 2048
Flags: W
HStem: 0 133<62.0396 167.925 273.226 380.877 484.633 588>
VStem: 49 135<16.1858 119.96> 261 133<12.3098 119.96> 472 133<17.161 119.96>
LayerCount: 2
Fore
SplineSet
184 66 m 0
 184 33 161 0 116 0 c 0
 72 0 49 21 49 66 c 0
 49 110 72 133 116 133 c 0
 161 133 184 110 184 66 c 0
326 133 m 0
 371 133 394 110 394 66 c 0
 394 21 371 0 326 0 c 0
 282 0 261 21 261 66 c 0
 261 110 282 133 326 133 c 0
605 66 m 0
 605 24 572 0 538 0 c 0
 494 0 472 21 472 66 c 0
 472 110 494 133 538 133 c 0
 582 133 605 110 605 66 c 0
EndSplineSet
EndChar

StartChar: uni0E49.low_left
Encoding: 135 63238 103
Width: 0
Flags: W
HStem: 791 59<-552.257 -522> 946 58<-553.72 -473.164>
VStem: -624 63<857.743 938.001> -465 74<857.75 937.654>
LayerCount: 2
Back
SplineSet
-510 716 m 0
 -510 716 l 0
 -490 742 -486 766 -486 766 c 1
 -512 766 -550 782 -566 814 c 0
 -589 868 -559 944 -486 947 c 0
 -428 949 -385 917 -377 868 c 0
 -369 809 -400 753 -418 740 c 1
 -388 745 -360 753 -328 768 c 0
 -291 786 -273 802 -250 823 c 0
 -202 868 -175 923 -175 923 c 1
 -175 785 l 1
 -175 785 -230 728 -322 699 c 0
 -403 673 -509 667 -559 673 c 1
 -559 673 -530 690 -510 716 c 0
-478 815 m 0
 -425 815 -428 898 -481 898 c 0
 -535 898 -532 815 -478 815 c 0
EndSplineSet
Fore
Refer: 108 63243 N 1 0 0 1 -166 0 2
EndChar

StartChar: uni0E4A.low_left
Encoding: 136 63239 104
Width: 0
Flags: W
HStem: 677 40<-573.215 -506.033> 797 41<-571.753 -505.733> 901 74<-560.831 -466.586 -421.13 -349.319>
VStem: -501 45<720.513 793.063> -336 81<774.281 887.958> -175 93<864.584 923.462>
LayerCount: 2
Back
SplineSet
-535 834 m 0xe0
 -535 834 l 0
 -543 819 -540 802 -540 799 c 1
 -538 799 -507 814 -475 799 c 0
 -435 779 -434 714 -463 688 c 0
 -504 650 -570 676 -592 722 c 0
 -621 785 -601 906 -527 921 c 0
 -469 932 -437 887 -435 887 c 0xe0
 -434 887 -400 923 -357 923 c 0
 -317 923 -277 895 -273 837 c 0
 -267 789 -290 750 -290 750 c 1
 -285 751 -253 769 -230 809 c 0
 -208 849 -204 898 -204 917 c 1
 -124 875 l 1
 -124 875 -146 769 -236 719 c 0
 -294 685 -380 674 -405 674 c 0
 -400 674 -354 704 -343 768 c 0
 -336 812 -343 858 -382 858 c 0xd0
 -405 858 -438 832 -438 832 c 2
 -440 832 -468 860 -501 860 c 0
 -521 860 -529 848 -535 834 c 0xe0
-515 705 m 0
 -471 705 -471 773 -515 773 c 0
 -559 773 -559 705 -515 705 c 0
EndSplineSet
Fore
Refer: 109 63244 N 1 0 0 1 -166 0 2
EndChar

StartChar: uni0E4B.low_left
Encoding: 137 63240 105
Width: 0
Flags: W
HStem: 808 98<-613 -474 -356 -216>
VStem: -474 118<682 808 906 1033>
LayerCount: 2
Back
SplineSet
-468 981 m 1
 -356 981 l 1
 -356 871 l 1
 -236 871 l 1
 -236 788 l 1
 -356 788 l 1
 -356 679 l 1
 -468 679 l 1
 -468 788 l 1
 -586 788 l 1
 -586 871 l 1
 -468 871 l 1
 -468 981 l 1
EndSplineSet
Fore
Refer: 110 63245 S 1 0 0 1 -270 0 2
EndChar

StartChar: uni0E4C.low_left
Encoding: 138 63241 106
Width: 0
Flags: W
HStem: 668 48<-394.648 -313.186> 814 47<-361.834 -314.375>
VStem: -472 70<723.675 806.065> -305 50<723.574 806.675> -210 95<986.561 1056>
LayerCount: 2
Back
SplineSet
-342 874 m 0
 -342 874 l 0
 -395 869 -400 843 -402 843 c 0
 -399 843 -303 843 -305 746 c 0
 -305 667 -423 642 -472 700 c 0
 -517 753 -503 846 -445 887 c 0
 -386 927 -336 914 -288 949 c 0
 -264 967 -264 1013 -264 1018 c 1
 -179 1018 l 1
 -179 1013 -187 953 -212 926 c 0
 -238 898 -268 880 -342 874 c 0
-392 713 m 0
 -334 713 -334 800 -392 800 c 0
 -451 800 -451 713 -392 713 c 0
EndSplineSet
Fore
Refer: 111 63246 N 1 0 0 1 -166 0 2
EndChar

StartChar: uni0E48.low
Encoding: 139 63242 107
Width: 0
Flags: W
VStem: -202 118<684 938>
AnchorPoint: "AboveBase" -87 613 mark 0
LayerCount: 2
Fore
SplineSet
-202 684 m 1
 -202 938 l 1
 -84 938 l 1
 -84 684 l 1
 -202 684 l 1
EndSplineSet
EndChar

StartChar: uni0E49.low
Encoding: 140 63243 108
Width: 0
Flags: W
HStem: 791 59<-386.257 -356> 946 58<-387.72 -307.164>
VStem: -458 63<857.743 938.001> -299 74<857.75 937.654>
AnchorPoint: "AboveBase" -87 613 mark 0
LayerCount: 2
Fore
SplineSet
11 814 m 1
 -29 772 -147 678 -384 678 c 0
 -406 678 -425 679 -440 681 c 1
 -440 681 -406 699 -382 731 c 0
 -359 762 -356 791 -356 791 c 1
 -395 791 -458 822 -458 895 c 0
 -458 949 -420 1004 -348 1004 c 0
 -279 1004 -225 963 -225 885 c 0
 -225 827 -256 774 -273 760 c 1
 -74 788 7 972 11 976 c 1
 11 814 l 1
-299 898 m 0
 -299 926 -319 946 -347 946 c 0
 -375 946 -395 926 -395 898 c 0
 -395 870 -375 850 -347 850 c 0
 -319 850 -299 870 -299 898 c 0
EndSplineSet
EndChar

StartChar: uni0E4A.low
Encoding: 141 63244 109
Width: 0
Flags: W
HStem: 677 40<-407.215 -340.033> 797 41<-405.753 -339.733> 901 74<-394.831 -300.586 -255.13 -183.319>
VStem: -335 45<720.513 793.063> -170 81<774.281 887.958> -9 93<864.584 923.462>
AnchorPoint: "AboveBase" -87 613 mark 0
LayerCount: 2
Fore
SplineSet
-356 901 m 0
 -397 901 -407 859 -407 845 c 0
 -407 837 -405 832 -405 829 c 1
 -404 829 -388 838 -366 838 c 0
 -324 838 -290 806 -290 758 c 0
 -290 708 -329 677 -374 677 c 0
 -416 677 -483 707 -483 814 c 0
 -483 888 -449 975 -364 975 c 0
 -310 975 -285 938 -282 933 c 1
 -277.5 937 -237 975 -189 975 c 0
 -129 975 -89 923 -89 858 c 0
 -89 809 -112 771 -112 771 c 1
 -106 774 -69 794 -41 842 c 0
 -15 889 -9 946 -9 966 c 1
 84 920 l 1
 84 920 58 794 -48 734 c 0
 -116.902 694.518 -210 682 -245 682 c 1
 -228 691 -170 740 -170 827 c 0
 -170 866 -184 898 -221 898 c 0
 -245 898 -280 871.5 -285 868 c 1
 -290 871.5 -319 901 -356 901 c 0
-374 717 m 0
 -348 717 -335 737 -335 757 c 0
 -335 777 -348 797 -374 797 c 0
 -400 797 -413 777 -413 757 c 0
 -413 737 -400 717 -374 717 c 0
EndSplineSet
EndChar

StartChar: uni0E4B.low
Encoding: 142 63245 110
Width: 0
Flags: W
HStem: 808 98<-343 -204 -86 54>
VStem: -204 118<682 808 906 1033>
AnchorPoint: "AboveBase" 17 613 mark 0
LayerCount: 2
Fore
SplineSet
-204 1033 m 1
 -86 1033 l 1
 -86 906 l 1
 54 906 l 1
 54 808 l 1
 -86 808 l 1
 -86 682 l 1
 -204 682 l 1
 -204 808 l 1
 -343 808 l 1
 -343 906 l 1
 -204 906 l 1
 -204 1033 l 1
EndSplineSet
EndChar

StartChar: uni0E4C.low
Encoding: 143 63246 111
Width: 0
Flags: W
HStem: 668 48<-228.648 -147.186> 814 47<-195.834 -148.375>
VStem: -306 70<723.675 806.065> -139 50<723.574 806.675> -44 95<986.561 1056>
AnchorPoint: "AboveBase" -87 613 mark 0
LayerCount: 2
Fore
SplineSet
-193 668 m 0
 -261 668 -306 723 -306 790 c 0
 -306 836 -285 882 -245 910 c 0
 -157 970 -44 930 -44 1056 c 1
 51 1056 l 1
 51 1052 44 986 15 953 c 0
 -14 921 -51 901 -130 895 c 0
 -190 891 -195 861 -196 861 c 1
 -192 861 -89 861 -89 759 c 0
 -89 700 -141 668 -193 668 c 0
-187 716 m 0
 -155 716 -139 740 -139 765 c 0
 -139 790 -155 814 -187 814 c 0
 -220 814 -236 790 -236 765 c 0
 -236 740 -220 716 -187 716 c 0
EndSplineSet
EndChar

StartChar: uni0E0D.descless
Encoding: 144 63247 112
Width: 882
Flags: W
HStem: -2 59<213.277 274.753> 0 78<407 446 564 676.746> 136 66<227.048 273.131> 518 81<230.814 405.714>
VStem: 109 118<202 351.751> 109 101<59.3644 134.022> 278 54<60.1929 132.771> 446 118<78 480.031> 679 118<82.2486 595>
LayerCount: 2
Fore
SplineSet
639 78 m 2x7b80
 671 78 679 98 679 112 c 2
 679 595 l 1
 797 595 l 1
 797 130 l 2
 797 58 756 0 699 0 c 2
 407 0 l 1
 407 78 l 1
 446 78 l 1x7b80
 446 399 l 2
 446 475 414 518 327 518 c 0
 252 518 209 483 209 483 c 1
 212 481 230 471 263 448 c 0
 290 426 313 402 313 402 c 1
 310 402 281 389 252 356 c 0
 229 326 227 291 227 276 c 2
 227 202 l 1
 246.14 202 332 198 332 99 c 0
 332 22 270 -2 227 -2 c 0xbb80
 154 -2 109 46 109 130 c 2xb780
 109 276 l 2
 109 287 112 330 132 357 c 0
 155 386 183 397 183 397 c 1
 141 441 54 480 49 481 c 1
 69 509 162 599 330 599 c 0
 506 599 564 505 564 411 c 2
 564 78 l 1
 639 78 l 2x7b80
243 136 m 0
 221 136 210 116 210 96 c 0
 210 76 221 57 243 57 c 0xb780
 267 57 278 77 278 96 c 0
 278 116 267 136 243 136 c 0
EndSplineSet
EndChar

StartChar: quoteleft
Encoding: 145 8216 113
Width: 295
Flags: W
HStem: 450 145<125.192 193.183> 684 39<157 196>
VStem: 58 66<593 634.444>
LayerCount: 2
Fore
SplineSet
134 450 m 0
 104 450 58 467 58 545 c 0
 58 614 99 708 196 723 c 1
 196 684 l 1
 162 677 124 630 124 593 c 1
 130 595 137 595 143 595 c 0
 177 595 213 571 213 524 c 0
 213 465 164 450 134 450 c 0
EndSplineSet
EndChar

StartChar: quoteright
Encoding: 146 8217 114
Width: 280
Flags: W
HStem: 460 40<84 124> 588 145<88.5 157.673>
VStem: 158 68<554.529 590>
LayerCount: 2
Fore
SplineSet
147 733 m 0
 178 733 226 719 226 644 c 0
 226 576 188 481 84 460 c 1
 84 500 l 1
 118 507 158 553 158 590 c 1
 151 588 145 588 139 588 c 0
 105 588 69 610 69 659 c 0
 69 702 95 733 147 733 c 0
EndSplineSet
EndChar

StartChar: quotedblleft
Encoding: 147 8220 115
Width: 487
Flags: W
HStem: 448 147<139 194.136 354 408.137> 687 53<156.576 208 370.242 422>
LayerCount: 2
Fore
SplineSet
139 595 m 1
 180 595 216 565 216 521 c 0
 216 486 190 448 139 448 c 0
 79 448 60 497 60 543 c 0
 60 587 83 734 208 740 c 1
 208 687 l 1
 198 687 159 685 147 655 c 0
 139 634 137 620 137 610 c 0
 137 601 139 596 139 595 c 1
354 595 m 1
 395 595 429 566 429 520 c 0
 429 485 405 448 354 448 c 0
 292 448 274 498 274 544 c 0
 274 586 296 734 422 740 c 1
 422 687 l 1
 412 687 374 685 362 655 c 0
 354 636 352 622 352 612 c 0
 352 602 354 597 354 595 c 1
EndSplineSet
EndChar

StartChar: quotedblright
Encoding: 148 8221 116
Width: 493
Flags: W
HStem: 449 54<80 134.127 294 346.491> 595 147<95.167 149 308.339 363>
VStem: 80 148<610.351 718.495>
LayerCount: 2
Fore
SplineSet
287 669 m 0
 287 704 312 742 363 742 c 0
 424 742 443 692 443 646 c 0
 443 609 422 456 294 449 c 1
 294 503 l 1
 305 503 343 504 356 535 c 0
 363 554 365 568 365 578 c 0
 365 588 363 593 363 595 c 1
 322 595 287 625 287 669 c 0
74 672 m 0
 74 706 99 742 149 742 c 0
 209 742 228 694 228 649 c 0
 228 637 227 626 225 616 c 0
 210 520 167 454 80 449 c 1
 80 503 l 1
 90 503 129 504 141 535 c 0
 149 554 151 568 151 578 c 0
 151 588 149 593 149 595 c 1
 105 595 74 626 74 672 c 0
EndSplineSet
EndChar

StartChar: bullet
Encoding: 149 8226 117
Width: 531
Flags: W
HStem: 100 337<196.057 366.596>
VStem: 113 337<181.336 355.401>
LayerCount: 2
Fore
SplineSet
281 437 m 0
 394 437 450 353 450 268 c 0
 450 184 394 100 281 100 c 0
 169 100 113 184 113 268 c 0
 113 353 169 437 281 437 c 0
EndSplineSet
EndChar

StartChar: endash
Encoding: 150 8211 118
Width: 665
Flags: W
HStem: 248 97<48 609>
LayerCount: 2
Fore
SplineSet
609 248 m 1
 48 248 l 1
 48 345 l 1
 609 345 l 1
 609 248 l 1
EndSplineSet
EndChar

StartChar: emdash
Encoding: 151 8212 119
Width: 1056
Flags: W
LayerCount: 2
Fore
SplineSet
1007 248 m 1
 49 248 l 1
 49 345 l 1
 1007 345 l 1
 1002 313 1007 270 1007 248 c 1
EndSplineSet
EndChar

StartChar: uni0E31.left
Encoding: 152 63248 120
Width: 0
Flags: W
HStem: 682 77<-428.25 -286.762> 873 57<-555.16 -476.532>
VStem: -622 61<788.005 866.205> -469 65<787.265 865.302>
LayerCount: 2
Back
SplineSet
9 788 m 1
 9 788 l 0
 8 788 -51 725 -169 699 c 0
 -274 674 -388 687 -434 704 c 0
 -544 748 -535 872 -471 910 c 0
 -408 950 -314 918 -302 845 c 0
 -293 789 -326 757 -326 757 c 1
 -322 757 -245 753 -169 783 c 0
 -37 834 9 914 9 914 c 1
 9 788 l 1
-363 828 m 0
 -365 889 -457 886 -455 825 c 0
 -454 765 -362 766 -363 828 c 0
EndSplineSet
Fore
Refer: 177 3633 S 1 0 0 1 -166 0 2
EndChar

StartChar: uni0E47.left
Encoding: 154 63250 122
Width: 0
Flags: W
HStem: 674 63<-371.466 -316.455> 759 94<-525.816 -456.146> 808 60<-371.712 -316.696> 926 80<-507.091 -304.857> 942 70<-571.292 -367.77>
VStem: -690 92<793.621 913.876> -314 52<738.228 806.438> -290 99<1021.79 1093>
LayerCount: 2
Back
SplineSet
-201 1061 m 1
 -201 1061 l 1
 -201 1061 -195 932 -297 917 c 0
 -376 904 -422 929 -497 926 c 0
 -543 923 -564 881 -564 840 c 0
 -564 802 -533 789 -533 789 c 1
 -533 792 -530 837 -494 846 c 0
 -455 857 -411 805 -411 805 c 1
 -411 805 -399 861 -337 861 c 0
 -290 861 -259 819 -265 760 c 0
 -268 717 -299 691 -337 690 c 0
 -406 687 -434 766 -471 765 c 0
 -517 763 -503 690 -503 688 c 1
 -561 690 -613 716 -632 769 c 0
 -661 849 -638 953 -553 981 c 0
 -484 1002 -388 972 -322 990 c 0
 -288 998 -293 1033 -290 1061 c 1
 -201 1061 l 1
-336 806 m 0
 -369 806 -374 746 -336 746 c 0
 -299 746 -303 806 -336 806 c 0
EndSplineSet
Fore
Refer: 197 3655 N 1 0 0 1 -166 0 2
EndChar

StartChar: uni0E01
Encoding: 161 3585 129
Width: 674
Flags: W
HStem: 0 21G<116 234 474 592> 524 74<246.056 428.624>
VStem: 116 118<0 350.323> 474 118<0 480.297>
LayerCount: 2
Fore
SplineSet
190 397 m 1
 149 441 64 476 57 478 c 1
 75 506 176 598 336 598 c 0
 518 598 592 506 592 411 c 2
 592 0 l 1
 474 0 l 1
 474 409 l 2
 474 486 426 524 339 524 c 0
 259 524 217 483 217 483 c 1
 220 481 239 471 271 448 c 0
 298 426 321 402 321 402 c 1
 318 402 288 389 260 356 c 0
 236 326 234 291 234 276 c 2
 234 0 l 1
 116 0 l 1
 116 276 l 2
 116 287 120 330 139 357 c 0
 162 386 190 397 190 397 c 1
EndSplineSet
EndChar

StartChar: uni0E02
Encoding: 162 3586 130
Width: 659
Flags: W
HStem: 0 78<120 190 308 453.721> 342 70<109.067 171.892> 531 67<200.421 264.593>
VStem: 29 76<416.017 486.118> 176 67<414.356 487.383> 190 118<78 285.731> 292 95<365.557 502.497> 462 118<86.9062 595>
LayerCount: 2
Fore
SplineSet
410 78 m 2xf5
 441 78 462 94 462 135 c 2
 462 595 l 1
 580 595 l 1
 580 133 l 2
 580 73 553 0 449 0 c 2
 120 0 l 1
 120 78 l 1
 190 78 l 1
 190 224 l 2xf5
 190 305 292 343 292 434 c 0
 292 463 277 531 213 531 c 0
 206 531 200 530 196 530 c 1
 225 516 243 478 243 444 c 0
 243 396 210 342 141 342 c 0
 78 342 29 384 29 453 c 0
 29 511 65 598 207 598 c 0
 345 598 387 507 387 447 c 0xfb
 387 347 308 301 308 230 c 2
 308 78 l 1
 410 78 l 2xf5
105 451 m 0
 105 431 117 412 142 412 c 0
 165 412 176 431 176 451 c 0xf9
 176 470 165 490 141 490 c 0
 117 490 105 470 105 451 c 0
EndSplineSet
EndChar

StartChar: uni0E03
Encoding: 163 3587 131
Width: 669
Flags: W
HStem: 0 78<132 204 322 458.473> 289 62<80.1514 136.874> 429 54<98.397 137.693> 458 85<206.419 240.698> 500 96<258.382 334.735> 520 76<103.605 187.559>
VStem: 7 69<354.081 426.921> 141 59<353.512 426.046> 204 118<78 285.539> 309 98<383.861 497.137> 463 118<85.1958 595>
LayerCount: 2
Fore
SplineSet
409 78 m 2xcba0
 443.5 78 463 92 463 119 c 2
 463 595 l 1
 581 595 l 1
 581 120 l 2
 581 29 516 7.34351e-06 432 0 c 2
 132 0 l 1
 132 78 l 1
 204 78 l 1
 204 221 l 2xcba0
 204 298 309 373 309 448 c 0
 309 478 292 500 279 500 c 0xcb60
 253 500 222 458 221 458 c 1xd360
 219.5 461.5 185 520 137 520 c 0
 103 520 98 485 98 481 c 1
 98 481 103 483 113 483 c 0
 163 483 200 441 200 388 c 0
 200 334 163 289 107 289 c 0
 48 289 7 335 7 412 c 0
 7 485 45 596 136 596 c 0xe760
 186 596 224 543 225 543 c 1xd360
 230 541 264 596 307 596 c 0
 367 596 407 519 407 459 c 0xcb60
 407 336 322 315 322 215 c 2
 322 78 l 1
 409 78 l 2xcba0
141 389 m 0
 141 411 129 429 107 429 c 0xe320
 86 429 76 411 76 392 c 0
 76 372 87 352 109 351 c 0
 129 351 139 369 141 389 c 0
EndSplineSet
EndChar

StartChar: uni0E04
Encoding: 164 3588 132
Width: 702
Flags: W
HStem: 0 21G<147 267 502 620> 207 66<319.372 387.237> 348 66<320.125 386.518> 510 88<243.568 450.648>
VStem: 70 108<235.755 447.077> 147 120<0 137.26> 391 66<276.551 344.624> 502 118<0 460.404>
LayerCount: 2
Fore
SplineSet
70 358 m 0xfb
 70 550 226 598 355 598 c 0
 524 598 620 514 620 380 c 2
 620 0 l 1
 502 0 l 1
 502 374 l 2
 502 444 488 510 349 510 c 0
 200 510 178 425 178 368 c 0xfb
 178 293 210 173 213 169 c 1
 213 173 224 302 248 348 c 0
 268 386 293 412 354 414 c 0
 420 414 457 361 457 307 c 0
 457 245 414 207 356 207 c 0
 323 207 300 221 300 221 c 1
 300 221 267 96 267 0 c 1
 147 0 l 1
 147 21 l 2xf7
 147 143 70 229 70 358 c 0xfb
354 348 m 0
 328 348 316 329 316 310 c 0
 316 292 328 273 354 273 c 0
 378 273 391 292 391 310 c 0
 391 329 378 348 354 348 c 0
EndSplineSet
EndChar

StartChar: uni0E05
Encoding: 165 3589 133
Width: 698
Flags: W
HStem: 0 21G<136 256 494 612> 184 66<312.594 379.647> 325 67<312.485 379.136> 498 100<207.789 243 437 475.463>
VStem: 60 108<238.532 453.496> 136 118<0 140.166> 383 64<253.182 320.789> 494 118<0 481.276>
LayerCount: 2
Fore
SplineSet
136 25 m 2xf7
 136 161 60 223 60 358 c 0
 60 539 200 598 245 598 c 1
 339 541 l 1
 437 598 l 1
 488 598 612 561 612 406 c 2
 612 0 l 1
 494 0 l 1
 494 401 l 2
 494 474 468 499 430 499 c 1
 339 452 l 1
 243 498 l 1
 213 498 168 449 168 361 c 0xfb
 168 286 199 173 202 169 c 1
 202 173 216 284 235 320 c 0
 253 355 278 392 347 392 c 0
 385 392 447 371 447 288 c 0
 447 205 377 184 342 184 c 0
 313 184 290 195 290 195 c 1
 284 172 277 153 273 127 c 0
 265 78 258 48 254 0 c 1
 136 0 l 1
 136 25 l 2xf7
346 325 m 0
 322 325 309 306 309 288 c 0
 309 269 322 250 346 250 c 0
 370 250 383 269 383 288 c 0
 383 306 370 325 346 325 c 0
EndSplineSet
EndChar

StartChar: uni0E06
Encoding: 166 3590 134
Width: 767
Flags: W
HStem: -5 81<227.791 274.771> 200 81<230.797 276> 289 60<90.1688 146.794> 428 55<109.37 146.391> 458 85<215.985 251.156> 500 96<268.688 345.27> 520 76<114.165 197.704>
VStem: 17 69<352.543 425.092> 138 82<82.196 191.271> 150 61<351.001 426.211> 276 118<78.8832 155 281 409.639> 313 104<397.719 499.842> 563 116<139 595>
LayerCount: 2
Fore
SplineSet
17 411 m 0xf358
 17 504 66 596 147 596 c 0xf358
 197 596 235 543 236 543 c 1xe958
 241 541 273 596 317 596 c 0
 380 596 417 512 417 470 c 0xe558
 417 436 394 394 394 348 c 2
 394 258 l 1
 397 256 428 244 466 213 c 0
 503 182 512 172 544 143 c 0
 561 127 563 127 563 139 c 2
 563 595 l 1
 679 595 l 1
 679 89 l 2
 679 16 623 -3 589 -3 c 0
 541 -3 513 34 468 83 c 0
 417 138 397 150 394 155 c 1
 394 98 l 2
 394 11 325 -5 271 -5 c 0
 206 -5 138 40 138 133 c 0
 138 250 233 281 276 281 c 1
 276 351 l 2xe5a8
 276 392 313 414 313 461 c 0
 313 482 303 500 290 500 c 0xe518
 264 500 231 458 230 458 c 1xe918
 226 464 196 520 148 520 c 0
 117 520 109 491 109 481 c 1
 109 481 114 483 123 483 c 0
 163 483 211 450 211 387 c 0
 211 333 173 289 117 289 c 0
 77 289 17 313 17 411 c 0xf358
220 130 m 0xe1a8
 220 105 229 76 268 76 c 0
 275 76 276 81 276 98 c 2
 276 198 l 1
 275 198 270 200 262 200 c 0
 228 200 220 154 220 130 c 0xe1a8
150 388 m 0xf148
 150 409 139 428 118 428 c 0
 97 428 86 409 86 390 c 0
 86 370 97 350 118 349 c 0
 139 349 150 368 150 388 c 0xf148
EndSplineSet
EndChar

StartChar: uni0E07
Encoding: 167 3591 135
Width: 510
Flags: W
HStem: -3 89<216.528 293.454> 378 71<250.772 299.996> 527 71<250.374 319.565>
VStem: 176 70<452.899 522.972> 300 118<91.6499 379> 325 93<452.597 523>
LayerCount: 2
Fore
SplineSet
176 487 m 0xf8
 176 564 237 598 287 598 c 0
 406 598 418 504 418 460 c 2xf4
 418 152 l 2
 418 28 330 -3 263 -3 c 0
 212 -3 155 16 127 74 c 0
 104 123 103 167 75 212 c 0
 55 242 40 236 18 242 c 1
 18 345 l 1
 19 345 27 346 39 346 c 0
 63 346 104 341 132 307 c 0
 188 237 184 86 256 86 c 0
 295 86 300 113 300 146 c 2
 300 379 l 1
 300 379 296 378 289 378 c 0
 224 378 176 422 176 487 c 0xf8
325 488 m 0
 325 511 309 527 286 527 c 0
 263 527 246 511 246 488 c 0
 246 465 263 449 286 449 c 0
 309 449 325 465 325 488 c 0
EndSplineSet
EndChar

StartChar: uni0E08
Encoding: 168 3592 136
Width: 606
Flags: W
HStem: -3 89<319.167 398.981> 197 65<147.225 200.853> 337 67<148.075 217.528> 510 88<161.796 357.086>
VStem: 80 64<265.086 332.641> 405 118<90.6562 463.076>
LayerCount: 2
Fore
SplineSet
15 486 m 1
 22 518 96 598 267 598 c 0
 424 598 523 531 523 404 c 2
 523 170 l 2
 523 46 458 -3 357 -3 c 0
 274 -3 221 38 210 94 c 0
 202 130 201 166 201 185 c 2
 201 198 l 1
 199 198 195 197 190 197 c 0
 102 197 80 257 80 298 c 0
 80 362 127 404 190 404 c 0
 227 404 263 388 282 357 c 0
 311 311 302 228 308 175 c 0
 313 122 308 86 363 86 c 0
 395 86 405 102 405 139 c 2
 405 379 l 2
 405 476 356 510 261 510 c 0
 164 510 114 458 83 434 c 1
 15 486 l 1
221 299 m 0
 221 319 207 337 182 337 c 0
 157 337 144 318 144 299 c 0
 144 281 156 262 182 262 c 0
 208 262 221 281 221 299 c 0
EndSplineSet
EndChar

StartChar: uni0E09
Encoding: 169 3593 137
Width: 711
Flags: W
HStem: -3 116<214 312.562> -3 89<563.157 610.942> 179 68<126.285 158.907> 219 78<563 602.065> 319 67<125.058 184.198> 506 98<172.929 393.928>
VStem: 58 64<249.786 317.332> 159 117<113.002 179> 185 91<248.828 316.025> 445 118<86.8591 162 293.308 460.294> 618 75<90.3067 202.603>
AnchorPoint: "AboveBase" 560 613 basechar 0
LayerCount: 2
Fore
SplineSet
693 145 m 0x9f60
 693 81 668 -3 569 -3 c 0x5f60
 530 -3 445 16 445 94 c 2
 445 162 l 1
 443 159 414 129 372 61 c 0
 340 12 310 -3 258 -3 c 0
 170 -3 159 50 159 74 c 2
 159 179 l 1xaf60
 96 179 58 225 58 281 c 0
 58 334 92 386 166 386 c 0
 233 386 276 336 276 276 c 2xaee0
 276 124 l 2
 276 116 276 113 285 113 c 0
 303 113 322 149 362 198 c 0
 409 258 440 271 445 274 c 1
 445 389 l 2
 445 483 375 506 290 506 c 0
 136 506 106 431 104 426 c 1
 25 475 l 1
 25 488 94 604 295 604 c 0
 453 604 563 542 563 417 c 2
 563 297 l 1
 628 288 693 261 693 145 c 0x9f60
563 219 m 1
 563 114 l 2
 563 90 566 86 584 86 c 0
 615 86 618 129 618 149 c 0
 618 202 579 219 563 219 c 1
185 289 m 0x2ee0
 185 313 167 319 154 319 c 0
 133 319 122 301 122 283 c 0
 122 265 133 247 155 247 c 0
 172 247 185 269 185 289 c 0x2ee0
EndSplineSet
EndChar

StartChar: uni0E0A
Encoding: 170 3594 138
Width: 656
Flags: W
HStem: 0 78<104 175 293 438.91> 345 67<91.1812 154.468> 527 71<183.563 247.414>
VStem: 20 67<415.064 486.536> 159 66<415.073 487.065> 175 118<78 286.673> 448 118<85.3369 391.734>
LayerCount: 2
Fore
SplineSet
190 598 m 0xfa
 328 598 363 510 366 487 c 1
 373 491 535 577 582 670 c 1
 609 561 l 1
 609 552 513 479 458 468 c 1
 463 466 503 451 529 418 c 0
 561 380 566 346 566 300 c 2
 566 133 l 2
 566 76 540 0 434 0 c 2
 104 0 l 1
 104 78 l 1
 175 78 l 1
 175 225 l 2xf6
 175 303 276 346 276 436 c 0
 276 470 261 527 194 527 c 2
 181 527 l 1
 189 523 225 510 225 450 c 0
 225 396 188 345 122 345 c 0
 67 345 20 387 20 457 c 0
 20 508 51 598 190 598 c 0xfa
395 78 m 2
 423 78 448 89 448 135 c 2
 448 325 l 2
 448 351 445 372 428 391 c 0
 402 422 395 422 371 423 c 1
 369 425 l 1
 358 336 293 300 293 233 c 2
 293 78 l 1
 395 78 l 2
87 451 m 0
 87 431 99 412 124 412 c 0
 147 412 159 432 159 451 c 0xfa
 159 470 147 490 123 490 c 0
 100 490 87 470 87 451 c 0
EndSplineSet
EndChar

StartChar: uni0E0B
Encoding: 171 3595 139
Width: 694
Flags: W
HStem: 0 78<147 219 337 481.91> 292 64<95.3519 154.801> 429 57<115.37 155.271> 461 85<222.856 257.109> 503 96<274.662 350.5> 522 77<118.972 204.68>
VStem: 21 71<358.796 425.495> 158 58<358.496 426.666> 219 118<78 340.488> 491 118<86.1964 390.652>
LayerCount: 2
Fore
SplineSet
21 419 m 0xe7c0
 21 521 79 599 153 599 c 0xe7c0
 203 599 241 546 242 546 c 1xd3c0
 247 544 279 599 322 599 c 0
 379 599 402 535 408 484 c 1
 557 559 604 634 627 668 c 1
 651 558 l 1
 651 556 625 526 573 495 c 0
 544 477 506 466 501 464 c 1
 506 464 546 449 572 417 c 0
 604 379 609 345 609 297 c 2
 609 133 l 2
 609 78 583 0 477 0 c 2
 147 0 l 1
 147 78 l 1
 219 78 l 1
 219 276 l 2
 219 364 316 388 316 464 c 0
 316 480 309 503 295 503 c 0xcbc0
 268 503 238 461 236 461 c 1xd3c0
 232 469 202.5 522 154 522 c 0
 121 522 115 496 115 484 c 1
 115 484 120 486 129 486 c 0
 167 486 216 456 216 391 c 0
 216 336 180 292 125 292 c 0
 84 292 21 318 21 419 c 0xe7c0
439 78 m 2
 487 78 491 110 491 135 c 2
 491 323 l 2
 491 348 487 372 472 388 c 0
 447 417 430 423 401 423 c 1
 401 428 l 1
 376 369 337 350 337 291 c 2
 337 78 l 1
 439 78 l 2
158 392 m 0
 158 412 147 429 124 429 c 0
 103 429 92 411 92 394 c 0
 92 375 102.98 356 124 356 c 0
 146 356 158 371.9 158 392 c 0
EndSplineSet
EndChar

StartChar: uni0E0C
Encoding: 172 3596 140
Width: 882
Flags: W
HStem: -5 74<432.699 494.628> -2 59<207.033 268.737> 136 66<224.019 266.645> 518 81<228.356 409.183>
VStem: 106 118<202 350.323> 106 97<59.3644 133.692> 272 59<60.1929 132.914> 357 70<73.5854 160.959> 443 118<244 484.145> 502 70<73.581 162.735> 676 118<159 595>
LayerCount: 2
Fore
SplineSet
237 57 m 0x7720
 261 57 272 77 272 96 c 0
 272 116 261 136 237 136 c 0
 215 136 203 116 203 96 c 0
 203 77 215 57 237 57 c 0x7720
357 116 m 0
 357 227 443 236 443 236 c 1
 443 409 l 2
 443 486 411 518 322 518 c 0
 248 518 207 483 207 483 c 1
 210 481 229 471 261 448 c 0
 289 426 312 402 312 402 c 1
 309 402 279 389 250 356 c 0
 227 326 224 291 224 276 c 2
 224 202 l 1
 244 202 331 199 331 99 c 0
 331 22 269 -2 224 -2 c 0x7ba0
 152 -2 106 46 106 130 c 2x7720
 106 276 l 2
 106 287 109 330 129 357 c 0
 152 386 179 397 179 397 c 1
 137 442 53 477 46 478 c 1
 70 512 159 599 328 599 c 0
 503 599 561 505 561 411 c 2
 561 244 l 1
 578 244 650 216 676 159 c 1
 676 595 l 1
 794 595 l 1
 794 72 l 2
 794 8 744 -3 720 -3 c 0
 658 -3 672 52 619 126 c 0
 593 166 564 173 561 175 c 1x7ba0
 563 173 572 149 572 116 c 0
 572 67 550 -5 464 -5 c 0xb360
 409 -5 357 43 357 116 c 0
464 69 m 0xb360
 490 69 502 94 502 119 c 0
 502 143 490 166 466 166 c 0
 441 166 427 140 427 115 c 0
 427 91 439 69 464 69 c 0xb360
EndSplineSet
EndChar

StartChar: uni0E0D
Encoding: 173 3597 141
Width: 882
Flags: W
HStem: -288 64<519.165 633.099> -124 57<437.037 502.451> -2 59<213.277 274.753> 0 78<407 446 564 676.746> 136 66<227.048 273.131> 518 81<230.814 405.714>
VStem: 109 118<202 351.751> 109 101<59.3644 134.022> 278 54<60.1929 132.771> 372 62<-191.31 -127.261> 446 118<78 480.031> 505 53<-191.572 -126.751> 679 118<82.2486 595> 684 105<-170.799 -74>
LayerCount: 2
Fore
SplineSet
639 78 m 2xdee0
 671 78 679 98 679 112 c 2
 679 595 l 1
 797 595 l 1
 797 130 l 2
 797 58 756 0 699 0 c 2
 407 0 l 1
 407 78 l 1
 446 78 l 1xdee8
 446 399 l 2
 446 475 414 518 327 518 c 0
 252 518 209 483 209 483 c 1
 212 481 230 471 263 448 c 0
 290 426 313 402 313 402 c 1
 310 402 281 389 252 356 c 0
 229 326 227 291 227 276 c 2
 227 202 l 1
 246.14 202 332 198 332 99 c 0
 332 22 270 -2 227 -2 c 0xeee8
 154 -2 109 46 109 130 c 2xedc0
 109 276 l 2
 109 287 112 330 132 357 c 0
 155 386 183 397 183 397 c 1
 141 441 54 480 49 481 c 1
 69 509 162 599 330 599 c 0
 506 599 564 505 564 411 c 2
 564 78 l 1
 639 78 l 2xdee0
243 136 m 0
 221 136 210 116 210 96 c 0
 210 76 221 57 243 57 c 0xedc0
 267 57 278 77 278 96 c 0
 278 116 267 136 243 136 c 0
558 -157 m 0xccd4
 558 -209 525 -224 518 -224 c 1
 519 -224 530 -226 548 -226 c 0
 580 -226 636.034 -222.024 670 -161 c 0
 686.779 -130.855 684 -99.5449 684 -74 c 1
 789 -72 l 1
 789 -72 792 -156 740 -215 c 0
 713 -246 663 -288 548 -288 c 0
 442 -288 372 -238 372 -163 c 0
 372 -125 391 -67 471 -67 c 0
 527 -67 558 -111 558 -157 c 0xccd4
434 -159 m 0
 434 -178 446 -195 469 -195 c 0
 492 -195 505 -176 505 -158 c 0
 505 -141 494 -124 471 -124 c 0
 446 -124 434 -141 434 -159 c 0
EndSplineSet
Substitution2: "Thai Descender Removal Single Substitution" uni0E0D.descless
EndChar

StartChar: uni0E0E
Encoding: 174 3598 142
Width: 680
Flags: W
HStem: -313 75<135.605 218.045> -147 70<144.63 240.866> -3 64<112.997 171.005> 135 63<114.682 135> 520 81<260.44 440.59>
VStem: 43 67<63.5991 132.192> 52 79<-232.178 -160.24> 135 118<198 350.811> 174 79<64.4639 133.685> 475 118<-165.637 484.923>
AnchorPoint: "BelowBase" 593 -309 basechar 0
LayerCount: 2
Fore
SplineSet
356 -35 m 1xfac0
 351 -97 337 -124 337 -124 c 1
 380 -148 422 -190 422 -190 c 1
 464 -167 474 -136 475 -133 c 1
 475 409 l 2
 475 487 444 520 356 520 c 0
 276 520 235 483 235 483 c 1
 238 481 258 471 288 448 c 0
 316 426 339 402 339 402 c 1
 336 402 307 389 277 356 c 0
 254 326 253 291 253 276 c 2xfb40
 253 112 l 2xf8c0
 253 48 219 -3 149 -3 c 0
 87 -3 43 37 43 95 c 0
 43 154 78 198 135 198 c 1
 135 276 l 2xfd40
 135 370 210 397 210 397 c 1
 162 445 82 477 75 478 c 1
 95 506 187 601 356 601 c 0
 536 601 593 506 593 411 c 2
 593 -133 l 1
 562 -235 422 -316 422 -316 c 1
 378 -261 318 -210 314 -210 c 1
 314 -220 276 -313 174 -313 c 0
 94 -313 52 -251 52 -194 c 0
 52 -154 78 -77 181 -77 c 0
 223 -77 259 -90 259 -90 c 1
 270 -35 l 1
 356 -35 l 1xfac0
192 -147 m 0
 146 -147 131 -183 131 -199 c 0
 131 -221 149 -238 176 -238 c 0
 232 -238 242 -162 241 -159 c 1
 239 -157 217 -147 192 -147 c 0
143 135 m 0
 121 135 110 116 110 97 c 0
 110 79 121 61 143 61 c 0
 164 61 174 80 174 98 c 0xfcc0
 174 116 164 135 143 135 c 0
EndSplineSet
EndChar

StartChar: uni0E0F
Encoding: 175 3599 143
Width: 689
Flags: W
HStem: -305 72<102.202 159.158> -142 68<104.743 166.762> -3 61<121.906 180.952> 132 66<121.894 143> 521 78<267.006 447.573>
VStem: 33 65<-230.68 -147.344> 52 66<60.3955 128.411> 143 118<198 350.811> 181 82<-85.4741 -35 59.4315 131.189> 483 118<-168.073 488.608>
AnchorPoint: "BelowBase" 602 -309 basechar 0
LayerCount: 2
Fore
SplineSet
218 397 m 1xfb40
 172 443 90 476 83 478 c 1
 103 506 204 599 363 599 c 0
 544 599 601 507 601 412 c 2
 601 -133 l 1
 574 -245 457 -311 452 -311 c 1
 368 -193 l 1
 297 -307 l 1
 231 -219 l 1
 231 -222 207 -305 133 -305 c 0
 75 -305 33 -252 33 -187 c 0
 33 -147 51 -74 125 -74 c 0
 155 -74 180 -86 181 -86 c 1
 181 -35 l 1
 262 -35 l 1
 262 -36 263 -46 263 -59 c 0xfcc0
 263 -66 258 -124 258 -124 c 1
 291 -175 l 1
 363 -66 l 1
 449 -178 l 1
 461 -173 479 -152 483 -133 c 1
 483 409 l 2
 483 491 450 521 360 521 c 0
 283 521 242 483 242 483 c 1
 245 481 265 471 296 448 c 0
 323 426 346 402 346 402 c 1
 343 402 314 389 285 356 c 0
 262 326 261 291 261 276 c 2
 261 112 l 2
 261 48 225 -3 156 -3 c 0
 93 -3 52 37 52 97 c 0
 52 199 143 198 143 198 c 1
 143 276 l 2
 143 370 218 397 218 397 c 1xfb40
129 -233 m 0
 162 -233 167 -195 167 -162 c 1
 165 -159 154 -142 137 -142 c 0
 124 -142 98 -153 98 -189 c 0
 98 -211 109 -233 129 -233 c 0
152 132 m 0
 130 132 118 114 118 95 c 0xfa40
 118 76 130 58 152 58 c 0
 174 58 184 76 184 95 c 0
 184 114 174 132 152 132 c 0
EndSplineSet
EndChar

StartChar: uni0E10
Encoding: 176 3600 144
Width: 613
Flags: W
HStem: -349 72<67.8339 124.256> -343 73<342.912 434.602> -236 58<410.234 438> -185 65<67.9332 131.631> -110 56<410.792 473.568> -3 75<321.824 410.389> 168 65<148.198 202.682> 305 68<148.847 215.25> 445 50<195 217.006> 497 75<372.671 562.368> 534 70<211.795 394.943>
VStem: 1 62<-274.581 -187.971> 77 68<235.714 301.443> 179 79<-140.09 -60> 348 60<-175.133 -113.068> 423 113<245 347.919> 477 64<-176.038 -113.066>
LayerCount: 2
Fore
SplineSet
484 572 m 0x0fdf
 543 572 555 598 555 598 c 1
 590 532 l 1
 587 530 558 497 489 497 c 0x0fdf
 403 497 362 534 287 534 c 0
 214 534 201 502 195 495 c 1
 199 495 270 495 363 466 c 0
 458 435 503 402 524 353 c 0
 534 332 536 317 536 302 c 0
 536 292 535 283 535 273 c 2
 526 133 l 2
 519 17 428 -3 360 -3 c 0
 286.5 -3 217.059 19.4062 208 110 c 2
 202 170 l 1
 195 169 187 168 180 168 c 0
 128 168 77 203 77 266 c 0
 77 325 118 373 185 373 c 0
 285 373 306 303 310 247 c 2
 317 115 l 2
 319 89 325 72 363 72 c 0
 397 72 411 78 412 104 c 2
 422 268 l 2
 423 274 423 280 423 286 c 0
 423 309 417 329 399 351 c 0
 371 382 300 409 218 423 c 0
 132 438 67 445 66 445 c 1
 66 476 110 604 278 604 c 0x0fbf
 368 604 422 572 484 572 c 0x0fdf
181 305 m 0
 157 305 145 287 145 269 c 0
 145 251 157 233 181 233 c 0
 206 233 218 251 218 269 c 0
 218 287 206 305 181 305 c 0
438 -236 m 1x6f9e80
 418 -236 348 -220 348 -147 c 0
 348 -98 381 -54 439 -54 c 0
 528 -54 541 -115 541 -176 c 2
 541 -213 l 2
 541 -227 537 -276 514 -302 c 0
 487 -332 452 -343 412 -343 c 0
 330 -343 293 -284 293 -284 c 1
 238 -343 l 1x6f9e80
 192 -271 l 1
 192 -271 158 -349 97 -349 c 0
 37 -349 1 -291 1 -235 c 0
 1 -197 20 -120 97 -120 c 0x9f9e80
 136 -120 164 -141 164 -141 c 1
 164 -139 172 -127 175 -104 c 0
 178 -77 179 -61 179 -60 c 1
 258 -60 l 1
 258 -61 256 -98 247 -133 c 0
 239 -172 227 -192 227 -193 c 1
 255 -238 l 1
 297 -196 l 1
 297 -196 341 -270 397 -270 c 0
 438 -270 438 -236 438 -236 c 1x6f9e80
94 -185 m 0x9f9e
 73 -185 63 -212 63 -232 c 0
 63 -256 75 -277 94 -277 c 0
 129 -277 138 -219 138 -213 c 1
 138 -213 115 -185 94 -185 c 0x9f9e
443 -110 m 0
 420 -110 408 -127 408 -144 c 0
 408 -161 420 -178 443 -178 c 0
 466 -178 477 -161 477 -144 c 0x2f9e80
 477 -127 466 -110 443 -110 c 0
EndSplineSet
Substitution2: "Thai Descender Removal Single Substitution" uni0E10.descless
EndChar

StartChar: uni0E11
Encoding: 177 3601 145
Width: 832
Flags: W
HStem: 0 21G<269 391 628 746> 270 60<98.209 155.403> 406 57<112.203 156.182> 467 131<560.071 665.879> 500 96<265.013 340.376> 513 83<118.592 195.426>
VStem: 23 72<332.228 445.272> 159 58<332.281 403.759> 269 118<0 95.0934 287 408.625> 312 100<408.64 499.584> 628 118<0 465.207>
LayerCount: 2
Fore
SplineSet
625 598 m 0xf3a0
 707 598 746 529 746 468 c 2
 746 0 l 1
 628 0 l 1
 628 416 l 2
 628 450 620 467 594 467 c 0
 550 467 497 347 449 231 c 0
 411 136 391 6 391 0 c 1
 269 0 l 1
 269 317 l 2xf3a0
 269 399 312 427 312 474 c 0
 312 495 298 500 288 500 c 0xeb60
 262 500 227 451 225 451 c 1
 221 465 186 513 152 513 c 0
 124 513 112 488 112 461 c 1
 112 461 119 463 131 463 c 0
 182 463 217 424 217 370 c 0
 217 334 199 270 127 270 c 0
 87 270 23 291 23 405 c 0
 23 515 82 596 150 596 c 0xe760
 202 596 230 540 231 540 c 1
 237 538 265 596 316 596 c 0
 369 596 412 544 412 489 c 0xeb60
 412 442 387 411 387 372 c 2
 387 287 l 1
 387 294 423 399 464 469 c 0
 513 551 565 598 625 598 c 0xf3a0
159 368 m 0
 159 388 149 406 127 406 c 0
 106 406 95 387 95 368 c 0
 95 350 106 330 127 330 c 0
 147 330 159 346 159 368 c 0
EndSplineSet
EndChar

StartChar: uni0E12
Encoding: 178 3602 146
Width: 924
Flags: W
HStem: -6 72<496.522 558.755> 176 78<614 657> 342 66<291.683 350.723> 504 94<215.061 244.275 428 469.817>
VStem: 59 112<239.456 455.657> 224 64<268.043 339.212> 354 63<266.343 340.186> 418 74<68.5715 156.663> 490 118<254 479.997> 563 73<68.3661 158.067> 715 118<195 595> 727 106<9.44557 79.5384>
LayerCount: 2
Fore
SplineSet
608 254 m 1xfe80
 627 254 684 241 715 195 c 1
 715 595 l 1
 833 595 l 1xfea0
 833 91 l 2
 833 38 829 0 778 0 c 2
 727 0 l 1
 727 2 717 71 684 123 c 0
 650 175 615 176 614 176 c 1
 616 170 636 143 636 104 c 0
 636 66 614 -6 529 -6 c 0
 465 -6 418 35 418 116 c 0xff50
 418 211 489 230 490 230 c 1
 490 389 l 2
 490 417 490 446 477 472 c 0
 461 500 442 504 428 504 c 1
 336 455 l 1
 251 504 l 1
 232 502 171 473 171 355 c 0
 171 311 180 266 193 231 c 0
 224 155 227 112 227 112 c 1
 279 215 l 1
 279 215 224 225 224 307 c 0
 224 374 274 408 321 408 c 0
 375 408 417 371 417 311 c 0
 417 284 408 253 392 224 c 2
 392 224 277 7 277 0 c 1
 133 0 l 1
 133 121 59 256 59 366 c 0
 59 506 151 591 230 598 c 1
 334 547 l 1
 425 598 l 1
 472 598 608 559 608 405 c 2
 608 254 l 1xfe80
354 303 m 0
 354 328 342 342 322 342 c 0
 299 342 288 323 288 304 c 0
 288 285 300 265 325 265 c 0
 343 265 354 279 354 303 c 0
527 162 m 0
 513 162 492 149 492 107 c 0
 492 82 505 66 529 66 c 0
 549 66 563 82 563 107 c 0xff40
 563 138 549 162 527 162 c 0
EndSplineSet
EndChar

StartChar: uni0E13
Encoding: 179 3603 147
Width: 958
Flags: W
HStem: -6 77<756.219 857.865> -2 62<206.06 265.858> 139 63<224.631 265.205> 230 81<794 843.591> 520 78<230.56 406.407>
VStem: 106 118<202 353.684> 106 96<62.1631 137.022> 270 59<63.431 136.021> 443 118<172 480.719> 676 118<73.8732 175 311 595> 868 75<79.8277 204.767>
AnchorPoint: "AboveBase" 791 613 basechar 0
LayerCount: 2
Fore
SplineSet
561 172 m 1x7de0
 593 234 668 280 676 287 c 1
 676 595 l 1
 794 595 l 1
 794 311 l 1
 849 311 943 271 943 148 c 0
 943 85 914 -6 797 -6 c 0xbde0
 716 -6 679 40 679 106 c 2
 679 175 l 1
 624 148 580 20 569 0 c 1
 443 0 l 1
 443 403 l 2
 443 480 411 520 322 520 c 0
 248 520 205 483 205 483 c 1
 208 481 227 471 259 448 c 0
 287 426 313 397 313 397 c 1
 278 397 224 371 224 276 c 2
 224 202 l 1
 237 202 329 199 329 99 c 0
 329 23 267 -2 224 -2 c 0x7de0
 150 -2 106 46 106 130 c 2x7be0
 106 276 l 2
 106 287 109 330 129 357 c 0
 152 386 179 397 179 397 c 1
 137 442 53 477 46 478 c 1
 66 506 152 598 317 598 c 0
 498 598 561 507 561 411 c 2
 561 172 l 1x7de0
824 71 m 0
 859 71 868 111 868 140 c 0
 868 194 837 230 794 230 c 1
 794 109 l 2
 794 83 808 71 824 71 c 0
235 139 m 0
 213 139 202 119 202 99 c 0
 202 79 213 60 235 60 c 0x7be0
 258 60 270 80 270 100 c 0
 270 119 258 139 235 139 c 0
EndSplineSet
EndChar

StartChar: uni0E14
Encoding: 180 3604 148
Width: 702
Flags: W
HStem: 0 21G<134 270 499 617> 362 68<298.896 370.432> 512 93<240.775 445.683>
VStem: 63 112<262.413 447.21> 227 67<286.411 357.229> 374 71<287.514 357.283> 499 118<0 461.922>
LayerCount: 2
Fore
SplineSet
63 357 m 0
 63 516 172 605 343 605 c 0
 515 605 617 521 617 389 c 2
 617 0 l 1
 499 0 l 1
 499 383 l 2
 499 464 457 512 345 512 c 0
 224 512 175 455 175 358 c 0
 175 308 190 290 207 228 c 0
 222 173 228 123 228 121 c 1
 230 123 293 216 299 225 c 1
 297 225 227 250 227 324 c 0
 227 400 287 430 334 430 c 0
 379 430 445 407 445 320 c 0
 445 240 407 203 345 113 c 0
 294 40 270 2 270 0 c 1
 144 0 l 1
 124 205 63 250 63 357 c 0
294 322 m 0
 294 302 307 282 333 282 c 0
 360 282 374 303 374 323 c 0
 374 343 361 362 334 362 c 0
 308 362 294 342 294 322 c 0
EndSplineSet
EndChar

StartChar: uni0E15
Encoding: 181 3605 149
Width: 717
Flags: W
HStem: 0 21G<152 311 517 635> 364 63<303.667 373.416> 506 93<455 490.837>
VStem: 67 110<247.597 449.28> 231 68<286.018 359.379> 379 67<285.262 359.043> 517 118<0 479.223>
DStem2: 279 164 356 113 0.436509 0.8997<-137.511 61.7057>
LayerCount: 2
Fore
SplineSet
152 0 m 1
 152 153 67 235 67 352 c 0
 67 533 207 599 254 599 c 1
 354 553 l 1
 455 599 l 1
 527 599 635 535 635 420 c 2
 635 0 l 1
 517 0 l 1
 517 408 l 2
 517 498 460 506 454 506 c 1
 356 457 l 1
 259 506 l 1
 226 500 177 449 177 351 c 0
 177 310 187 273 205 230 c 0
 238 155 251 98 251 98 c 1
 262 124 264 138 279 164 c 0
 297 195 307 219 307 219 c 1
 307 219 231 242 231 324 c 0
 231 380 276 427 340 427 c 0
 409 427 446 380 446 317 c 0
 446 251 411 222 356 113 c 0
 333 69 320 48 302 0 c 1
 152 0 l 1
299 322 m 0
 299 289 325 281 339 281 c 0
 359 281 379 294 379 322 c 0
 379 345 363 364 339 364 c 0
 319 364 299 349 299 322 c 0
EndSplineSet
EndChar

StartChar: uni0E16
Encoding: 182 3606 150
Width: 663
Flags: W
HStem: -3 66<203.309 271.477> 141 69<225.83 271.583> 520 81<238.324 420.742>
VStem: 107 118<210 347.629> 107 92<66.9919 137.719> 276 64<67.2808 136.517> 465 118<0 480.087>
LayerCount: 2
Fore
SplineSet
181 397 m 1xf6
 133 447 48 478 48 478 c 1
 67 506 159 601 326 601 c 0
 509 601 583 506 583 411 c 2
 583 0 l 1
 465 0 l 1
 465 409 l 2
 465 486 418 520 330 520 c 0
 270 520 222 494 207 478 c 1
 258 461 308 404 312 402 c 1
 301 402 225 360 225 276 c 2
 225 210 l 1xf6
 281 210 340 186 340 99 c 0
 340 27 284 -3 231 -3 c 0
 167 -3 107 29 107 139 c 2xee
 107 276 l 2
 107 287 110 330 130 357 c 0
 153 386 181 397 181 397 c 1xf6
237 141 m 0
 211 141 199 122 199 102 c 0xee
 199 82 211 63 237 63 c 0
 263 63 276 82 276 102 c 0
 276 122 263 141 237 141 c 0
EndSplineSet
EndChar

StartChar: uni0E17
Encoding: 183 3607 151
Width: 721
Flags: W
HStem: 0 21G<159 277 517 635> 379 72<113.582 158.822> 503 95<433.119 506.164> 529 69<110.148 181.377>
VStem: 35 72<455.96 525.307> 159 118<0 140.459 331 379> 185 92<454.125 523.439> 517 118<0 495.456>
LayerCount: 2
Fore
SplineSet
277 460 m 2xdb
 277 331 l 1
 282 359 288 417 342 500 c 0
 393 578 435 598 494 598 c 0
 607 598 635 520 635 455 c 2
 635 0 l 1
 517 0 l 1
 517 423 l 2
 517 458 512 503 478 503 c 0
 414 503 365 379 331 267 c 0
 285 113 277 18 277 0 c 1
 159 0 l 1
 159 379 l 1xed
 149 379 l 2
 89 379 35 418 35 487 c 0
 35 561 91 598 146 598 c 0
 265 598 277 504.999 277 460 c 2xdb
185 489 m 0xdb
 185 509 173 529 147 529 c 0
 119 529 107 511 107 492 c 0
 107 472 121 451 147 451 c 0
 172 451 185 469 185 489 c 0xdb
EndSplineSet
EndChar

StartChar: uni0E18
Encoding: 184 3608 152
Width: 646
Flags: W
HStem: 0 78<78 192 310 429.088> 480 81<387.479 546.393> 520 78<220.949 390.33>
VStem: 192 118<78 377> 438 118<88.6672 333.625>
LayerCount: 2
Fore
SplineSet
598 523 m 1xb8
 589 512 558 480 499 480 c 0xd8
 414 480 370 520 294 520 c 0
 216 520 204 477 204 477 c 1
 207 477 300 461 357 445 c 0
 524 397 556 352 556 290 c 2
 556 130 l 2
 556 51 527 0 457 0 c 2
 78 0 l 1
 78 78 l 1
 192 78 l 1
 192 399 l 1
 132 406 77 426 74 426 c 1
 74 441 107 598 281 598 c 0xb8
 355 598 406 561 470 561 c 0xd8
 539 561 558 595 563 598 c 1
 598 523 l 1xb8
374 78 m 2
 417 78 438 91 438 143 c 2
 438 289 l 2
 438 324 429 345 310 377 c 1
 310 78 l 1
 374 78 l 2
EndSplineSet
EndChar

StartChar: uni0E19
Encoding: 185 3609 153
Width: 741
Flags: W
HStem: -5 82<560.458 629.976> 379 72<110.582 154.836> 529 69<107.148 178.361>
VStem: 32 72<455.96 525.307> 155 118<0 49.2745 190 379> 182 91<454.125 523.439> 463 118<80.6489 236 339 595> 645 70<88.3759 235.92>
AnchorPoint: "AboveBase" 578 613 basechar 0
LayerCount: 2
Fore
SplineSet
715 168 m 0xfb
 715 98 684 -5 583 -5 c 0
 539 -5 463 22 463 129 c 2
 463 236 l 1
 377 207 273 20 273 0 c 1
 155 0 l 1
 155 379 l 1xfb
 146 379 l 2
 86 379 32 418 32 487 c 0
 32 561 88 598 143 598 c 0
 262 598 273 505 273 460 c 2xf7
 273 190 l 1
 273 190 299 222 360 274 c 0
 405 311 460 339 463 339 c 1
 463 595 l 1
 581 595 l 1
 581 345 l 1
 675 322 715 254 715 168 c 0xfb
645 158 m 0
 645 213 625 255 581 255 c 1
 581 109 l 2
 581 90 590 77 603 77 c 0
 629 77 645 120 645 158 c 0
182 489 m 0xf7
 182 509 170 529 144 529 c 0
 116 529 104 511 104 492 c 0
 104 472 118 451 144 451 c 0
 169 451 182 469 182 489 c 0xf7
EndSplineSet
EndChar

StartChar: uni0E1A
Encoding: 186 3610 154
Width: 718
Flags: W
HStem: 0 78<100 172 290 509.533> 379 71<123.912 171.346> 528 70<122.926 193.532>
VStem: 48 71<454.993 523.97> 172 118<78 379> 198 92<453.51 523.439> 514 118<82.2829 595>
LayerCount: 2
Fore
SplineSet
461 78 m 2xfa
 484 78 514 78 514 127 c 2
 514 595 l 1
 632 595 l 1
 632 100 l 2
 632 34 587 0 530 0 c 2
 100 0 l 1
 100 78 l 1
 172 78 l 1
 172 379 l 1xfa
 161 379 l 2
 103 379 48 417 48 486 c 0
 48 575 118 598 158 598 c 0
 276 598 290 505 290 460 c 2xf6
 290 78 l 1
 461 78 l 2xfa
198 488 m 0xf6
 198 508 184 528 158 528 c 0
 131 528 119 510 119 491 c 0
 119 471 133 450 158 450 c 0
 184 450 198 468 198 488 c 0xf6
EndSplineSet
EndChar

StartChar: uni0E1B
Encoding: 187 3611 155
Width: 718
Flags: W
HStem: 0 78<100 172 290 509.533> 379 71<123.912 171.346> 528 70<122.926 193.532>
VStem: 48 71<454.993 523.97> 172 118<78 379> 198 92<453.51 523.439> 514 118<82.2829 884>
AnchorPoint: "AboveBase" 465 613 basechar 0
LayerCount: 2
Fore
SplineSet
461 78 m 2xfa
 484 78 514 78 514 127 c 2
 514 884 l 1
 632 884 l 1
 632 100 l 2
 632 34 587 0 530 0 c 2
 100 0 l 1
 100 78 l 1
 172 78 l 1
 172 379 l 1xfa
 161 379 l 2
 103 379 48 417 48 486 c 0
 48 575 118 598 158 598 c 0
 276 598 290 505 290 460 c 2xf6
 290 78 l 1
 461 78 l 2xfa
198 488 m 0xf6
 198 508 184 528 158 528 c 0
 131 528 119 510 119 491 c 0
 119 471 133 450 158 450 c 0
 184 450 198 468 198 488 c 0xf6
EndSplineSet
EndChar

StartChar: uni0E1C
Encoding: 188 3612 156
Width: 674
Flags: W
HStem: 0 21G<92 220 452.5 589> 379 72<210.746 257.965> 529 69<190.728 257.826>
VStem: 92 118<0 48.7225 172 379> 92 93<454.281 523.439> 262 71<454.204 524.851> 471 118<0 52.1553 172 595>
LayerCount: 2
Fore
SplineSet
333 487 m 0xee
 333 418 279 379 221 379 c 2
 210 379 l 1
 210 172 l 1
 210 173 242 221 270 253 c 0
 302 291 314 300 340 323 c 1
 343 322 380 290 414 253 c 0
 441 221 471 173 471 172 c 1
 471 595 l 1
 589 595 l 1
 589 0 l 1
 471 0 l 1
 434 115 340 210 340 210 c 1
 296 172 228 59 212 0 c 1
 92 0 l 1xf6
 92 460 l 2
 92 505 104 598 224 598 c 0
 262 598 333 576 333 487 c 0xee
224 529 m 0
 198 529 185 510 185 490 c 0xee
 185 470 198 451 224 451 c 0
 249 451 262 470 262 490 c 0
 262 510 249 529 224 529 c 0
EndSplineSet
EndChar

StartChar: uni0E1D
Encoding: 189 3613 157
Width: 674
Flags: W
HStem: 0 21G<92 220 452.5 589> 379 72<210.746 257.965> 529 69<190.728 257.826>
VStem: 92 118<0 48.7225 172 379> 92 93<454.281 523.439> 262 71<454.204 524.851> 471 118<0 52.1553 172 889>
AnchorPoint: "AboveBase" 421 613 basechar 0
LayerCount: 2
Fore
SplineSet
333 487 m 0xee
 333 418 279 379 221 379 c 2
 210 379 l 1
 210 172 l 1
 210 173 242 221 270 253 c 0
 302 291 314 300 340 323 c 1
 343 322 380 290 414 253 c 0
 441 221 471 173 471 172 c 1
 471 889 l 1
 589 889 l 1
 589 0 l 1
 471 0 l 1
 434 115 340 210 340 210 c 1
 296 172 228 59 212 0 c 1
 92 0 l 1xf6
 92 460 l 2
 92 505 104 598 224 598 c 0
 262 598 333 576 333 487 c 0xee
224 529 m 0
 198 529 185 510 185 490 c 0xee
 185 470 198 451 224 451 c 0
 249 451 262 470 262 490 c 0
 262 510 249 529 224 529 c 0
EndSplineSet
EndChar

StartChar: uni0E1E
Encoding: 190 3614 158
Width: 752
Flags: W
HStem: 0 21G<158 281.938 539.884 664> 384 70<110.302 157.579> 532 66<111.014 177.648>
VStem: 34 72<458.237 528.418> 158 118<0 23.5789 268 385> 182 94<457.422 526.86> 546 118<0 22.8905 268 595>
DStem2: 276 268 409 448 0.284598 0.958647<0 210.408> 443 595 409 448 0.292435 -0.956285<130.631 342.826>
LayerCount: 2
Fore
SplineSet
34 490 m 0xfa
 34 530 57 598 146 598 c 0
 248 598 276 528 276 466 c 2xf6
 276 268 l 1
 371 595 l 1
 443 595 l 1
 546 268 l 1
 546 595 l 1
 664 595 l 1
 664 0 l 1
 546 0 l 1
 409 448 l 1
 276 0 l 1
 158 0 l 1
 158 385 l 1
 158 385 153 384 144 384 c 0
 82 384 34 426 34 490 c 0xfa
144 532 m 0
 119 532 106 512 106 493 c 0
 106 474 119 454 144 454 c 0
 170 454 182 474 182 493 c 0
 182 512 170 532 144 532 c 0
EndSplineSet
EndChar

StartChar: uni0E1F
Encoding: 191 3615 159
Width: 752
Flags: W
HStem: 0 21G<158 281.938 539.884 664> 384 70<110.302 157.579> 532 66<111.014 177.648>
VStem: 34 72<458.237 528.418> 158 118<0 23.5789 268 385> 182 94<457.422 526.86> 546 118<0 22.8905 268 941>
DStem2: 276 268 409 448 0.284598 0.958647<0 210.408> 443 595 409 448 0.292435 -0.956285<130.631 342.826>
AnchorPoint: "AboveBase" 499 613 basechar 0
LayerCount: 2
Fore
SplineSet
34 490 m 0xfa
 34 530 57 598 146 598 c 0
 248 598 276 528 276 466 c 2xf6
 276 268 l 1
 371 595 l 1
 443 595 l 1
 546 268 l 1
 546 941 l 1
 664 941 l 1
 664 0 l 1
 546 0 l 1
 409 448 l 1
 276 0 l 1
 158 0 l 1
 158 385 l 1
 158 385 153 384 144 384 c 0
 82 384 34 426 34 490 c 0xfa
144 532 m 0
 119 532 106 512 106 493 c 0
 106 474 119 454 144 454 c 0
 170 454 182 474 182 493 c 0
 182 512 170 532 144 532 c 0
EndSplineSet
EndChar

StartChar: uni0E20
Encoding: 192 3616 160
Width: 680
Flags: W
HStem: -3 63<118.9 177.628> 521 78<263.954 443.319>
VStem: 49 67<62.9135 130.542> 138 118<198 350.811> 181 75<61.9304 131.214> 478 118<0 487.362>
LayerCount: 2
Fore
SplineSet
213 397 m 1xf4
 165 445 85 477 78 478 c 1
 98 506 189 599 359 599 c 0
 540 599 596 506 596 411 c 2
 596 0 l 1
 478 0 l 1
 478 409 l 2
 478 488 446 521 356 521 c 0
 279 521 238 483 238 483 c 1
 241 481 261 471 291 448 c 0
 319 426 342 402 342 402 c 1
 339 402 310 389 281 356 c 0
 258 326 256 291 256 276 c 2xf4
 256 112 l 2xec
 256 48 222 -3 152 -3 c 0
 90 -3 49 36 49 95 c 0
 49 171 102 198 138 198 c 1
 138 276 l 2
 138 370 213 397 213 397 c 1xf4
149 133 m 0
 127 133 116 114 116 96 c 0
 116 78 127 60 149 60 c 0
 170 60 181 78 181 96 c 0xec
 181 115 170 133 149 133 c 0
EndSplineSet
EndChar

StartChar: uni0E21
Encoding: 193 3617 161
Width: 718
Flags: W
HStem: -4 82<147.441 203.127> 231 86<154.08 206> 384 69<156.231 205.835> 531 67<156.588 225.231>
VStem: 55 83<84.0777 216.603> 82 71<456.367 526.861> 206 118<81.0349 204 317 385> 229 95<456.281 526.86> 515 118<123.003 595>
LayerCount: 2
Fore
SplineSet
82 490 m 0xf680
 82 530 105 598 194 598 c 0
 296 598 324 528 324 466 c 2
 324 310 l 1xf580
 324 310 362 308 418 236 c 0
 458 182 469 152 498 123 c 1
 499 123 515 127 515 156 c 2
 515 595 l 1
 633 595 l 1
 633 107 l 2
 633 67 624 28 586 11 c 0
 567 2 548 -3 529 -3 c 0
 463 -3 428 50 405 95 c 0
 357 189 327 198 324 204 c 1
 324 109 l 2
 324 16 233 -4 189 -4 c 0
 82 -4 55 89 55 152 c 0xfa80
 55 298 182 317 206 317 c 1
 206 385 l 1
 206 385 201 384 192 384 c 0
 130 384 82 426 82 490 c 0xf680
189 231 m 0
 148 231 138 173 138 143 c 0
 138 110 149 78 177 78 c 0
 198 78 206 97 206 115 c 2
 206 228 l 1xfa80
 205 228 198 231 189 231 c 0
191 531 m 0
 165 531 153 512 153 492 c 0
 153 472 165 453 191 453 c 0
 216 453 229 472 229 492 c 0xf580
 229 512 216 531 191 531 c 0
EndSplineSet
EndChar

StartChar: uni0E22
Encoding: 194 3618 162
Width: 657
Flags: W
HStem: 0 78<218 444.075> 228 75<235.097 348> 380 68<205.375 263.011> 526 70<193.925 262.835>
VStem: 90 115<328.791 383> 90 100<451.422 521.439> 100 118<78 211.102> 268 70<452.67 521.266> 457 118<91.233 595>
LayerCount: 2
Fore
SplineSet
287 228 m 2xf980
 258 228 218 213 218 155 c 2
 218 78 l 1
 387 78 l 2
 429 78 457 97 457 141 c 2
 457 595 l 1
 575 595 l 1
 575 126 l 2
 575 71 549 0 446 0 c 2
 100 0 l 1
 100 149 l 2xf380
 100 216 146 268 210 271 c 1
 140 275 90 330 90 408 c 2
 90 458 l 2xf580
 90 503 118 596 227 596 c 0
 286 596 338 557 338 482 c 0
 338 398 266 380 230 380 c 0
 215 380 205 383 205 383 c 1
 205 376 l 2
 205 323 261 303 291 303 c 2
 348 303 l 1
 348 228 l 1
 287 228 l 2xf980
228 526 m 0
 203 526 190 506 190 487 c 0xf580
 190 468 203 448 228 448 c 0
 254 448 268 468 268 487 c 0
 268 506 254 526 228 526 c 0
EndSplineSet
EndChar

StartChar: uni0E23
Encoding: 195 3619 163
Width: 551
Flags: W
HStem: -2 68<297.872 365.313> 144 69<297.543 342.616> 429 58<161 212.028> 486 80<339.268 499.1> 527 74<178.393 346.567>
VStem: 221 73<69.34 140.948> 343 118<212 360.745> 370 91<69.5847 140.578>
LayerCount: 2
Fore
SplineSet
38 428 m 1xee
 41 487 98 601 242 601 c 0xee
 314 601 367 566 423 566 c 0
 478 566 485 594 492 598 c 1
 529 518 l 1
 523 515 496 486 448 486 c 0xd6
 374 486 314 527 234 527 c 0
 181 527 169 494 161 487 c 1
 164 487 251 481 326 449 c 0
 388 423 461 395 461 326 c 2xee
 461 130 l 2xed
 461 69 428 -2 331 -2 c 0
 270 -2 221 32 221 103 c 0
 221 164 264 213 329 213 c 0
 338 213 343 212 343 212 c 1
 343 293 l 2
 343 325 342 351 308 371 c 0
 263 398 157 429 63 429 c 0
 50 429 41 428 38 428 c 1xee
331 144 m 0
 306 144 294 124 294 105 c 0
 294 86 306 66 331 66 c 0
 357 66 370 86 370 105 c 0xc5
 370 124 357 144 331 144 c 0
EndSplineSet
EndChar

StartChar: uni0E24
Encoding: 196 3620 164
Width: 677
Flags: W
HStem: -3 66<206.309 274.477> 141 69<228.83 274.583> 520 81<241.324 423.742>
VStem: 110 118<210 347.629> 110 92<66.9919 137.719> 279 64<67.2808 136.517> 468 118<-218 480.087>
LayerCount: 2
Fore
SplineSet
184 397 m 1xf6
 136 447 51 478 51 478 c 1
 70 506 162 601 329 601 c 0
 512 601 586 506 586 411 c 2
 586 -218 l 1
 468 -218 l 1
 468 409 l 2
 468 486 421 520 333 520 c 0
 273 520 225 494 210 478 c 1
 261 461 311 404 315 402 c 1
 304 402 228 360 228 276 c 2
 228 210 l 1xf6
 284 210 343 186 343 99 c 0
 343 27 287 -3 234 -3 c 0
 170 -3 110 29 110 139 c 2xee
 110 276 l 2
 110 287 113 330 133 357 c 0
 156 386 184 397 184 397 c 1xf6
240 141 m 0
 214 141 202 122 202 102 c 0xee
 202 82 214 63 240 63 c 0
 266 63 279 82 279 102 c 0
 279 122 266 141 240 141 c 0
EndSplineSet
EndChar

StartChar: uni0E25
Encoding: 197 3621 165
Width: 660
Flags: W
HStem: -6 67<194.44 263.549> 141 69<210.158 263.565> 331 90<224.326 321.349> 516 85<189.896 400.457>
VStem: 268 73<65.841 136.259> 451 118<0 129.059 285 470.053>
LayerCount: 2
Fore
SplineSet
451 385 m 2
 451 470 419 516 300 516 c 0
 171 516 133 453 126 439 c 1
 52 485 l 1
 68 524 141 601 311 601 c 0
 521 601 569 488 569 413 c 2
 569 0 l 1
 451 0 l 1
 451 48 l 2
 451 78 426 147 391 218 c 0
 357 286 315 331 262 331 c 0
 259 331 l 0
 216 331 210 294 210 256 c 2
 210 208 l 1
 216 209 224 210 231 210 c 0
 297 210 341 161 341 100 c 0
 341 37 294 -6 228 -6 c 0
 137 -6 93 59 93 186 c 0
 93 313 128 421 266 421 c 0
 303 421 340 411 372 385 c 0
 409 356 451 288 451 285 c 1
 451 385 l 2
228 141 m 0
 202 141 189 121 189 101 c 0
 189 81 202 61 228 61 c 0
 255 61 268 81 268 101 c 0
 268 121 255 141 228 141 c 0
EndSplineSet
EndChar

StartChar: uni0E26
Encoding: 198 3622 166
Width: 689
Flags: W
HStem: -3 63<124.9 183.628> 521 78<269.954 449.319>
VStem: 55 67<62.9135 130.896> 144 118<198 350.811> 187 75<61.9304 131.214> 484 118<-228 487.362>
LayerCount: 2
Fore
SplineSet
219 397 m 1xf4
 171 445 91 477 84 478 c 1
 104 506 195 599 365 599 c 0
 546 599 602 506 602 411 c 2
 602 -228 l 1
 484 -228 l 1
 484 409 l 2
 484 488 452 521 362 521 c 0
 285 521 244 483 244 483 c 1
 247 481 267 471 297 448 c 0
 325 426 348 402 348 402 c 1
 345 402 316 389 287 356 c 0
 264 326 262 291 262 276 c 2xf4
 262 112 l 2xec
 262 48 228 -3 158 -3 c 0
 96 -3 55 36 55 95 c 0
 55 173 108 198 144 198 c 1
 144 276 l 2
 144 370 219 397 219 397 c 1xf4
155 133 m 0
 133 133 122 114 122 96 c 0
 122 78 133 60 155 60 c 0
 176 60 187 78 187 96 c 0xec
 187 115 176 133 155 133 c 0
EndSplineSet
EndChar

StartChar: uni0E27
Encoding: 199 3623 167
Width: 593
Flags: W
HStem: -2 66<350.336 416.401> 143 70<350.325 396.625> 515 84<172.03 352.332>
VStem: 273 73<67.1719 139.807> 397 118<212 469.737> 422 93<67.7272 139.578>
LayerCount: 2
Fore
SplineSet
23 461 m 1xf8
 23 482 75 599 267 599 c 0
 435 599 515 542 515 380 c 2xf8
 515 130 l 2xf4
 515 71 483 -2 395 -2 c 0
 298 -2 273 65 273 106 c 0
 273 170 323 213 384 213 c 0
 392 213 397 212 397 212 c 1
 397 369 l 2
 397 436 388 515 272 515 c 0
 185 515 139 488 123 422 c 1
 23 461 l 1xf8
383 143 m 0
 358 143 346 123 346 104 c 0
 346 84 358 64 383 64 c 0
 409 64 422 84 422 104 c 0xf4
 422 123 409 143 383 143 c 0
EndSplineSet
EndChar

StartChar: uni0E28
Encoding: 200 3624 168
Width: 700
Flags: W
HStem: 0 21G<143 267 502 620> 211 66<325.46 393.02> 351 69<327.315 356> 518 83<246.494 442.402>
VStem: 70 108<226.986 451.464> 143 124<0 137.924> 397 68<280.012 347.871> 502 118<0 452.268>
LayerCount: 2
Fore
SplineSet
356 420 m 1xfb
 443 504 l 1
 422 513 394 518 357 518 c 0
 274 518 178 495 178 366 c 0
 178 291 210 173 213 169 c 1
 213 173 221 296 253 354 c 0
 271 388 294 420 356 420 c 1xfb
500 575 m 1
 527 582 563 649 563 656 c 1
 692 656 l 1
 683 613 635 545 585 517 c 1
 590 506 620 482 620 408 c 2
 620 0 l 1
 502 0 l 1
 502 389 l 2
 502 415 496 444 489 454 c 1
 429 399 l 1
 454 379 465 344 465 315 c 0
 465 247 410 211 359 211 c 0
 327 211 307 225 307 225 c 1
 290 182 267 28 267 0 c 1
 143 0 l 1
 143 21 l 2xf7
 143 143 70 220 70 356 c 0
 70 552 224 601 349 601 c 0
 450 601 486 576 500 575 c 1
360 351 m 0
 335 351 322 332 322 314 c 0
 322 296 335 277 360 277 c 0
 384 277 397 296 397 314 c 0
 397 332 384 351 360 351 c 0
EndSplineSet
EndChar

StartChar: uni0E29
Encoding: 201 3625 169
Width: 748
Flags: W
HStem: 0 78<100 172 290 511.217> 193 80<477.829 516> 365 58<376.499 440.481> 379 72<124.529 171.342> 529 69<121.094 190.739>
VStem: 48 70<455.287 524.591> 172 118<78 379> 197 93<454.51 523.439> 310 63<296.308 362.253> 443 56<296.454 362.163> 516 118<85.3638 193 307 595>
AnchorPoint: "AboveBase" 631 613 basechar 0
LayerCount: 2
Fore
SplineSet
634 307 m 1xeee0
 648 307 705 356 705 400 c 1
 783 351 l 1
 769 279 650 213 634 213 c 1
 634 100 l 2
 634 18 570 0 533 0 c 2
 100 0 l 1
 100 78 l 1
 172 78 l 1
 172 379 l 1xdee0
 161 379 l 2
 98 379 48 422 48 487 c 0
 48 565 106 598 158 598 c 0
 276 598 290 505 290 460 c 2xdde0
 290 78 l 1
 462 78 l 2
 495 78 516 85 516 127 c 2
 516 193 l 1
 508 193 l 2
 483 193 413 197 370 224 c 0
 334 248 310 290 310 330 c 0
 310 376 343 423 404 423 c 0
 466 423 499 381 499 334 c 0
 499 298 477 276 477 276 c 1
 477 276 483 273 496 273 c 2
 508 271 514 273 516 273 c 1
 516 595 l 1
 634 595 l 1
 634 307 l 1xeee0
197 489 m 0xdde0
 197 509 183 529 157 529 c 0
 130 529 118 511 118 492 c 0
 118 472 132 451 157 451 c 0
 183 451 197 469 197 489 c 0xdde0
408 365 m 0xece0
 385 365 373 347 373 330 c 0
 373 312 385 294 408 294 c 0
 431 294 443 312 443 330 c 0
 443 347 431 365 408 365 c 0xece0
EndSplineSet
EndChar

StartChar: uni0E2A
Encoding: 202 3626 170
Width: 657
Flags: W
HStem: -2 67<199.029 270.427> 145 69<212.18 270.043> 521 78<194.811 401.121>
VStem: 275 67<69.3872 140.006> 452 118<0 128.398 282 447.984> 506 113<599.278 655>
LayerCount: 2
Fore
SplineSet
469 567 m 1xf8
 486 584 506 618 506 655 c 1
 619 655 l 1xf4
 603 574 533 529 527 521 c 1
 539 503 570 492 570 390 c 2
 570 0 l 1
 452 0 l 1
 452 37 l 2
 452 110 360 346 263 346 c 0
 218 346 212 295 212 256 c 2
 212 212 l 1
 218 213 225 214 232 214 c 0
 297 214 342 165 342 103 c 0
 342 40 296 -2 229 -2 c 0
 195 -2 162 10 139 31 c 0
 106 63 94 115 94 201 c 0
 94 301 108 380 207 412 c 0
 268 431 332 456 403 503 c 1
 377 514 359 521 318 521 c 0
 179 521 148 467 129 441 c 1
 52 490 l 1
 75 529 140 599 306 599 c 0
 426 599 469 567 469 567 c 1xf8
452 282 m 1xf8
 452 385 l 2
 452 449 443 448 443 448 c 1
 440 446 417 422 388 409 c 0
 362 397 349 392 349 392 c 1
 351 392 371 385 397 356 c 0
 423 326 451 285 452 282 c 1xf8
235 145 m 0
 208 145 195 125 195 105 c 0
 195 85 208 65 235 65 c 0
 262 65 275 85 275 105 c 0
 275 125 262 145 235 145 c 0
EndSplineSet
EndChar

StartChar: uni0E2B
Encoding: 203 3627 171
Width: 715
Flags: W
HStem: 0 21G<155 281.5 512 630> 379 68<109.463 154.836> 525 73<108.021 177.961 479.313 554.036>
VStem: 31 73<452.119 520.467> 155 118<0 65.1965 225 379> 182 91<450.125 520.569> 393 79<440.05 519.057> 512 118<0 326.471> 561 73<439.871 518.366>
LayerCount: 2
Fore
SplineSet
515 598 m 0xfa
 556 598 634 575 634 482 c 0xfa80
 634 407 582 387 579 385 c 1
 582 384 598 375 610 358 c 0
 627 332 630 313 630 284 c 2
 630 0 l 1
 512 0 l 1
 512 293 l 2
 512 312 509 328 483 328 c 0
 467 328 459 317 457 315 c 0
 449 309 412 264 369 192 c 0
 325 123 290 78 273 0 c 1
 155 0 l 1
 155 379 l 1xfb
 144 379 l 2
 86 379 31 417 31 486 c 0
 31 563 89 598 141 598 c 0
 261 598 273 505 273 460 c 2xf6
 273 225 l 1
 273 225 308 286 340 324 c 0
 386 381 423 401 423 401 c 1
 421 401 393 429 393 478 c 0
 393 544 435 598 515 598 c 0xfa
182 485 m 0xf6
 182 515 167 525 144 525 c 0
 116 525 104 507 104 488 c 0
 104 468 118 447 144 447 c 0
 169 447 182 465 182 485 c 0xf6
517 525 m 0
 487 525 472 502 472 479 c 0
 472 457 487 434 517 434 c 0
 546 434 561 457 561 479 c 0xf280
 561 502 546 525 517 525 c 0
EndSplineSet
EndChar

StartChar: uni0E2C
Encoding: 204 3628 172
Width: 754
Flags: W
HStem: 0 21G<156 283.241 536.483 662> 384 70<109.09 155.847> 461 57<417.314 535.743> 532 66<109.54 175.794> 602 60<416.461 536.336>
VStem: 33 72<457.517 528.572> 156 118<190 385> 180 94<457.026 526.86> 337 72<529.121 591.926> 544 118<190 474 529 539.473>
DStem2: 274 190 408 290 0.419455 0.907776<0 146.985> 441 418 408 290 0.429692 -0.902976<101.401 250.137>
LayerCount: 2
Fore
SplineSet
479 662 m 0xfec0
 573 662 611 610 612 610 c 1
 630 622 655 663 658 687 c 1
 757 656 l 1
 742 614 702 552 662 521 c 1
 662 0 l 1
 546 0 l 1
 408 290 l 1
 274 0 l 1xfdc0
 156 0 l 1
 156 385 l 1xfec0
 156 385 151 384 142 384 c 0
 74 384 33 433 33 492 c 0
 33 529 55 598 144 598 c 0
 247 598 274 528 274 466 c 2xfdc0
 274 190 l 1
 369 418 l 1
 441 418 l 1
 544 190 l 1
 544 474 l 1
 543 474 516 461 472 461 c 0
 415 461 337 480 337 556 c 0
 337 620 392 662 479 662 c 0xfec0
544 561 m 0
 544 587 509 602 478 602 c 0
 446 602 409 590 409 561 c 0
 409 529 448 518 478 518 c 0
 509 518 544 533 544 561 c 0
143 532 m 0
 118 532 105 512 105 493 c 0
 105 474 118 454 143 454 c 0
 168 454 180 474 180 493 c 0
 180 512 168 532 143 532 c 0
EndSplineSet
EndChar

StartChar: uni0E2D
Encoding: 205 3629 173
Width: 669
Flags: W
HStem: 0 78<229.5 450.702> 195 69<222.421 270.462> 342 67<202.519 270.029> 516 84<205.759 416.198>
VStem: 104 118<85.2253 196> 104 94<267.422 337.556> 275 69<267.726 337.788> 462 118<89.9847 472.826>
LayerCount: 2
Fore
SplineSet
66 486 m 1xfb
 68 488 104 600 317 600 c 0
 540 600 580 482 580 425 c 2
 580 130 l 2
 580 24 510 0 441 0 c 2
 235 0 l 2
 116 0 104 87 104 110 c 2xfb
 104 276 l 2xf7
 104 339 136 409 233 409 c 0
 302 409 344 359 344 300 c 0
 344 240 300 195 236 195 c 0
 227 195 222 196 222 196 c 1
 222 124 l 2
 222 98 231 78 276 78 c 2
 401 78 l 2
 450 78 462 102 462 139 c 2
 462 403 l 2
 462 479 417 516 308 516 c 0
 178 516 150 445 143 431 c 1
 66 486 l 1xfb
236 342 m 0
 210 342 198 322 198 303 c 0xf7
 198 284 210 264 236 264 c 0
 262 264 275 284 275 303 c 0
 275 322 262 342 236 342 c 0
EndSplineSet
EndChar

StartChar: uni0E2E
Encoding: 206 3630 174
Width: 656
Flags: W
HStem: 0 78<215.545 439.346> 157 68<208.375 254.291> 302 69<186.336 254.394> 417 61<194.415 404.805> 540 62<198.802 406.553>
VStem: 90 118<85.2253 158> 90 92<228.281 296.32> 258 75<228.984 298.965> 452 118<86.0598 442.854>
LayerCount: 2
Fore
SplineSet
475 561 m 1xfd80
 484 561 507 593 507 630 c 1
 605 598 l 1
 600 579 573 518 543 497 c 1
 545 492 570 471 570 415 c 2
 570 130 l 2
 570 67 542 0 429 0 c 2
 221 0 l 2
 103 0 90 87 90 110 c 2xfd80
 90 238 l 2xfb80
 90 300 123 371 221 371 c 0
 282 371 333 327 333 262 c 0
 333 195 280 157 222 157 c 0
 213 157 208 158 208 158 c 1
 208 124 l 2
 208 82 240 78 264 78 c 2
 396 78 l 2
 436 78 452 100 452 134 c 2
 452 409 l 2
 452 429 451 440 445 443 c 1
 420 432 337 417 277 417 c 0
 204 417 81 438 81 503 c 0
 81 568 194 602 311 602 c 0
 426 602 475 561 475 561 c 1xfd80
418 512 m 1
 414 513 380 540 305 540 c 0
 260 540 192 535 192 507 c 0
 192 484 229 478 299 478 c 0
 389 478 408 501 418 512 c 1
221 302 m 0
 195 302 182 283 182 264 c 0xfb80
 182 244 195 225 221 225 c 0
 246 225 258 244 258 264 c 0
 258 283 246 302 221 302 c 0
EndSplineSet
EndChar

StartChar: uni0E2F
Encoding: 207 3631 175
Width: 623
Flags: W
HStem: -6 83<380 418.248> 328 74<217.701 359.165> 427 52<213 237.221> 545 53<179.147 238.125>
VStem: 97 79<480.668 542.862> 240 66<481.418 542.754> 441 117<110.539 391 490.386 569.308>
LayerCount: 2
Fore
SplineSet
277 402 m 0
 426.78 402 445 562.294 445 595 c 1
 456 595 l 2
 522 595 558 566 558 510 c 2
 558 179 l 2
 558 113 556 58 492 21 c 0
 444 -5 404 -6 380 -6 c 1
 328 77 l 1
 363 77 397 76 431 110 c 0
 440 121 441 163.98 441 190 c 2
 441 391 l 1
 441 391 398 328 285 328 c 0
 179 328 97 392 97 485 c 0
 97 550 142 598 211 598 c 0
 273 598 306 558 306 514 c 0
 306 444 245 427 213 427 c 1
 213 427 233 402 277 402 c 0
208 545 m 0
 187 545 176 528 176 512 c 0
 176 496 187 479 208 479 c 0
 230 479 240 496 240 512 c 0
 240 528 230 545 208 545 c 0
EndSplineSet
EndChar

StartChar: uni0E30
Encoding: 208 3632 176
Width: 531
Flags: W
HStem: 14 76<131.792 258.605> 187 61<131.029 209.315> 341 77<131.485 260.212> 515 59<130.995 209.338>
VStem: 55 68<97.3438 179.89 426.153 507.601> 218 63<106.117 178.897 432.28 507.381> 218 55<106.175 147.879 432.5 474.879>
LayerCount: 2
Fore
SplineSet
172 574 m 0xfa
 230 574 281 535 281 476 c 0xfc
 281 452 273 433 273 432 c 1
 273 432 319 438 372 475 c 0
 441 523 471 587 471 587 c 1
 471 457 l 1
 471 457 432 403 353 372 c 0
 302 352 261 341 217 341 c 0
 95 341 55 415 55 465 c 0
 55 523 101 574 172 574 c 0xfa
171 248 m 0
 225 248 281 209 281 149 c 0xfc
 281 125 273 107 273 106 c 1xfa
 273 106 319 112 372 149 c 0
 441 195 471 261 471 261 c 1
 471 129 l 1
 471 129 432 75 353 44 c 0
 303 25 263 14 221 14 c 0
 93 14 55 88 55 138 c 0
 55 189 95 248 171 248 c 0
172 90 m 0
 203 90 218 113 218 137 c 0
 218 162 202 187 170 187 c 0
 138 187 123 163 123 139 c 0
 123 115 139 90 172 90 c 0
172 418 m 0
 203 418 218 441 218 465 c 0
 218 490 202 515 170 515 c 0
 138 515 123 491 123 467 c 0
 123 443 139 418 172 418 c 0
EndSplineSet
EndChar

StartChar: uni0E31
Encoding: 209 3633 177
Width: 0
Flags: W
HStem: 682 77<-262.25 -120.762> 873 57<-389.16 -310.532>
VStem: -456 61<788.005 866.205> -303 65<787.265 865.302>
AnchorPoint: "AboveMark" -170 988 basemark 0
AnchorPoint: "AboveBase" -87 613 mark 0
LayerCount: 2
Fore
SplineSet
-235 759 m 0
 -48 759 32 913 35 914 c 1
 35 786 l 1
 0 759 -5 734 -106 700 c 0
 -145 687 -186 682 -225 682 c 0
 -288 682 -343 695 -372 707 c 0
 -431 730 -456 778 -456 822 c 0
 -456 880 -417 930 -349 930 c 0
 -295 930 -238 894 -238 828 c 0
 -238 784 -265 760 -265 760 c 1
 -263 760 -252 759 -235 759 c 0
-395 828 m 0
 -395 790 -365 781 -349 781 c 0
 -326 781 -303 796 -303 827 c 0
 -303 854 -324 873 -349 873 c 0
 -372 873 -395 858 -395 828 c 0
EndSplineSet
EndChar

StartChar: uni0E32
Encoding: 210 3634 178
Width: 493
Flags: W
HStem: 0 21G<314 432> 507 91<128.119 272.809>
VStem: 314 118<0 460.971>
LayerCount: 2
Fore
SplineSet
101 449 m 1
 14 478 l 1
 14 480 26 598 221 598 c 0
 391 598 432 477 432 371 c 2
 432 0 l 1
 314 0 l 1
 314 360 l 2
 314 426 300 507 208 507 c 0
 113 507 101 451 101 449 c 1
EndSplineSet
EndChar

StartChar: uni0E34
Encoding: 212 3636 180
Width: 0
Flags: W
HStem: 718 59<-460.657 -205.108> 848 66<-411.796 -247.744>
AnchorPoint: "AboveMark" -147 988 basemark 0
AnchorPoint: "AboveBase" -87 613 mark 0
LayerCount: 2
Fore
SplineSet
-75 638 m 1
 -118 675 -228 718 -377 718 c 0
 -503 718 -570 682 -572 682 c 1
 -566 792 -490 914 -328 914 c 0
 -139 914 -74 710 -75 638 c 1
-181 748 m 1
 -194 787 -240 848 -332 848 c 0
 -442 848 -461 766 -461 766 c 1
 -461 766 -419 777 -354 777 c 0
 -259 777 -181 748 -181 748 c 1
EndSplineSet
EndChar

StartChar: uni0E35
Encoding: 213 3637 181
Width: 0
Flags: W
HStem: 701 59<-459.719 -203.382> 831 65<-411.005 -245.29>
VStem: -204 115<863 938>
AnchorPoint: "AboveMark" -147 988 basemark 0
AnchorPoint: "AboveBase" -87 613 mark 0
LayerCount: 2
Fore
SplineSet
-74 621 m 1
 -116 657 -226 701 -376 701 c 0
 -502 701 -570 665 -570 665 c 1
 -569 778 -482 896 -332 896 c 0
 -281 896 -236 882 -204 863 c 1
 -204 938 l 1
 -89 938 l 1
 -89 705 l 1
 -82 681 -74 638 -74 621 c 1
-179 731 m 1
 -192 769 -238 831 -331 831 c 0
 -441 831 -460 750 -460 750 c 1
 -460 750 -418 760 -354 760 c 0
 -258 760 -179 731 -179 731 c 1
EndSplineSet
EndChar

StartChar: uni0E36
Encoding: 214 3638 182
Width: 0
Flags: W
HStem: 700 59<-460.657 -204.136> 829 66<-412.626 -252.186> 907 52<-189.004 -111.007>
VStem: -103 49<819.902 899.983>
AnchorPoint: "AboveMark" -156 988 basemark 0
AnchorPoint: "AboveBase" -87 613 mark 0
LayerCount: 2
Fore
SplineSet
-54 866 m 0
 -54 805 -89 779 -120 765 c 1
 -75 690 -81 668 -80 635 c 1
 -124 666 -242 700 -377 700 c 0
 -503 700 -570 664 -572 664 c 1
 -572 724 -524 895 -332 895 c 0
 -302 895 -276 890 -258 884 c 1
 -258 894 -223 959 -153 959 c 0
 -97 959 -54 922 -54 866 c 0
-181 730 m 1
 -189 753 -226 829 -332 829 c 0
 -442 829 -461 748 -461 748 c 1
 -461 748 -419 759 -354 759 c 0
 -259 759 -181 730 -181 730 c 1
-196 860 m 0
 -196 832 -176 814 -146 814 c 0
 -118 814 -103 837 -103 860 c 0
 -103 883 -119 907 -151 907 c 0
 -187 907 -196 875 -196 860 c 0
EndSplineSet
EndChar

StartChar: uni0E37
Encoding: 215 3639 183
Width: 0
Flags: W
HStem: 712 59<-470.312 -216.434> 842 65<-422.111 -340.081>
VStem: -337 92<907 953> -195 100<857 953>
AnchorPoint: "AboveMark" -216 988 basemark 0
AnchorPoint: "AboveBase" -87 613 mark 0
LayerCount: 2
Fore
SplineSet
-86 632 m 1
 -128 667 -238 712 -390 712 c 0
 -516 712 -582 676 -584 676 c 1
 -584 758 -522.88 907 -337 907 c 1
 -337 953 l 1
 -245 953 l 1
 -245 894 l 1
 -209 886 -198 857 -195 857 c 1
 -195 953 l 1
 -95 953 l 1
 -95 684 l 1
 -86 632 l 1
-193 742 m 1
 -201 766 -239 842 -345 842 c 0
 -455 842 -472 760 -472 760 c 1
 -472 760 -431 771 -367 771 c 0
 -271 771 -193 742 -193 742 c 1
EndSplineSet
EndChar

StartChar: uni0E38
Encoding: 216 3640 184
Width: 0
Flags: W
HStem: -196 59<-225.248 -193.164> -81 53<-224.088 -171.425>
VStem: -282 56<-135.273 -82.4466> -193 106<-308 -195> -170 83<-136.259 -82>
AnchorPoint: "BelowBase" -87 -26 mark 0
LayerCount: 2
Fore
SplineSet
-185 -28 m 0xf0
 -148 -28 -87 -41 -87 -143 c 2xe8
 -87 -308 l 1
 -193 -308 l 1
 -193 -195 l 1
 -197 -196 -201 -196 -205 -196 c 0
 -236 -196 -282 -167 -282 -113 c 0
 -282 -78 -263 -28 -185 -28 c 0xf0
-170 -109 m 0
 -170 -94 -183 -81 -198 -81 c 0
 -213 -81 -226 -94 -226 -109 c 0
 -226 -124 -213 -137 -198 -137 c 0
 -183 -137 -170 -124 -170 -109 c 0
EndSplineSet
Substitution2: "Thai Sara U Nikhahit Reordering" uni0E4D
Substitution2: "Thai Sara U Thanthakhat Reordering" uni0E4C.low
Substitution2: "Thai Sara U Mai Chattawa Reordering" uni0E4B.low
Substitution2: "Thai Sara U Mai Tri Reordering" uni0E4A.low
Substitution2: "Thai Sara U Mai Tho Reordering" uni0E49.low
Substitution2: "Thai Sara U Mai Ek Reordering" uni0E48.low
EndChar

StartChar: uni0E39
Encoding: 217 3641 185
Width: 0
Flags: W
HStem: -296 71<-256 -200.428> -220 65<-395.209 -357.024> -84 58<-396.58 -339.263>
VStem: -460 61<-153.108 -85.5761> -336 80<-154.092 -87.8541> -197 116<-224.726 -31>
AnchorPoint: "BelowBase" -87 -26 mark 0
LayerCount: 2
Fore
SplineSet
-81 -227 m 2
 -81 -245 -112 -296 -152 -296 c 2
 -357 -296 l 1
 -357 -219 l 1
 -362 -219 -367 -220 -371 -220 c 0
 -442 -220 -460 -167 -460 -124 c 0
 -460 -70 -420 -26 -360 -26 c 0
 -283 -26 -256 -87 -256 -149 c 2
 -256 -225 l 1
 -222 -225 l 2
 -205 -225 -197 -201 -197 -181 c 2
 -197 -31 l 1
 -81 -31 l 1
 -81 -227 l 2
-366 -155 m 0
 -345 -155 -336 -139 -336 -122 c 0
 -336 -103 -347 -84 -368 -84 c 0
 -389 -84 -399 -102 -399 -119 c 0
 -399 -137 -388 -155 -366 -155 c 0
EndSplineSet
Substitution2: "Thai Sara UU Nikhahit Reordering" uni0E4D
Substitution2: "Thai Sara UU Thanthakhat Reordering" uni0E4C.low
Substitution2: "Thai Sara UU Mai Chattawa Reordering" uni0E4B.low
Substitution2: "Thai Sara UU Mai Tri Reordering" uni0E4A.low
Substitution2: "Thai Sara UU Mai Tho Reordering" uni0E49.low
Substitution2: "Thai Sara UU Mai Ek Reordering" uni0E48.low
EndChar

StartChar: uni0E3A
Encoding: 218 3642 186
Width: 0
Flags: W
HStem: -261 175<-217.066 -98.1206>
VStem: -244 174<-232.074 -115.063>
AnchorPoint: "BelowBase" -87 -26 mark 0
LayerCount: 2
Fore
SplineSet
-158 -86 m 0
 -100 -86 -70 -130 -70 -174 c 0
 -70 -217 -100 -261 -158 -261 c 0
 -216 -261 -244 -217 -244 -174 c 0
 -244 -130 -216 -86 -158 -86 c 0
EndSplineSet
Substitution2: "Thai Phinthu Nikhahit Reordering" uni0E4D
Substitution2: "Thai Phinthu Thanthakhat Reordering" uni0E4C.low
Substitution2: "Thai Phinthu Mai Chattawa Reordering" uni0E4B.low
Substitution2: "Thai Phinthu Mai Tri Reordering" uni0E4A.low
Substitution2: "Thai Phinthu Mai Tho Reordering" uni0E49.low
Substitution2: "Thai Phinthu Mai Ek Reordering" uni0E48.low
Substitution2: "Thai Phinthu Maitaikhu Reordering" uni0E47
EndChar

StartChar: uni0E4D.high
Encoding: 219 63262 187
Width: 0
Flags: W
HStem: 995 66<-243.589 -152.126> 1176 69<-242.012 -152.126>
VStem: -323 68<1073.4 1163.69> -140 67<1073.4 1163.69>
AnchorPoint: "AboveMark" -197 988 mark 0
LayerCount: 2
Fore
SplineSet
-198 1245 m 0
 -114 1245 -73 1182 -73 1120 c 0
 -73 1058 -114 995 -198 995 c 0
 -282 995 -323 1058 -323 1120 c 0
 -323 1182 -282 1245 -198 1245 c 0
-198 1061 m 0
 -160 1061 -140 1090 -140 1118 c 0
 -140 1147 -160 1176 -198 1176 c 0
 -236 1176 -255 1147 -255 1118 c 0
 -255 1090 -236 1061 -198 1061 c 0
EndSplineSet
EndChar

StartChar: dottedcircle
Encoding: 221 9676 188
Width: 718
Flags: W
HStem: -14 75<337.723 405.255> 23 75<187.745 255.277> 34 75<466.723 534.255> 115 75<89.7227 157.255> 127 74<549.006 615.664> 256 75<584.723 652.255> 264 75<52.7227 120.255> 397 75<97.5299 163.618 552.33 612.052> 481 75<454.317 522.627> 489 75<198.7 266.233> 523 75<336.53 404.233>
VStem: 49 75<267.7 335.233> 86 75<118.723 186.255> 94 73<399.984 469.031> 184 75<26.745 94.2773> 195 75<492.723 560.255> 334 75<-10.2773 57.255 527.584 593.447> 451 75<484.723 552.426> 463 75<37.7227 105.255> 546 73<130.181 197.664 394.355 462.664> 581 75<259.745 327.277>
LayerCount: 2
Fore
SplineSet
130 472 m 0x010480
 152 472 167 455 167 435 c 0
 167 414 152 397 130 397 c 0
 110 397 94 414 94 435 c 0
 94 455 110 472 130 472 c 0x010480
231 564 m 0x014180
 253 564 270 547 270 526 c 0
 270 506 253 489 231 489 c 0
 212 489 195 506 195 526 c 0
 195 547 212 564 231 564 c 0x014180
222 98 m 0x410280
 242 98 259 81 259 61 c 0x810280
 259 40 242 23 222 23 c 0x410280
 201 23 184 40 184 61 c 0x810280
 184 81 201 98 222 98 c 0x410280
123 190 m 0x110880
 144 190 161 173 161 152 c 0
 161 132 144 115 123 115 c 0
 103 115 86 132 86 152 c 0
 86 173 103 190 123 190 c 0x110880
500 109 m 0x2100a0
 521 109 538 92 538 71 c 0
 538 51 521 34 500 34 c 0
 480 34 463 51 463 71 c 0
 463 92 480 109 500 109 c 0x2100a0
582 201 m 0x090090
 602 201 619 184 619 164 c 0
 619 143 602 127 582 127 c 0
 561 127 546 143 546 164 c 0
 546 184 561 201 582 201 c 0x090090
582 466 m 0
 602 466 619 449 619 429 c 0
 619 408 602 391 582 391 c 0
 561 391 546 408 546 429 c 0
 546 449 561 466 582 466 c 0
487 556 m 0x0180c0
 509 556 526 540 526 518 c 0
 526 498 509 481 487 481 c 0
 468 481 451 498 451 518 c 0
 451 540 468 556 487 556 c 0x0180c0
618 331 m 0x050088
 639 331 656 314 656 294 c 0
 656 273 639 256 618 256 c 0
 598 256 581 273 581 294 c 0
 581 314 598 331 618 331 c 0x050088
86 339 m 0x030880
 107 339 124 322 124 300 c 0x031080
 124 281 107 264 86 264 c 0x030880
 66 264 49 281 49 300 c 0x031080
 49 322 66 339 86 339 c 0x030880
371 61 m 0x810080
 392 61 409 44 409 23 c 0x410080
 409 3 392 -14 371 -14 c 0x810080
 351 -14 334 3 334 23 c 0x410080
 334 44 351 61 371 61 c 0x810080
369 598 m 0x012080
 391 598 408 581 408 561 c 0
 408 540 391 523 369 523 c 0
 349 523 333 540 333 561 c 0
 333 581 349 598 369 598 c 0x012080
EndSplineSet
EndChar

StartChar: uni0E3F
Encoding: 223 3647 189
Width: 646
Flags: W
HStem: 0 97<202 273 369 429.225> 316 89<202 273 369 420.012> 608 92<202 273 369 425.192>
VStem: 83 119<97 316 405 608> 273 96<-124 0 98 314 407 608 700 813> 458 124<445.541 574.399> 472 129<138.555 265.451>
LayerCount: 2
Fore
SplineSet
273 405 m 1xf8
 273 608 l 1
 202 608 l 1
 202 405 l 1
 273 405 l 1xf8
273 97 m 1
 273 316 l 1
 202 316 l 1
 202 97 l 1
 273 97 l 1
369 98 m 1
 451 105 472 163 472 210 c 0xfa
 472 242 455 310 369 314 c 1
 369 98 l 1
369 407 m 1
 421 410 458 452 458 511 c 0xfc
 458 559 425 608 369 608 c 1
 369 407 l 1
273 813 m 1
 369 813 l 1
 369 700 l 1
 417 700 468 700 510 670 c 0
 558 637 582 588 582 525 c 0xfc
 582 453 535 388 457 365 c 1
 455 357 l 1
 544 337 601 265 601 179 c 0xfa
 601 123 570 72 527 37 c 0
 484 2 428 0 369 0 c 1
 369 -124 l 1
 273 -124 l 1
 273 0 l 1
 83 0 l 1
 83 700 l 1
 273 700 l 1
 273 813 l 1
EndSplineSet
EndChar

StartChar: uni0E40
Encoding: 224 3648 190
Width: 360
Flags: W
HStem: -2 68<187.925 255.664> 144 69<210.765 255.309> 575 20G<92 210>
VStem: 92 118<212 595> 92 91<70.4734 140.578> 260 72<69.545 139.563>
LayerCount: 2
Fore
SplineSet
332 106 m 0xf4
 332 35 280 -2 214 -2 c 0
 119 -2 92 71 92 130 c 2xec
 92 595 l 1
 210 595 l 1
 210 212 l 1
 211 212 215 213 223 213 c 0
 254 213 332 192 332 106 c 0xf4
222 144 m 0
 196 144 183 124 183 105 c 0
 183 86 196 66 222 66 c 0
 248 66 260 86 260 105 c 0
 260 124 248 144 222 144 c 0
EndSplineSet
EndChar

StartChar: uni0E41
Encoding: 225 3649 191
Width: 649
Flags: W
HStem: -2 66<191.188 259.183 470.487 537.241> 143 70<205.34 259.169 500.564 538.368> 575 20G<87 205 382 500>
VStem: 87 118<212 595> 87 99<67.7272 139.578> 263 64<67.6492 138.445> 382 118<212 595> 382 84<67.7272 139.578> 542 80<67.7104 139.214>
LayerCount: 2
Fore
SplineSet
622 109 m 0xe680
 622 64 598 -2 504 -2 c 0
 408 -2 382 71 382 130 c 2xe580
 382 595 l 1
 500 595 l 1
 500 212 l 1
 500 212 505 213 512 213 c 0
 562 213 622 178 622 109 c 0xe680
327 107 m 0
 327 36 277 -2 210 -2 c 0
 114 -2 87 71 87 130 c 2xec80
 87 595 l 1
 205 595 l 1
 205 212 l 1xf480
 206 212 210 213 218 213 c 0
 259 213 327 186 327 107 c 0
504 143 m 0
 479 143 466 123 466 104 c 0xe580
 466 84 479 64 504 64 c 0
 530 64 542 84 542 104 c 0
 542 123 530 143 504 143 c 0
224 143 m 0
 198 143 186 123 186 104 c 0xec80
 186 84 198 64 224 64 c 0
 250 64 263 84 263 104 c 0
 263 123 250 143 224 143 c 0
EndSplineSet
EndChar

StartChar: uni0E42
Encoding: 226 3650 192
Width: 389
Flags: W
HStem: -2 66<220.153 284.909> 143 70<239.153 286.238> 941 80<301.463 458.891> 991 72<114.877 280.73>
VStem: 121 118<212 834.031> 121 94<67.7272 139.974> 290 72<68.1106 138.346>
LayerCount: 2
Fore
SplineSet
167 1063 m 0xda
 239 1063 316 1021 388 1021 c 0
 436 1021 448 1053 454 1056 c 1
 489 975 l 1
 489 975 464 941 395 941 c 0xea
 331 941 252 991 182 991 c 0
 98 991 86 924 86 924 c 1
 87 924 154 910 191 883 c 0
 237 850 239 825 239 787 c 2
 239 212 l 1xda
 239 212 244 213 252 213 c 0
 298 213 362 180 362 105 c 0
 362 41 315 -2 243 -2 c 0
 147 -2 121 71 121 130 c 2xd6
 121 773 l 2
 121 802 115 828 89 842 c 0
 35 868 -12 869 -40 869 c 1
 -40 874 -41 995 72 1042 c 0
 108 1057 139 1063 167 1063 c 0xda
252 143 m 0
 227 143 215 123 215 104 c 0xc6
 215 84 227 64 252 64 c 0
 277 64 290 84 290 104 c 0
 290 123 277 143 252 143 c 0
EndSplineSet
EndChar

StartChar: uni0E43
Encoding: 227 3651 193
Width: 452
Flags: W
HStem: -2 66<286.384 353.517> 143 70<305.765 353.317> 723 53<44.0442 107.498> 881 48<40.0235 102.027> 1007 67<76.2069 213.302>
VStem: -45 79<787.758 921.22 929 963.996> 112 52<778.902 873.986> 187 118<212 767.395> 187 94<67.7272 139.578> 247 97<801.36 974.796> 358 69<68.5529 138.44>
LayerCount: 2
Fore
SplineSet
427 106 m 0xff20
 427 35 375 -2 309 -2 c 0
 214 -2 187 71 187 130 c 2xfea0
 187 670 l 2xff20
 187 787 247 783 247 898 c 0
 247 985 197 1007 143 1007 c 0
 55 1007 40 932 40 929 c 1
 42 929 50 932 64 932 c 0
 79 932 99 929 124 917 c 0
 150 903 164 864 164 825 c 0
 164 742 109 723 76 723 c 0
 7 723 -45 793 -45 874 c 0
 -45 992 28 1074 159 1074 c 0
 266 1074 344 1007 344 906 c 0xfe60
 344 816 305 810 305 677 c 2
 305 212 l 1
 306 212 310 213 318 213 c 0
 356 213 427 188 427 106 c 0xff20
77 776 m 0
 101 776 112 798 112 822 c 0
 112 851 97 881 69 881 c 0
 45 881 34 859 34 835 c 0
 34 806 49 776 77 776 c 0
320 143 m 0
 294 143 281 123 281 104 c 0
 281 84 294 64 320 64 c 0
 346 64 358 84 358 104 c 0
 358 123 346 143 320 143 c 0
EndSplineSet
EndChar

StartChar: uni0E44
Encoding: 228 3652 194
Width: 458
Flags: W
HStem: -2 68<276.297 344.264> 144 69<297.746 345.222> 943 118<191.957 264.5>
VStem: 179 118<212 796.62> 179 93<70.4734 140.578> 239 106<841.795 999> 349 71<69.9989 140.114>
LayerCount: 2
Fore
SplineSet
420 107 m 0xf2
 420 36 369 -2 302 -2 c 0
 206 -2 179 71 179 130 c 2xea
 179 710 l 2xf2
 179 788 239 850 239 914 c 0
 239 938 225 943 216 943 c 0
 175 943 132 791 82 791 c 0
 24 791 23 951 -37 951 c 0
 -42 951 -47 950 -49 950 c 1
 -25 1076 l 1
 -16 1076 l 2
 76 1076 61 933 97 933 c 0
 133 933 163 1061 247 1061 c 0
 282 1061 345 1042 345 956 c 0xe6
 345 870 297 800 297 708 c 2
 297 212 l 1
 298 212 302 213 310 213 c 0
 353 213 420 184 420 107 c 0xf2
311 144 m 0
 285 144 272 124 272 105 c 0
 272 86 285 66 311 66 c 0
 336 66 349 86 349 105 c 0
 349 124 336 144 311 144 c 0
EndSplineSet
EndChar

StartChar: uni0E45
Encoding: 229 3653 195
Width: 308
Flags: W
HStem: 504 91<-64.1901 80.1624>
VStem: 121 118<-192 457.971>
LayerCount: 2
Fore
SplineSet
-92 446 m 1
 -179 475 l 1
 -179 477 -167 595 29 595 c 0
 198 595 239 474 239 368 c 2
 239 -192 l 1
 121 -192 l 1
 121 357 l 2
 121 423 107 504 15 504 c 0
 -78 504 -92 448 -92 446 c 1
EndSplineSet
EndChar

StartChar: uni0E46
Encoding: 230 3654 196
Width: 675
Flags: W
HStem: 263 63<226.374 280.173> 385 51<231 279.806> 578 20G<198 296.852 408.926 490>
VStem: 282 62<327.297 383.918> 484 118<-91.423 497.976>
LayerCount: 2
Fore
SplineSet
344 354 m 0
 344 321 325 263 247 263 c 0
 161 263 122 341 122 417 c 0
 122 448 131 577 265 598 c 1
 351 544 l 1
 443 598 l 1
 537 595 602 539 602 459 c 2
 602 32 l 2
 602 -48 597 -116 543 -172 c 0
 483 -231 423 -236 422 -236 c 1
 346 -155 l 1
 351 -155 420 -138 449 -109 c 0
 481 -75 484 -41 484 2 c 2
 484 442 l 2
 484 482 456 510 438 515 c 1
 351 463 l 1
 268 515 l 1
 266 515 228 502 228 449 c 0
 228 438 231 433 231 431 c 1
 233 431 246 436 262 436 c 0
 305 436 344 403 344 354 c 0
253 385 m 0
 234 385 224 370 224 356 c 0
 224 341 234 326 253 326 c 0
 272 326 282 341 282 356 c 0
 282 370 272 385 253 385 c 0
EndSplineSet
EndChar

StartChar: uni0E47
Encoding: 231 3655 197
Width: 0
Flags: W
HStem: 674 63<-205.466 -150.455> 759 94<-359.816 -290.146> 808 60<-205.712 -150.696> 926 80<-341.091 -138.857> 942 70<-405.292 -201.77>
VStem: -524 92<793.621 913.876> -148 52<738.228 806.438> -124 99<1021.79 1093>
AnchorPoint: "AboveBase" -87 613 mark 0
LayerCount: 2
Fore
SplineSet
-217 1006 m 0x96
 -116 1006 -132 1043 -124 1093 c 1
 -25 1093 l 1
 -30 995 -59 926 -182 926 c 0x95
 -238 926 -281 942 -340 942 c 0
 -410 942 -432 898 -432 845 c 0
 -432 802 -402 786 -400 786 c 1
 -400 796 -388 853 -342 853 c 0xcd
 -302 853 -261 805 -261 805 c 1
 -261 805 -248 868 -180 868 c 0xa5
 -129 868 -96 829 -96 771 c 0
 -96 692 -149 674 -182 674 c 0
 -256 674 -287 759 -328 759 c 0
 -359 759 -367 727 -367 699 c 0
 -367 684 -365 673 -365 673 c 1
 -456 674 -524 731 -524 843 c 0
 -524 920 -488 1012 -347 1012 c 0xce
 -303 1012 -258 1006 -217 1006 c 0x96
-178 808 m 0xa6
 -198 808 -208 790 -208 772 c 0
 -208 754 -198 737 -178 737 c 0
 -158 737 -148 754 -148 772 c 0
 -148 790 -158 808 -178 808 c 0xa6
EndSplineSet
Substitution2: "Thai Mark High Variant" uni0E47.high
Substitution2: "Thai Phinthu Maitaikhu Reordering" uni0E3A
EndChar

StartChar: uni0E48
Encoding: 232 3656 198
Width: 0
Flags: W
HStem: 992 202<-201 -90>
VStem: -201 111<992 1194>
AnchorPoint: "AboveMark" -145 988 mark 0
LayerCount: 2
Fore
SplineSet
-201 992 m 1
 -201 1194 l 1
 -90 1194 l 1
 -90 992 l 1
 -201 992 l 1
EndSplineSet
Substitution2: "Thai Phinthu Mai Ek Reordering" uni0E3A
Substitution2: "Thai Sara UU Mai Ek Reordering" uni0E39
Substitution2: "Thai Sara U Mai Ek Reordering" uni0E38
Substitution2: "Thai Tone Low Variant" uni0E48.low
MultipleSubs2: "Thai Tone Nikhahit Attachment" uni0E4D uni0E48
EndChar

StartChar: uni0E49
Encoding: 233 3657 199
Width: 0
Flags: W
HStem: 977 128<-343 -266.875> 1058 47<-334.891 -307> 1185 49<-336.043 -265.868>
VStem: -391 51<1109.46 1181.42> -261 64<1108.55 1180.76>
AnchorPoint: "AboveMark" -255 988 mark 0
LayerCount: 2
Fore
SplineSet
-2 1088 m 1x78
 -45 1044 -150 977 -335 977 c 0xb8
 -351 977 -366 978 -377 979 c 1
 -377 979 -349 995 -330 1021 c 0
 -310 1047 -307 1058 -307 1058 c 1
 -342 1058 -391 1081 -391 1142 c 0
 -391 1191 -356 1234 -304 1234 c 0
 -242 1234 -197 1200 -197 1136 c 0
 -197 1089 -223 1053 -239 1042 c 1
 -210 1045 -137 1063 -74 1124 c 0
 -28 1166 -2 1222 -2 1222 c 1
 -2 1088 l 1x78
-299 1105 m 0
 -274 1105 -261 1124 -261 1143 c 0
 -261 1164 -274 1185 -302 1185 c 0
 -327 1185 -340 1166 -340 1147 c 0
 -340 1126 -326 1105 -299 1105 c 0
EndSplineSet
Substitution2: "Thai Phinthu Mai Tho Reordering" uni0E3A
Substitution2: "Thai Sara UU Mai Tho Reordering" uni0E39
Substitution2: "Thai Sara U Mai Tho Reordering" uni0E38
Substitution2: "Thai Tone Low Variant" uni0E49.low
MultipleSubs2: "Thai Tone Nikhahit Attachment" uni0E4D uni0E49
EndChar

StartChar: uni0E4A
Encoding: 234 3658 200
Width: 0
Flags: W
HStem: 988 36<-347.685 -287.296> 1090 34<-342.284 -287.987> 1177 29<-238 -184> 1179 62<-334.36 -251.687 -220.617 -152.195>
VStem: -284 39<1026.63 1087.45> -143 69<1069.39 1170.7> -6 81<1137.57 1197.54>
AnchorPoint: "AboveMark" -223 988 mark 0
LayerCount: 2
Fore
SplineSet
-303 1179 m 0xde
 -330 1179 -343 1149 -343 1127 c 0
 -343 1122 -342 1118 -342 1117 c 1
 -341 1117 -327 1124 -308 1124 c 0
 -270 1124 -245 1097 -245 1057 c 0
 -245 1011 -280 988 -314 988 c 0
 -350 988 -407 1013 -407 1106 c 0
 -407 1155 -387 1241 -310 1241 c 0xde
 -264 1241 -239 1206 -238 1206 c 0
 -236 1206 -202 1242 -159 1242 c 0
 -116 1242 -74 1209 -74 1140 c 0
 -74 1099 -92 1068 -92 1068 c 1
 -87 1070 -55 1087 -32 1128 c 0
 -11 1168 -6 1217 -6 1235 c 1
 75 1194 l 1
 75 1194 52 1088 -38 1036 c 0
 -97 1004 -182 992 -207 992 c 1
 -194 995 -143 1039 -143 1117 c 0
 -143 1150 -155 1177 -184 1177 c 0xee
 -207 1177 -241 1151 -241 1151 c 1
 -242 1151 -270 1179 -303 1179 c 0xde
-317 1024 m 0
 -295 1024 -284 1040 -284 1057 c 0
 -284 1074 -295 1090 -317 1090 c 0
 -340 1090 -351 1074 -351 1057 c 0
 -351 1040 -340 1024 -317 1024 c 0
EndSplineSet
Substitution2: "Thai Phinthu Mai Tri Reordering" uni0E3A
Substitution2: "Thai Sara UU Mai Tri Reordering" uni0E39
Substitution2: "Thai Sara U Mai Tri Reordering" uni0E38
Substitution2: "Thai Tone Low Variant" uni0E4A.low
MultipleSubs2: "Thai Tone Nikhahit Attachment" uni0E4D uni0E4A
EndChar

StartChar: uni0E4B
Encoding: 235 3659 201
Width: 0
Flags: W
HStem: 1064 69<-303 -202 -89 12>
VStem: -202 113<984 1064 1133 1226>
AnchorPoint: "AboveMark" -145 988 mark 0
LayerCount: 2
Fore
SplineSet
-202 1226 m 1
 -89 1226 l 1
 -89 1133 l 1
 12 1133 l 1
 12 1064 l 1
 -89 1064 l 1
 -89 984 l 1
 -202 984 l 1
 -202 1064 l 1
 -303 1064 l 1
 -303 1133 l 1
 -202 1133 l 1
 -202 1226 l 1
EndSplineSet
Substitution2: "Thai Phinthu Mai Chattawa Reordering" uni0E3A
Substitution2: "Thai Sara UU Mai Chattawa Reordering" uni0E39
Substitution2: "Thai Sara U Mai Chattawa Reordering" uni0E38
Substitution2: "Thai Tone Low Variant" uni0E4B.low
MultipleSubs2: "Thai Tone Nikhahit Attachment" uni0E4D uni0E4B
EndChar

StartChar: uni0E4C
Encoding: 236 3660 202
Width: 0
Flags: W
HStem: 883 41<-154.301 -83.6426> 1009 39<-125.873 -85.66>
VStem: -219 59<928.931 1004.22> -78 43<929.491 1003.21> 2 81<1152.76 1214>
AnchorPoint: "AboveMark" -119 919 mark 0
LayerCount: 2
Fore
SplineSet
-124 883 m 0
 -181 883 -219 927 -219 987 c 0
 -219 1026 -202 1067 -169 1090 c 0
 -93 1142 2 1108 2 1214 c 1
 83 1214 l 1
 83 1209 77 1151 52 1125 c 0
 26 1101 -3 1082 -72 1076 c 0
 -123 1071 -126 1048 -126 1048 c 1
 -123 1048 -35 1048 -35 958 c 0
 -35 911 -80 883 -124 883 c 0
-120 924 m 0
 -92 924 -78 945 -78 966 c 0
 -78 988 -92 1009 -120 1009 c 0
 -146 1009 -160 988 -160 966 c 0
 -160 945 -146 924 -120 924 c 0
EndSplineSet
Substitution2: "Thai Phinthu Thanthakhat Reordering" uni0E3A
Substitution2: "Thai Sara UU Thanthakhat Reordering" uni0E39
Substitution2: "Thai Sara U Thanthakhat Reordering" uni0E38
Substitution2: "Thai Tone Low Variant" uni0E4C.low
MultipleSubs2: "Thai Tone Nikhahit Attachment" uni0E4D uni0E4C
EndChar

StartChar: uni0E4D
Encoding: 237 3661 203
Width: 0
Flags: W
HStem: 696 66<-242.012 -152.126> 877 69<-243.589 -152.126>
VStem: -323 68<774.219 864.93> -140 67<774.219 864.93>
AnchorPoint: "AboveMark" -197 988 basemark 0
AnchorPoint: "AboveBase" -87 613 mark 0
LayerCount: 2
Fore
SplineSet
-198 946 m 0
 -114 946 -73 884 -73 821 c 0
 -73 758 -114 696 -198 696 c 0
 -282 696 -323 758 -323 821 c 0
 -323 884 -282 946 -198 946 c 0
-198 762 m 0
 -160 762 -140 791 -140 820 c 0
 -140 848 -160 877 -198 877 c 0
 -236 877 -255 848 -255 820 c 0
 -255 791 -236 762 -198 762 c 0
EndSplineSet
Substitution2: "Thai Phinthu Nikhahit Reordering" uni0E3A
Substitution2: "Thai Sara UU Nikhahit Reordering" uni0E39
Substitution2: "Thai Sara U Nikhahit Reordering" uni0E38
Substitution2: "Thai Mark High Variant" uni0E4D.high
EndChar

StartChar: uni0E4E
Encoding: 238 3662 204
Width: 0
Flags: W
HStem: 717 69<-201.87 -102.583> 878 63<-127.672 -81> 1018 61<-121.934 0.720968>
VStem: -317 113<789.215 853.232> -238 105<948.631 1004.4>
AnchorPoint: "AboveBase" -87 613 mark 0
LayerCount: 2
Fore
SplineSet
-133 973 m 0xe8
 -133 952 -97 941 -74 941 c 2
 -52 941 l 1
 -81 878 l 1
 -90 878 l 2
 -126 878 -204 866 -204 815 c 0
 -204 796 -185 786 -167 786 c 0
 -138 786 -127 792 -109 812 c 1
 -52 766 l 1
 -98 728 -138 717 -198 717 c 0
 -258 717 -317 739 -317 808 c 0xf0
 -317 869 -265 914 -210 926 c 1
 -228 940 -238 958 -238 983 c 0
 -238 1063 -105 1079 -46 1079 c 0
 -12 1079 9 1071 41 1056 c 1
 -18 1010 l 1
 -30 1013 -41 1018 -64 1018 c 0
 -90 1018 -133 1004 -133 973 c 0xe8
EndSplineSet
EndChar

StartChar: uni0E4F
Encoding: 239 3663 205
Width: 596
Flags: W
HStem: 0 34<208.142 384.11> 109 35<238.701 359.822> 360 37<235.867 362.595> 472 34<208.142 384.11>
VStem: 44 34<166.743 339.257> 152 39<187.704 315.765> 407 34<192.895 312.105> 514 35<164.37 341.63>
LayerCount: 2
Fore
SplineSet
296 506 m 0
 464 506 549 380 549 253 c 0
 549 126 464 0 296 0 c 0
 128 0 44 126 44 253 c 0
 44 380 128 506 296 506 c 0
296 34 m 0
 442 34 514 144 514 253 c 0
 514 362 442 472 296 472 c 0
 151 472 78 362 78 253 c 0
 78 144 151 34 296 34 c 0
296 397 m 0
 200 397 152 325 152 253 c 0
 152 181 200 109 296 109 c 0
 392 109 441 181 441 253 c 0
 441 325 392 397 296 397 c 0
299 360 m 0
 371 360 407 306 407 252 c 0
 407 198 371 144 299 144 c 0
 227 144 191 198 191 252 c 0
 191 306 227 360 299 360 c 0
EndSplineSet
EndChar

StartChar: uni0E50
Encoding: 240 3664 206
Width: 697
Flags: W
HStem: -9 76<250.315 427.733> 353 76<250.629 427.131>
VStem: 74 111<130.213 290.741> 492 113<129.554 292.153>
LayerCount: 2
Fore
SplineSet
74 212 m 0
 74 343 169 429 339 429 c 0
 507 429 605 343 605 212 c 0
 605 77 510 -9 339 -9 c 0
 166 -9 74 77 74 212 c 0
339 353 m 0
 233 353 185 290 185 210 c 0
 185 130 236 67 336 67 c 0
 441 67 492 127 492 210 c 0
 492 290 446 353 339 353 c 0
EndSplineSet
EndChar

StartChar: uni0E51
Encoding: 241 3665 207
Width: 697
Flags: W
HStem: -3 64<247.452 339.636> 189 53<329.851 388.534> 356 67<284.278 460.199>
VStem: 101 105<105.333 277.612> 271 57<127.372 187.109> 391 62<127.962 187.035> 528 114<88.0636 282.411>
LayerCount: 2
Fore
SplineSet
101 197 m 0
 101 330 189 423 369 423 c 0
 567 423 642 313 642 197 c 0
 642 93 582 -16 498 -55 c 1
 434 -6 l 1
 437 -5 528 16 528 176 c 0
 528 267 499 356 369 356 c 0
 255 356 206 269 206 190 c 0
 206 123 241 61 299 61 c 0
 323 61 329 69 340 77 c 1
 300 83 271 118 271 158 c 0
 271 203 304 242 359 242 c 0
 434 242 453 185 453 143 c 0
 453 64 385 -3 289 -3 c 0
 206 -3 101 43 101 197 c 0
359 189 m 0
 338 189 328 173 328 158 c 0
 328 142 338 126 359 126 c 0
 380 126 391 142 391 158 c 0
 391 173 380 189 359 189 c 0
EndSplineSet
EndChar

StartChar: uni0E52
Encoding: 242 3666 208
Width: 697
Flags: W
HStem: 0 77<257.88 531.229> 122 50<375.186 425.335> 224 49<375.371 425.332> 351 71<380.115 441.096 491.519 592>
VStem: 124 118<92.0673 486.897> 287 87<177.024 345.459> 426 50<173.102 223.355> 446 41<311 345.952> 547 118<92.9892 351.334>
LayerCount: 2
Fore
SplineSet
287 271 m 0xfe80
 287 360 325 422 401 422 c 0
 451 422 465 390 467 383 c 1
 472 391 492 422 554 422 c 0
 630 422 665 370 665 300 c 2
 665 144 l 2
 665 52 620 0 540 0 c 2
 267 0 l 2
 168 0 124 63 124 146 c 2
 124 403 l 2
 124 431 124 468 98 492 c 0
 65 523 26 524 5 524 c 1
 70 612 l 1
 113 610 148 592 182 566 c 0
 232 524 242 471 242 405 c 2
 242 139 l 2
 242 94 281 77 303 77 c 2
 468 77 l 2
 522 77 547 101 547 147 c 2
 547 296 l 2
 547 319 544 353 523 353 c 0
 503 353 487 331 487 311 c 1
 446 311 l 1xfd80
 446 332 429 351 408 351 c 0
 380 351 374 318 374 294 c 0
 374 280 376 269 376 268 c 1
 385 271 393 273 402 273 c 0
 429 273 476 259 476 201 c 0
 476 153 445 122 395 122 c 0
 336 122 287 178 287 271 c 0xfe80
400 224 m 0
 383 224 374 211 374 198 c 0
 374 185 383 172 400 172 c 0
 418 172 426 185 426 198 c 0xfe80
 426 211 418 224 400 224 c 0
EndSplineSet
EndChar

StartChar: uni0E53
Encoding: 243 3667 209
Width: 697
Flags: W
HStem: -3 51<183.942 242.817> 113 51<213.627 243> 337 86<231.924 308.506 438.852 507.342>
VStem: 95 117<164.411 317.534> 245 52<49.7084 111.024> 326 100<0 320.863> 533 118<27.8844 310.391>
LayerCount: 2
Fore
SplineSet
214 -3 m 0
 119 -3 95 69 95 208 c 0
 95 332 150 423 256 423 c 0
 331 423 354 390 377 340 c 1
 402 390 428 423 495 423 c 0
 606 423 651 328 651 202 c 0
 651 63 621 5 619 0 c 1
 503 0 l 1
 510 6 533 97 533 208 c 0
 533 262 521 336 473 336 c 0
 435 336 426 290 426 256 c 2
 426 0 l 1
 326 0 l 1
 326 256 l 2
 326 292 308 337 272 337 c 0
 221 337 212 274 212 223 c 0
 212 191 216 164 216 164 c 1
 250 164 297 148 297 80 c 0
 297 25 259 -3 214 -3 c 0
213 113 m 0
 192 113 181 97 181 80 c 0
 181 64 192 48 213 48 c 0
 234 48 245 64 245 80 c 0
 245 97 234 113 213 113 c 0
EndSplineSet
EndChar

StartChar: uni0E54
Encoding: 244 3668 210
Width: 697
Flags: W
HStem: -6 69<217.188 384.626> 84 101<344.396 385.951> 242 57<343.527 396.4> 339 76<312.552 528.202> 348 77<237.155 458.863> 575 20G<583 623.078>
VStem: 61 112<113.126 285.733> 282 60<187.002 241.377> 398 54<186.629 240.385> 587 92<481.699 544>
LayerCount: 2
Fore
SplineSet
442 415 m 0xf7c0
 558 415 579 480 587 595 c 1
 679 544 l 1
 679 462 639 339 480 339 c 0xf7c0
 434 339 382 348 328 348 c 0
 214 348 173 283 173 203 c 0
 173 143 199 63 275 63 c 0
 310 63 352 84 386 84 c 1
 382 84 282 121 282 208 c 0
 282 244 303 299 370 299 c 0
 424 299 452 261 452 218 c 0
 452 159 406 146 406 146 c 1
 408 143 414 116 452 104 c 0
 487 92 506 92 536 84 c 0
 575 75 589 54 590 54 c 1
 546 -6 l 1
 533 5 496 20 456 20 c 0
 391 20 323 -6 254 -6 c 0
 153 -6 61 51 61 196 c 0
 61 347 143 425 292 425 c 0xefc0
 347 425 397 415 442 415 c 0xf7c0
369 242 m 0
 351 242 342 228 342 214 c 0
 342 199 351 185 369 185 c 0
 388 185 398 199 398 214 c 0
 398 228 388 242 369 242 c 0
EndSplineSet
EndChar

StartChar: uni0E55
Encoding: 245 3669 211
Width: 697
Flags: W
HStem: -8 72<190.303 352.091> -5 21G<448.4 533.333> 244 55<314.938 369.77> 357 68<214.575 270> 380 78<456.41 548.698> 546 55<312.659 394.264>
VStem: 34 115<110.076 295.951> 239 65<455.544 538.918> 254 60<189.055 242.597> 371 54<188.002 242.92> 402 66<457.121 537.939> 590 95<504.625 553>
LayerCount: 2
Fore
SplineSet
356 601 m 0xb750
 423 601 468 561 468 500 c 0
 468 472 455 458 455 458 c 1
 457 458 467 456 480 456 c 0
 503 456 537 461 559 490 c 0
 592 532 590 601 590 601 c 1
 685 553 l 1
 685 550 676 480 636 440 c 0
 588 391 525 380 477 380 c 0x2f30
 435 380 404 389 402 389 c 1
 402 389 386 360 311 357 c 0
 186 353 149 292 149 212 c 0
 149 87 209 64 249 64 c 0xb730
 284 64 336 86 353 86 c 1
 342 86 254 129 254 204 c 0
 254 240 271 299 342 299 c 0
 380 299 425 279 425 216 c 0
 425 159 379 146 379 146 c 1
 395 98 462 95 509 86 c 0
 552 78 563 55 564 55 c 1
 518 -5 l 1x66d0
 518 -5 475 20 431 20 c 0
 365 20 295 -8 224 -8 c 0
 137 -8 34 34 34 204 c 0
 34 314 79 380 156 406 c 0
 212 424 256 425 270 425 c 1
 270 425 239 448 239 494 c 0
 239 534 263 601 356 601 c 0xb750
353 448 m 0
 386 448 402 472 402 497 c 0
 402 522 386 546 353 546 c 0
 320 546 304 522 304 497 c 0
 304 472 320 448 353 448 c 0
343 244 m 0
 324 244 314 230 314 216 c 0
 314 201 324 187 343 187 c 0
 362 187 371 201 371 216 c 0x26d0
 371 230 362 244 343 244 c 0
EndSplineSet
EndChar

StartChar: uni0E56
Encoding: 246 3670 212
Width: 697
Flags: W
HStem: -3 67<355.312 500.586> 189 55<264.281 326.376> 363 64<302.321 491.443>
VStem: 201 61<127.267 186.482> 328 63<126.163 187.347> 559 112<121.673 297.683>
LayerCount: 2
Fore
SplineSet
403 363 m 0
 339 363 280 342 242 293 c 1
 184 293 l 1
 184 293 178 412 139 471 c 0
 84 550 35 556 35 556 c 1
 130 619 l 1
 133 619 185 589 221 517 c 0
 258 443 256 385 256 383 c 1
 259 386 300 427 422 427 c 0
 622 427 671 313 671 211 c 0
 671 54 559 -3 426 -3 c 0
 245 -3 201 87 201 146 c 0
 201 194 232 244 303 244 c 0
 363 244 391 199 391 149 c 0
 391 97 353 78 353 78 c 1
 355 77 385 64 425 64 c 0
 482 64 559 93 559 211 c 0
 559 307 502 363 403 363 c 0
296 189 m 0
 274 189 262 173 262 156 c 0
 262 140 274 124 296 124 c 0
 318 124 328 140 328 156 c 0
 328 173 318 189 296 189 c 0
EndSplineSet
EndChar

StartChar: uni0E57
Encoding: 247 3671 213
Width: 697
Flags: W
HStem: -5 56<129.271 187.301> 113 54<129.212 187.057> 354 68<125.926 208.289 306.753 378.856>
VStem: -6 105<152.598 326.418> 189 60<52.2505 111.706> 230 54<270 331.745> 403 99<128.126 330.76>
LayerCount: 2
Fore
SplineSet
358 423 m 0xfa
 416 423 502 397 502 240 c 0
 502 136 463 101 463 101 c 1
 468 104 526 104 556 210 c 0
 586 310 575 372 582 481 c 0
 592 596 648 624 650 627 c 1
 739 570 l 1
 739 570 696 555 687 469 c 0
 674 343 687 253 632 150 c 0
 564 23 461 -3 331 -3 c 1
 348 14 403 126 403 230 c 0
 403 286 389 354 343 354 c 0
 294 354 284 273 284 270 c 1
 230 270 l 1xf6
 230 276 223 354 164 354 c 0
 138 354 99 327 99 229 c 0
 99 174 112 153 112 152 c 1
 113 152 134 167 166 167 c 0
 217 167 249 132 249 84 c 0
 249 51 229 -5 152 -5 c 0
 25 -5 -6 151 -6 225 c 0
 -6 323 41 422 151 422 c 0
 236 422 256 359 258 354 c 1
 267 386 296 423 358 423 c 0xfa
159 113 m 0
 138 113 128 98 128 82 c 0
 128 66 138 51 159 51 c 0
 179 51 189 66 189 82 c 0xfa
 189 98 179 113 159 113 c 0
EndSplineSet
EndChar

StartChar: uni0E58
Encoding: 248 3672 214
Width: 697
Flags: W
HStem: -3 65<443.441 528.036> 82 94<283.919 355.717> 87 57<516.969 532> 213 54<516.981 578.06> 343 73<318.97 530.153> 350 74<248.402 447.322>
VStem: 76 117<103.046 292.396> 452 62<146.141 210.426> 581 66<147.173 210.247> 605 99<506.941 563.596>
LayerCount: 2
Fore
SplineSet
76 199 m 0xd380
 76 298 120 424 295 424 c 0xd780
 337 424 378 416 424 416 c 0
 444 416 466 418 489 422 c 0
 610 441 605 622 605 624 c 1
 704 559 l 1
 704 559 690 399 569 357 c 0
 539 346 507 343 475 343 c 0x9b40
 428 343 381 350 339 350 c 0
 262 350 193 323 193 196 c 0
 193 106 228 90 228 90 c 1
 228 105 235 176 299 176 c 0xd740
 359 176 381 114 466 71 c 0
 477 65 487 62 495 62 c 0
 520 62 530 87 532 87 c 1xb340
 526 87 452 109 452 174 c 0
 452 219 489 267 545 267 c 0
 600 267 647 227 647 159 c 0
 647 84 587 -3 493 -3 c 0
 393 -3 359 82 315 82 c 0
 284 82 276 51 276 19 c 0
 276 8 277 1 277 0 c 1
 276 0 261 -4 240 -4 c 0
 153 -4 76 69 76 199 c 0xd380
547 213 m 0
 525 213 514 196 514 178 c 0
 514 161 525 144 547 144 c 0xb380
 570 144 581 161 581 178 c 0
 581 196 570 213 547 213 c 0
EndSplineSet
EndChar

StartChar: uni0E59
Encoding: 249 3673 215
Width: 697
Flags: W
HStem: -3 67<172.853 233.487> 183 53<250.283 300.83> 321 78<507.833 613.599> 360 66<181.917 310.309>
VStem: 29 108<106.003 310.989> 195 53<115.182 182.184> 303 56<115.42 182.012> 625 96<408.743 586.986>
LayerCount: 2
Fore
SplineSet
580 399 m 0xef
 616 399 625 428 625 506 c 2
 625 541 l 2
 625 593 618 624 618 627 c 1
 719 587 l 1
 719 587 721 568 721 541 c 0
 721 438 697 321 604 321 c 0xef
 567 321 538 342 515 342 c 0
 484 342 476 301 476 271 c 0
 476 178 554 87 592 72 c 1
 535 -3 l 1
 535 -3 469 18 420 155 c 0
 384 251 339 360 244 360 c 0
 202 360 137 338 137 209 c 0
 137 138 162 64 213 64 c 0
 226 64 233 72 235 72 c 1
 207 89 195 117 195 150 c 0
 195 204 227 236 274 236 c 0
 336 236 359 190 359 138 c 0
 359 84 332 -3 222 -3 c 0
 103 -3 29 85 29 216 c 0
 29 342 114 426 238 426 c 0xdf
 377 426 415 320 415 320 c 1
 415 321 414 329 414 341 c 0
 414 379 426 424 476 424 c 0
 512 424 548 399 580 399 c 0xef
303 149 m 0
 303 172 289 183 276 183 c 0
 262 183 248 172 248 150 c 0
 248 126 263 114 277 114 c 0
 287 114 303 120 303 149 c 0
EndSplineSet
EndChar

StartChar: uni0E5A
Encoding: 250 3674 216
Width: 797
Flags: W
HStem: -6 86<322 361.39> 339 75<154.176 301.685> 517 102<521.224 604.281> 570 45<114.5 188.439>
VStem: 31 79<444 564.613> 193 52<492.153 565.488> 385 118<104.378 403> 610 114<98.0388 509.897>
LayerCount: 2
Fore
SplineSet
193 529 m 0xdf
 193 548 182 570 152 570 c 0
 135 570 110 559 110 529 c 0
 110 506 123 487 152 487 c 0
 175 487 193 505 193 529 c 0xdf
610 182 m 2
 610 478 l 2
 610 503 587 517 558 517 c 0xef
 535 517 515 497 503 484 c 1
 503 185 l 2
 503 84 485 47 436 21 c 0
 401 3 363 -5 322 -6 c 1
 268 80 l 1
 380 80 385 127 385 161 c 2
 385 403 l 1
 353 363 298 339 221 339 c 0
 116 339 31 410 31 478 c 0
 31 588 101 615 148 615 c 0xdf
 202 615 245 580 245 526 c 0
 245 456 195 444 150 438 c 1
 164 424 185 414 216 414 c 0
 236 414 289 420 317 446 c 0
 378 500 376 546 388 595 c 0
 395 613 414 621 434 621 c 0
 462 621 494 604 494 582 c 1
 549 613 554 619 592 619 c 0xef
 714 619 724 548 724 508 c 2
 724 178 l 2
 724 134 729 51 645 3 c 0
 607 -18 572 -18 556 -18 c 1
 510 64 l 1
 610 64 610 152 610 182 c 2
EndSplineSet
EndChar

StartChar: uni0E5B
Encoding: 251 3675 217
Width: 1109
Flags: W
HStem: 38 74<171.363 303.168> 172 82<187.293 262.979> 230 64<867.447 1099> 340 49<184.811 218.963> 483 73<159.725 274.755> 501 20G<426 499.577>
VStem: 18 72<201.099 397.953> 126 56<255.545 339.603> 221 56<254.168 339.181> 310 72<278.924 445.921> 524 42<72 105.04> 572 41<465.625 498>
LayerCount: 2
Fore
SplineSet
241 172 m 0xdbf0
 165 172 126 251 126 300 c 0
 126 360 162 389 199 389 c 0
 238 389 277 358 277 300 c 0
 277 284 274 265 265 250 c 1
 297 274 310 326 310 365 c 0
 310 431 281 483 212 483 c 0xdbf0
 156 483 90 408 90 299 c 0
 90 183 165 112 235 112 c 0
 381 112 397 321 455 521 c 1
 495 521 l 1
 541 320 l 1
 572 498 l 1
 613 498 l 1
 653 313 l 1
 705 478 l 1
 757 325 l 1
 794 443 l 1
 803 423 866 296 889 296 c 0
 914 296 930 294 945 294 c 2
 1099 294 l 1
 1099 235 l 1
 1099 235 915 230 898 230 c 0xb7f0
 847 230 828 244 811 271 c 1
 756 95 l 1
 708 258 l 1
 651 89 l 1
 598 254 l 1
 566 72 l 1
 524 72 l 1
 474 308 l 1
 437 182 395 38 235 38 c 0
 90 38 18 178 18 300 c 0
 18 438 96 556 212 556 c 0
 326 556 382 466 382 363 c 0
 382 285 345 172 241 172 c 0xdbf0
182 300 m 0
 182 279 192 254 207 254 c 0
 221 254 221 279 221 300 c 0
 221 323 213 340 202 340 c 0
 192 340 182 323 182 300 c 0
EndSplineSet
EndChar

StartChar: DEL
Encoding: 255 63259 221
Width: 0
VWidth: 2048
Flags: W
HStem: 0 21G<-460 0>
VStem: -460 460<0 766>
LayerCount: 2
Fore
SplineSet
-460 766 m 1
 0 766 l 1
 0 0 l 1
 -460 0 l 1
 -460 766 l 1
EndSplineSet
EndChar

StartChar: exclamdown
Encoding: 256 161 222
Width: 332
VWidth: 2048
Flags: W
HStem: 382 136<101 239>
VStem: 95 149<-199 39.3889 382 518>
LayerCount: 2
Fore
SplineSet
239 518 m 1
 239 382 l 1
 101 382 l 1
 101 518 l 1
 239 518 l 1
208 331 m 1
 244 -31 l 1
 244 -199 l 1
 95 -199 l 1
 95 -31 l 1
 130 331 l 1
 208 331 l 1
EndSplineSet
EndChar

StartChar: cent
Encoding: 257 162 223
Width: 556
VWidth: 2048
Flags: W
HStem: -12 113<274.354 359.759> 422 108<224.276 307> 691 20G<388.022 454>
VStem: 41 141<154.942 374.335>
DStem2: 126 -181 184 -196 0.287742 0.957708<2.32341 200.273 326.523 621.75 740.972 931.39>
LayerCount: 2
Fore
SplineSet
363 397 m 1
 274 101 l 1
 303 101 l 2
 352 101 383 133 395 199 c 1
 530 176 l 1
 503 51 423 -12 291 -12 c 0
 277 -12 261 -11 242 -8 c 1
 184 -196 l 1
 126 -181 l 1
 181 8 l 1
 87 52 41 136 41 261 c 0
 41 441 133 530 319 530 c 0
 328 529 334 529 339 527 c 1
 394 711 l 1
 454 694 l 1
 399 513 l 1
 461 489 503 440 524 365 c 1
 388 342 l 1
 385 363 377 382 363 397 c 1
307 422 m 1
 284 422 l 2
 216 422 182 371 182 268 c 0
 182 205 195 159 219 132 c 1
 307 422 l 1
EndSplineSet
EndChar

StartChar: sterling
Encoding: 258 163 224
Width: 556
VWidth: 2048
Flags: W
HStem: -11 123<283.681 491.335> 31 107<171.272 289.989> 303 109<6 83 244 372> 521 21G<376.5 513> 619 111<228.911 345.034>
VStem: 63 133<420.569 586.418> 110 134<202.228 303>
LayerCount: 2
Fore
SplineSet
388 112 m 0xba
 414 112 448 121 487 139 c 1
 541 23 l 1
 494 0 449 -11 406 -11 c 0xba
 333 -11 237 31 181 31 c 0
 141 31 100 15 58 -12 c 1
 6 106 l 1
 75 156 110 209 110 265 c 0x7a
 110 279 108 290 107 303 c 1
 6 303 l 1
 6 412 l 1
 83 412 l 1
 69 451 63 489 63 529 c 0
 63 654 171 730 291 730 c 0
 422 730 495 667 513 541 c 1
 382 521 l 1
 371 586 340 619 287 619 c 0
 232 619 196 578 196 527 c 0x7c
 196 494 204 455 221 412 c 1
 372 412 l 1
 372 303 l 1
 244 303 l 1
 244 282 l 2
 245 238 221 185 170 126 c 1
 190 134 209 138 231 138 c 0x7a
 296 138 340 112 388 112 c 0xba
EndSplineSet
EndChar

StartChar: currency
Encoding: 259 164 225
Width: 556
VWidth: 2048
Flags: W
HStem: 139 117<215.765 335.889> 454 119<213.629 339.245>
VStem: 60 118<293.235 418.152> 376 118<296.244 417.108>
DStem2: 103 610 21 524 0.709583 -0.704621<2.41159 100.386 504.849 604.168> 25 185 107 103 0.705437 0.708773<0 97.116 500.651 598.646>
LayerCount: 2
Fore
SplineSet
87 460 m 1
 21 524 l 1
 103 610 l 1
 170 544 l 1
 201 563 236 573 276 573 c 0
 316 573 351 563 383 544 c 1
 448 610 l 1
 530 527 l 1
 466 463 l 1
 484 428 494 392 494 356 c 0
 494 317 484 281 466 250 c 1
 532 184 l 1
 449 101 l 1
 383 167 l 1
 346 149 311 139 277 139 c 0
 238 139 202 149 172 167 c 1
 107 103 l 1
 25 185 l 1
 89 250 l 1
 69 284 60 319 60 356 c 0
 60 395 69 431 87 460 c 1
277 454 m 0
 214 454 178 405 178 356 c 0
 178 293 230 256 277 256 c 0
 305 256 328 267 346 287 c 0
 366 305 376 328 376 356 c 0
 376 404 339 454 277 454 c 0
EndSplineSet
EndChar

StartChar: yen
Encoding: 260 165 226
Width: 556
VWidth: 2048
Flags: W
HStem: 0 21G<207 343> 133 109<25 207 343 527> 300 108<25 153 399 527> 696 20G<0 161.275 392.338 552>
VStem: 0 152<564 716> 207 136<0 133 242 300> 402 150<566 716>
DStem2: 152 716 0 716 0.444886 -0.895587<0 275.43> 402 716 399 408 0.444886 0.895587<-276.712 0>
LayerCount: 2
Fore
SplineSet
207 133 m 1
 25 133 l 1
 25 242 l 1
 207 242 l 1
 207 300 l 1
 25 300 l 1
 25 408 l 1
 153 408 l 1
 0 716 l 1
 152 716 l 1
 248 509 l 2
 261 481 270 458 276 440 c 1
 281 458 290 481 302 509 c 2
 402 716 l 1
 552 716 l 1
 399 408 l 1
 527 408 l 1
 527 300 l 1
 343 300 l 1
 343 242 l 1
 527 242 l 1
 527 133 l 1
 343 133 l 1
 343 0 l 1
 207 0 l 1
 207 133 l 1
EndSplineSet
EndChar

StartChar: brokenbar
Encoding: 261 166 227
Width: 278
VWidth: 2048
Flags: W
VStem: 86 109<-210 176 343 730>
LayerCount: 2
Fore
SplineSet
86 343 m 1
 86 730 l 1
 195 730 l 1
 195 343 l 1
 86 343 l 1
86 -210 m 1
 86 176 l 1
 195 176 l 1
 195 -210 l 1
 86 -210 l 1
EndSplineSet
EndChar

StartChar: section
Encoding: 262 167 228
Width: 556
VWidth: 2048
Flags: W
HStem: -210 104<224.409 342.492> 624 106<216.025 331.211>
VStem: 29 124<278.637 382.105> 69 139<534.466 615.493> 356 136<-92.6219 -6.85811> 402 119<165.963 255.858>
LayerCount: 2
Fore
SplineSet
69 572 m 0xd0
 69 670 158 730 267 730 c 0
 391 730 463 674 481 564 c 1
 348 550 l 1
 348 599 322 624 273 624 c 0
 230 624 208 609 208 578 c 0
 208 482 521 423 521 238 c 0xd4
 521 178 492 126 434 84 c 1
 472 46 492 5 492 -40 c 0
 492 -148 403 -210 282 -210 c 0
 149 -210 72 -152 57 -32 c 1
 190 -17 l 1
 202 -77 235 -106 287 -106 c 0
 333 -106 356 -83 356 -48 c 0
 356 42 29 112 29 305 c 0xe8
 29 376 60 428 120 461 c 1
 86 498 69 535 69 572 c 0xd0
359 143 m 1
 388 169 402 192 402 215 c 0
 402 238 377 267 328 302 c 2
 195 399 l 1
 167 380 153 357 153 333 c 0xe4
 153 300 175 268 219 239 c 2
 359 143 l 1
EndSplineSet
EndChar

StartChar: dieresis
Encoding: 263 168 229
Width: 332
VWidth: 2048
Flags: W
HStem: 610 120<2 121 213 331>
VStem: 2 119<610 730> 213 118<610 730>
LayerCount: 2
Fore
SplineSet
2 610 m 1
 2 730 l 1
 121 730 l 1
 121 610 l 1
 2 610 l 1
213 610 m 1
 213 730 l 1
 331 730 l 1
 331 610 l 1
 213 610 l 1
EndSplineSet
EndChar

StartChar: copyright
Encoding: 264 169 230
Width: 735
VWidth: 2048
Flags: W
HStem: -18 75<257.822 485.144> 147 71<308.011 426.083> 495 69<310.247 429.992> 658 73<255.281 481.557>
VStem: -5 74<242.914 472.57> 187 86<254.634 452.392> 671 74<243.571 470.901>
LayerCount: 2
Fore
SplineSet
369 731 m 0
 475 731 563 694 636 622 c 0
 708 550 745 461 745 357 c 0
 745 253 708 166 635 92 c 0
 563 18 474 -18 369 -18 c 0
 267 -18 178 18 104 92 c 0
 32 166 -5 253 -5 357 c 0
 -5 461 32 550 104 622 c 0
 176 694 265 731 369 731 c 0
69 357 m 0
 69 182 206 57 369 57 c 0
 454 57 524 86 582 144 c 0
 641 202 671 274 671 357 c 0
 671 441 641 512 582 570 c 0
 524 628 454 658 369 658 c 0
 285 658 215 628 156 570 c 0
 98 512 69 441 69 357 c 0
187 353 m 0
 187 485 256 564 377 564 c 0
 457 564 512 524 540 446 c 1
 460 426 l 1
 443 472 414 495 374 495 c 0
 307 495 273 449 273 356 c 0
 273 264 303 218 366 218 c 0
 412 218 445 245 461 300 c 1
 540 274 l 1
 513 190 458 147 376 147 c 0
 287 147 187 196 187 353 c 0
EndSplineSet
EndChar

StartChar: ordfeminine
Encoding: 265 170 231
Width: 369
VWidth: 2048
Flags: W
HStem: 363 74<123.999 214.842> 535 66<160.291 231> 651 79<134.041 226.784>
VStem: 18 102<441.065 506.178> 231 100<452.354 535 593.324 646.109>
LayerCount: 2
Fore
SplineSet
18 469 m 0
 18 584 163 570 231 601 c 1
 231 610 l 2
 231 638 213 651 182 651 c 0
 152 651 133 639 124 612 c 1
 32 630 l 1
 46 696 95 730 179 730 c 0
 238 730 277 720 297 704 c 0
 320 685 331 647 331 590 c 2
 331 474 l 2
 331 420 336 385 346 372 c 1
 253 372 l 1
 248 380 245 392 242 406 c 1
 213 377 178 363 136 363 c 0
 57 363 18 399 18 469 c 0
231 535 m 1
 196 519 120 517 120 477 c 0
 120 449 135 437 167 437 c 0
 210 437 231 463 231 515 c 2
 231 535 l 1
EndSplineSet
EndChar

StartChar: guillemotleft
Encoding: 266 171 232
Width: 556
VWidth: 2048
Flags: W
LayerCount: 2
Fore
SplineSet
310 480 m 1
 182 259 l 1
 310 34 l 1
 201 34 l 1
 48 259 l 1
 201 480 l 1
 310 480 l 1
501 480 m 1
 374 259 l 1
 501 34 l 1
 392 34 l 1
 239 259 l 1
 392 480 l 1
 501 480 l 1
EndSplineSet
EndChar

StartChar: logicalnot
Encoding: 267 172 233
Width: 583
VWidth: 2048
Flags: W
HStem: 400 124<41 417>
VStem: 417 126<184 400>
LayerCount: 2
Fore
SplineSet
417 184 m 1
 417 400 l 1
 41 400 l 1
 41 524 l 1
 543 524 l 1
 543 184 l 1
 417 184 l 1
EndSplineSet
EndChar

StartChar: minus
Encoding: 268 173 234
AltUni2: 002212.ffffffff.0
Width: 332
VWidth: 2048
Flags: W
HStem: 192 136<32 302>
LayerCount: 2
Fore
SplineSet
32 192 m 1
 32 328 l 1
 302 328 l 1
 302 192 l 1
 32 192 l 1
EndSplineSet
EndChar

StartChar: registered
Encoding: 269 174 235
Width: 735
VWidth: 2048
Flags: W
HStem: -18 73<256.813 485.957> 319 64<282 362.93> 490 63<282 427.756> 658 73<258.261 484.675>
VStem: -5 74<245.717 468.986> 201 81<156 319 383 490> 437 86<395.242 478.515> 671 74<241.459 473.005>
DStem2: 471 285 414 221 0.507604 -0.861591<-62.9983 99.4703>
LayerCount: 2
Fore
SplineSet
369 731 m 0
 475 731 564 696 636 622 c 0
 708 550 745 463 745 357 c 0
 745 253 708 166 635 92 c 0
 563 18 474 -18 369 -18 c 0
 267 -18 178 18 104 92 c 0
 32 166 -5 253 -5 357 c 0
 -5 463 32 550 104 622 c 0
 176 696 265 731 369 731 c 0
371 658 m 0
 287 658 216 628 158 570 c 0
 100 512 69 440 69 357 c 0
 69 274 100 202 158 144 c 0
 216 84 287 55 371 55 c 0
 455 55 526 84 584 143 c 0
 642 201 671 273 671 357 c 0
 671 441 642 512 584 570 c 0
 526 628 455 658 371 658 c 0
409 553 m 2
 478 553 523 506 523 441 c 0
 523 380 487 342 415 330 c 1
 434 325 451 311 471 285 c 2
 547 156 l 1
 448 156 l 1
 414 221 l 2
 388 272 364 319 302 319 c 2
 282 319 l 1
 282 156 l 1
 201 156 l 1
 201 553 l 1
 409 553 l 2
314 383 m 2
 378 383 437 379 437 437 c 0
 437 484 406 490 314 490 c 2
 282 490 l 1
 282 383 l 1
 314 383 l 2
EndSplineSet
EndChar

StartChar: macron
Encoding: 270 175 236
AltUni2: 0002c9.ffffffff.0
Width: 551
VWidth: 2048
Flags: W
HStem: 759 89<-9 561>
LayerCount: 2
Fore
SplineSet
-9 759 m 1
 -9 848 l 1
 561 848 l 1
 561 759 l 1
 -9 759 l 1
EndSplineSet
EndChar

StartChar: degree
Encoding: 271 176 237
Width: 400
VWidth: 2048
Flags: W
HStem: 417 81<146.2 250.667> 647 83<145.033 249.068>
VStem: 41 83<520.894 625.077> 273 81<519.228 624.456>
LayerCount: 2
Fore
SplineSet
198 417 m 0
 100 417 41 493 41 573 c 0
 41 663 114 730 198 730 c 0
 284 730 354 662 354 573 c 0
 354 487 290 417 198 417 c 0
273 573 m 0
 273 605 247 647 198 647 c 0
 152 647 124 611 124 573 c 0
 124 525 163 498 198 498 c 0
 246 498 273 536 273 573 c 0
EndSplineSet
EndChar

StartChar: plusminus
Encoding: 272 177 238
Width: 548
VWidth: 2048
Flags: W
HStem: 0 129<25 526> 360 129<25 212 337 526>
VStem: 212 125<173 360 489 674>
LayerCount: 2
Fore
SplineSet
212 173 m 1
 212 360 l 1
 25 360 l 1
 25 489 l 1
 212 489 l 1
 212 674 l 1
 337 674 l 1
 337 489 l 1
 526 489 l 1
 526 360 l 1
 337 360 l 1
 337 173 l 1
 212 173 l 1
25 0 m 1
 25 129 l 1
 526 129 l 1
 526 0 l 1
 25 0 l 1
EndSplineSet
EndChar

StartChar: twosuperior
Encoding: 273 178 239
Width: 332
VWidth: 2048
Flags: W
HStem: 356 76<156 310> 599 21G<21 117.5> 656 69<125.636 211.708>
VStem: 21 94<606.404 646.854> 216 94<575.181 650.817>
LayerCount: 2
Fore
SplineSet
169 725 m 0
 247 725 310 689 310 621 c 0
 310 559 271 529 196 466 c 2
 156 432 l 1
 310 432 l 1
 310 356 l 1
 12 356 l 1
 19 471 216 554 216 616 c 0
 216 642 199 656 167 656 c 0
 136 656 120 638 115 599 c 1
 21 607 l 1
 29 685 78 725 169 725 c 0
EndSplineSet
EndChar

StartChar: threesuperior
Encoding: 274 179 240
Width: 332
VWidth: 2048
Flags: W
HStem: 349 69<120.892 210.55> 520 64<135 196.036> 656 69<121.379 198.494>
VStem: 20 89<430.492 463.708> 201 93<591.824 652.832> 218 96<425.733 513.906>
LayerCount: 2
Fore
SplineSet
314 468 m 0xf4
 314 393 234 349 164 349 c 0
 81 349 32 388 20 463 c 1
 109 472 l 1
 115 437 133 418 164 418 c 0
 201 418 218 437 218 472 c 0xf4
 218 504 201 520 167 520 c 0
 158 520 143 518 124 513 c 1
 135 584 l 1
 179 584 201 598 201 624 c 0
 201 645 187 656 159 656 c 0
 132 656 116 639 112 607 c 1
 25 621 l 1
 40 690 86 725 162 725 c 0
 233 725 294 687 294 625 c 0xf8
 294 598 279 575 247 555 c 1
 291 538 314 509 314 468 c 0xf4
EndSplineSet
EndChar

StartChar: acute
Encoding: 275 180 241
Width: 332
VWidth: 2048
Flags: W
LayerCount: 2
Fore
SplineSet
92 582 m 1
 159 730 l 1
 313 730 l 1
 178 582 l 1
 92 582 l 1
EndSplineSet
EndChar

StartChar: mu
Encoding: 276 181 242
AltUni2: 0003bc.ffffffff.0
Width: 576
VWidth: 2048
Flags: W
HStem: -12 110<233.81 344.394> 0 21G<399 526>
VStem: 54 138<-199 63 150.097 518> 388 138<152.894 518> 399 127<0 63>
LayerCount: 2
Fore
SplineSet
54 518 m 1xa8
 192 518 l 1
 192 284 l 2
 192 159 224 98 288 98 c 0
 354 98 388 159 388 282 c 2
 388 518 l 1
 526 518 l 1xb0
 526 0 l 1
 399 0 l 1x68
 399 63 l 1
 372 12 337 -12 294 -12 c 0
 251 -12 216 12 192 63 c 1
 192 -199 l 1
 54 -199 l 1
 54 518 l 1xa8
EndSplineSet
EndChar

StartChar: paragraph
Encoding: 277 182 243
Width: 556
VWidth: 2048
Flags: W
HStem: 589 127<311 382 497 552>
VStem: 0 311<413.076 587.159> 192 119<-196 316> 382 115<-196 589>
LayerCount: 2
Fore
SplineSet
192 316 m 1xb0
 70 316 0 400 0 513 c 0xd0
 0 617 55 680 120 700 c 0
 150 711 198 716 259 716 c 2
 552 716 l 1
 552 589 l 1
 497 589 l 1
 497 -196 l 1
 382 -196 l 1
 382 589 l 1
 311 589 l 1
 311 -196 l 1
 192 -196 l 1
 192 316 l 1xb0
EndSplineSet
EndChar

StartChar: periodcentered
Encoding: 278 183 244
AltUni2: 002219.ffffffff.0
Width: 277
VWidth: 2048
Flags: W
HStem: 281 136<72 208>
VStem: 72 136<281 417>
LayerCount: 2
Fore
SplineSet
72 281 m 1
 72 417 l 1
 208 417 l 1
 208 281 l 1
 72 281 l 1
EndSplineSet
EndChar

StartChar: cedilla
Encoding: 279 184 245
Width: 332
VWidth: 2048
Flags: W
HStem: -205 61<19.2693 182.005> -58 52<77.5629 186.357>
VStem: 192 93<-132.241 -66.0915>
LayerCount: 2
Fore
SplineSet
18 -196 m 1
 18 -139 l 1
 49 -143 80 -144 110 -144 c 0
 164 -144 192 -129 192 -98 c 0
 192 -72 170 -58 129 -58 c 0
 109 -58 87 -61 66 -67 c 1
 78 -18 l 1
 104 -11 132 -6 159 -6 c 0
 244 -6 285 -37 285 -98 c 0
 285 -170 228 -205 113 -205 c 0
 74 -205 41 -202 18 -196 c 1
EndSplineSet
EndChar

StartChar: onesuperior
Encoding: 280 185 246
Width: 332
VWidth: 2048
Flags: W
HStem: 558 77<44 97.7048>
VStem: 149 93<356 607> 167 75<692.019 725>
LayerCount: 2
Fore
SplineSet
242 356 m 1xc0
 149 356 l 1
 149 607 l 1xc0
 120 586 86 570 44 558 c 1
 44 635 l 1
 109 655 149 685 167 725 c 1
 242 725 l 1xa0
 242 356 l 1xc0
EndSplineSet
EndChar

StartChar: ordmasculine
Encoding: 281 186 247
Width: 364
VWidth: 2048
Flags: W
HStem: 362 83<136.221 227.999> 642 88<134.975 226.717>
VStem: 12 104<463.752 624.648> 247 104<464.479 623.783>
LayerCount: 2
Fore
SplineSet
182 362 m 0
 70 362 12 443 12 544 c 0
 12 656 76 730 182 730 c 0
 279 730 351 665 351 544 c 0
 351 461 317 362 182 362 c 0
116 544 m 0
 116 478 138 445 181 445 c 0
 224 445 247 478 247 544 c 0
 247 610 224 642 181 642 c 0
 138 642 116 610 116 544 c 0
EndSplineSet
EndChar

StartChar: guillemotright
Encoding: 282 187 248
Width: 556
VWidth: 2048
Flags: W
LayerCount: 2
Fore
SplineSet
244 34 m 1
 371 256 l 1
 244 480 l 1
 351 480 l 1
 506 256 l 1
 351 34 l 1
 244 34 l 1
52 34 m 1
 179 256 l 1
 52 480 l 1
 159 480 l 1
 314 256 l 1
 159 34 l 1
 52 34 l 1
EndSplineSet
EndChar

StartChar: onequarter
Encoding: 283 188 249
Width: 833
VWidth: 2048
Flags: W
HStem: 51 72<596 685 773 825> 558 77<44 97.4073>
VStem: 150 92<356 607> 167 75<692.019 725> 590 78<647 725> 685 88<-20 51 123 231>
DStem2: 166 -26 244 -26 0.491637 0.8708<38.3477 862.425> 510 120 596 123 0.632501 0.77456<56.7187 196.664>
LayerCount: 2
Fore
SplineSet
242 356 m 1xec
 150 356 l 1
 150 607 l 1xec
 120 586 84 569 44 558 c 1
 44 635 l 1
 110 655 150 685 167 725 c 1
 242 725 l 1xdc
 242 356 l 1xec
244 -26 m 1
 166 -26 l 1
 590 725 l 1
 668 725 l 1
 244 -26 l 1
685 -20 m 1
 685 51 l 1
 510 51 l 1
 510 120 l 1
 697 349 l 1
 773 349 l 1
 773 123 l 1
 825 123 l 1
 825 51 l 1
 773 51 l 1
 773 -20 l 1
 685 -20 l 1
685 123 m 1
 685 231 l 1
 596 123 l 1
 685 123 l 1
EndSplineSet
EndChar

StartChar: onehalf
Encoding: 284 189 250
Width: 833
VWidth: 2048
Flags: W
HStem: -20 77<656 809> 281 68<626.676 712.193> 558 77<44 97.4073>
VStem: 150 92<356 607> 167 75<692.019 725> 523 92<230.467 271.225> 590 78<647 725> 716 93<198.425 276.417>
DStem2: 166 -26 244 -26 0.491637 0.8708<38.3477 862.425>
LayerCount: 2
Fore
SplineSet
242 356 m 1xf1
 150 356 l 1
 150 607 l 1xf1
 120 586 84 569 44 558 c 1
 44 635 l 1
 110 655 150 685 167 725 c 1
 242 725 l 1xe9
 242 356 l 1xf1
244 -26 m 1
 166 -26 l 1
 590 725 l 1
 668 725 l 1xe3
 244 -26 l 1
809 244 m 0
 809 155 706 107 656 57 c 1
 809 57 l 1
 809 -20 l 1
 512 -20 l 1
 519 95 716 175 716 241 c 0
 716 267 700 281 667 281 c 0
 636 281 619 261 615 224 c 1
 523 231 l 1xe5
 532 310 581 349 670 349 c 0
 748 349 809 312 809 244 c 0
EndSplineSet
EndChar

StartChar: threequarters
Encoding: 285 190 251
Width: 833
VWidth: 2048
Flags: W
HStem: 51 72<596 685 773 825> 349 69<120.892 210.566> 520 64<135 196.036> 656 69<121.379 198.573>
VStem: 20 89<430.492 463.708> 178 78<-26 52> 201 93<591.824 652.879> 218 96<425.64 513.906> 602 77<648 725> 685 88<-20 51 123 231>
DStem2: 178 -26 256 -26 0.491637 0.8708<38.3477 862.425> 509 120 596 123 0.632501 0.77456<57.3512 197.296>
LayerCount: 2
Fore
SplineSet
314 468 m 0xf9c0
 314 392.52 234.076 349 164 349 c 0
 81 349 32 388 20 463 c 1
 109 472 l 1
 115 437 133 418 164 418 c 0
 201 418 218 437 218 472 c 0xf9c0
 218 504 201 520 167 520 c 0
 158 520 143 518 124 513 c 1
 135 584 l 1
 179 584 201 598 201 624 c 0
 201 645 187 656 159 656 c 0
 132 656 116 639 112 607 c 1
 25 621 l 1
 40 690 86 725 162 725 c 0
 233.446 725 294 687.286 294 625 c 0xfac0
 294 598 279 575 247 555 c 1
 291 538 314 509 314 468 c 0xf9c0
256 -26 m 1xfcc0
 178 -26 l 1
 602 725 l 1
 679 725 l 1
 256 -26 l 1xfcc0
685 -20 m 1
 685 51 l 1
 509 51 l 1
 509 120 l 1
 696 349 l 1
 773 349 l 1
 773 123 l 1
 825 123 l 1
 825 51 l 1
 773 51 l 1
 773 -20 l 1
 685 -20 l 1
685 123 m 1
 685 231 l 1
 596 123 l 1
 685 123 l 1
EndSplineSet
EndChar

StartChar: questiondown
Encoding: 286 191 252
Width: 610
VWidth: 2048
Flags: W
HStem: -205 105<224.713 379.164> 382 136<236 372>
VStem: 49 135<-60.503 51.1236> 236 136<382 518> 248 124<238.068 334>
LayerCount: 2
Fore
SplineSet
372 518 m 1xf0
 372 382 l 1
 236 382 l 1
 236 518 l 1
 372 518 l 1xf0
308 -205 m 0
 163 -205 49 -123 49 0 c 0
 49 126 216 200 239 256 c 0
 245 270 248 296 248 334 c 1
 372 334 l 1
 372 288 l 2xe8
 372 162 236 91 213 61 c 0
 193 40 184 18 184 -5 c 0
 184 -65 238 -100 302 -100 c 0
 374 -100 420 -60 438 20 c 1
 564 5 l 1
 543 -135 457 -205 308 -205 c 0
EndSplineSet
EndChar

StartChar: AE
Encoding: 293 198 259
Width: 999
VWidth: 2048
Flags: W
HStem: 0 121<584 953> 169 124<245 440> 316 119<584 912> 595 121<584 940> 607 109<385 441>
VStem: -41 159<0 159> 441 143<121 169 293 316 435 595>
DStem2: -41 0 118 0 0.420665 0.907216<66.8857 251.334 386.124 623.088> 291 716 385 607 0.420665 0.907216<-720.702 -537.893 -403.103 -59.3441>
LayerCount: 2
Fore
SplineSet
-41 0 m 1xf6
 291 716 l 1xee
 940 716 l 1
 940 595 l 1
 584 595 l 1
 584 435 l 1
 912 435 l 1
 912 316 l 1
 584 316 l 1
 584 121 l 1
 953 121 l 1
 953 0 l 1
 440 0 l 1
 440 169 l 1
 192 169 l 1
 118 0 l 1
 -41 0 l 1xf6
245 293 m 1
 441 293 l 1
 441 607 l 1
 385 607 l 1
 245 293 l 1
EndSplineSet
EndChar

StartChar: Eth
Encoding: 303 208 269
Width: 721
VWidth: 2048
Flags: W
HStem: 0 121<218 439.603> 313 90<-2 72 218 371> 595 121<218 440.565>
VStem: 72 146<121 313 403 595> 524 149<203.597 500.002>
CounterMasks: 1 e0
LayerCount: 2
Fore
SplineSet
72 716 m 1
 337 716 l 2
 483 716 565 683 624 579 c 0
 658 523 673 446 673 349 c 0
 673 116 564 0 345 0 c 2
 72 0 l 1
 72 313 l 1
 -2 313 l 1
 -2 403 l 1
 72 403 l 1
 72 716 l 1
218 595 m 1
 218 403 l 1
 371 403 l 1
 371 313 l 1
 218 313 l 1
 218 121 l 1
 325 121 l 2
 406 121 461 139 489 178 c 0
 512 210 524 268 524 354 c 0
 524 478 494 553 434 578 c 0
 405 590 356 595 282 595 c 2
 218 595 l 1
EndSplineSet
EndChar

StartChar: multiply
Encoding: 310 215 276
Width: 583
VWidth: 2048
Flags: W
DStem2: 144 592 54 501 0.706191 -0.708021<0.872673 209.302 336.583 546.594> 54 205 143 116 0.706191 0.708021<0 208.434 338.705 546.431>
LayerCount: 2
Fore
SplineSet
54 205 m 1
 202 353 l 1
 54 501 l 1
 144 592 l 1
 293 445 l 1
 440 592 l 1
 529 503 l 1
 382 354 l 1
 530 205 l 1
 440 115 l 1
 290 264 l 1
 143 116 l 1
 54 205 l 1
EndSplineSet
EndChar

StartChar: Oslash
Encoding: 311 216 277
Width: 777
VWidth: 2048
Flags: W
HStem: -12 116<302.729 481.418> 605 125<292.947 487.073>
VStem: 43 149<228.38 491.453> 589 148<231.052 484.58>
DStem2: 31 20 100 -40 0.665061 0.746789<1.08187 122.771 275.463 705.807 860.219 978.858>
LayerCount: 2
Fore
SplineSet
43 363 m 0
 43 587 176 730 389 730 c 0
 475 730 547 707 605 664 c 1
 682 751 l 1
 751 691 l 1
 670 599 l 1
 714 533 737 452 737 354 c 0
 737 245 708 158 648 92 c 0
 587 23 503 -12 394 -12 c 0
 303 -12 233 8 179 49 c 1
 100 -40 l 1
 31 20 l 1
 115 115 l 1
 66 178 43 261 43 363 c 0
515 564 m 1
 483 592 440 605 391 605 c 0
 259 605 192 523 192 359 c 0
 192 307 199 262 215 225 c 1
 515 564 l 1
389 104 m 0
 549 104 589 251 589 356 c 0
 589 411 582 454 569 486 c 1
 268 149 l 1
 302 120 342 104 389 104 c 0
EndSplineSet
EndChar

StartChar: Thorn
Encoding: 317 222 283
Width: 666
VWidth: 2048
Flags: W
HStem: 0 21G<72 218> 135 121<218 431.827> 460 121<218 432.818> 696 20G<72 218>
VStem: 72 146<0 135 256 460 581 716> 472 150<293.167 425.531>
LayerCount: 2
Fore
SplineSet
72 0 m 1
 72 716 l 1
 218 716 l 1
 218 581 l 1
 305 581 l 2
 428 581 513 586 578 504 c 0
 607 468 622 420 622 360 c 0
 622 259 579 190 497 158 c 0
 460 143 399 135 313 135 c 2
 218 135 l 1
 218 0 l 1
 72 0 l 1
218 460 m 1
 218 256 l 1
 296 256 l 2
 354 256 394 261 415 268 c 0
 454 284 472 314 472 360 c 0
 472 408 452 437 411 451 c 0
 391 457 349 460 288 460 c 2
 218 460 l 1
EndSplineSet
EndChar

StartChar: germandbls
Encoding: 318 223 284
Width: 610
VWidth: 2048
Flags: W
HStem: -12 110<351.883 431.026> 0 21G<67 205> 621 109<229.716 330.557>
VStem: 67 138<0 596.4> 274 144<370.259 451.954> 340 140<503.461 612.284> 438 138<104.758 191.456>
LayerCount: 2
Fore
SplineSet
281 621 m 0xb4
 205 621 205 546 205 466 c 2
 205 0 l 1
 67 0 l 1
 67 466 l 2
 67 635 115 730 282 730 c 0
 396 730 480 681 480 581 c 0x74
 480 499 418 447 418 412 c 0
 418 393 426 380 490 316 c 0
 547 256 576 202 576 155 c 0x7a
 576 55 499 -12 403 -12 c 0
 331 -12 279 18 244 81 c 1
 340 136 l 1xb4
 354 110 371 98 391 98 c 0
 423 98 438 115 438 149 c 0
 438 205 274 305 274 382 c 0xba
 274 433 340 523 340 570 c 0
 340 604 320 621 281 621 c 0xb4
EndSplineSet
EndChar

StartChar: ae
Encoding: 325 230 291
Width: 889
VWidth: 2048
Flags: W
HStem: -12 106<543.624 669.325> -12 98<194.436 325.753> 219 86<500 707> 248 89<282.02 362> 426 104<210.723 343.447 541.02 668.812>
VStem: 43 138<101.559 194.748> 707 136<305 376.047>
LayerCount: 2
Fore
SplineSet
43 141 m 0x4e
 43 299 205 291 363 337 c 1x5e
 363 351 l 2
 363 402 334 426 277 426 c 0
 227 426 196 405 182 360 c 1
 58 385 l 1
 87 481 167 530 294 530 c 0
 363 530 417 515 454 483 c 1
 492 515 540 530 595 530 c 0
 760 530 843 426 843 219 c 1
 498 219 l 1
 509 135 544 94 605 94 c 0
 653 94 685 116 702 166 c 1
 835 141 l 1
 799 40 722 -12 607 -12 c 0xae
 532 -12 471 12 422 60 c 1
 362 12 294 -12 219 -12 c 0
 113 -12 43 45 43 141 c 0x4e
707 305 m 1x2e
 707 385 671 426 601 426 c 0
 533 426 500 363 500 305 c 1
 707 305 l 1x2e
362 248 m 1x5e
 239 215 181 210 181 153 c 0
 181 107 205 86 256 86 c 0
 347 86 362 145 362 248 c 1x5e
EndSplineSet
EndChar

StartChar: eth
Encoding: 335 240 301
Width: 610
VWidth: 2048
Flags: W
HStem: -12 112<237.965 370.93> 411 107<237.803 354.531> 696 20G<162 330.116 406.605 456.75>
VStem: 40 144<161.119 350.776> 432 143<164.768 343.85>
DStem2: 162 579 184 533 0.901867 0.432013<0 117.631 238.367 315.322>
LayerCount: 2
Fore
SplineSet
377 484 m 1
 349 528 374 497 305 592 c 1
 184 533 l 1
 162 579 l 1
 268 630 l 1
 236 659 201 688 162 716 c 1
 305 716 l 1
 359 673 l 1
 448 716 l 1
 469 668 l 1
 399 636 l 1
 515 518 575 394 575 267 c 0
 575 98 467 -12 305 -12 c 0
 225 -12 162 14 113 66 c 0
 64 116 40 181 40 261 c 0
 40 328 61 388 103 438 c 0
 147 492 202 518 268 518 c 0
 305 518 340 507 377 484 c 1
305 411 m 0
 228 411 184 346 184 259 c 0
 184 193 209 100 307 100 c 0
 382 100 432 168 432 254 c 0
 432 338 382 411 305 411 c 0
EndSplineSet
EndChar

StartChar: divide
Encoding: 342 247 308
Width: 548
VWidth: 2048
Flags: W
HStem: 90 137<205 343> 290 127<25 524> 480 136<205 343>
VStem: 205 138<90 227 480 616>
LayerCount: 2
Fore
SplineSet
205 480 m 1
 205 616 l 1
 343 616 l 1
 343 480 l 1
 205 480 l 1
25 290 m 1
 25 417 l 1
 524 417 l 1
 524 290 l 1
 25 290 l 1
205 90 m 1
 205 227 l 1
 343 227 l 1
 343 90 l 1
 205 90 l 1
EndSplineSet
EndChar

StartChar: oslash
Encoding: 343 248 309
Width: 610
VWidth: 2048
Flags: W
HStem: -12 107<237.684 381.039> 426 104<242.502 379.059>
VStem: 43 136<178.098 358.362> 441 137<160.099 338.173>
DStem2: 49 11 103 -35 0.654717 0.755874<0.584469 90.0498 218.344 496.82 627.177 708.937>
LayerCount: 2
Fore
SplineSet
43 262 m 0
 43 420 143 530 310 530 c 0
 368 530 418 517 463 487 c 1
 513 547 l 1
 569 503 l 1
 515 441 l 1
 556 391 578 330 578 259 c 0
 578 96 464 -12 310 -12 c 0
 254 -12 204 2 159 29 c 1
 103 -35 l 1
 49 11 l 1
 106 77 l 1
 64 127 43 190 43 262 c 0
311 426 m 0
 223 426 179 348 179 264 c 0
 179 233 184 202 192 176 c 1
 385 400 l 1
 363 417 339 426 311 426 c 0
310 95 m 0
 394 95 441 160 441 256 c 0
 441 287 437 314 428 340 c 1
 236 118 l 1
 256 103 281 95 310 95 c 0
EndSplineSet
EndChar

StartChar: thorn
Encoding: 349 254 315
Width: 610
VWidth: 2048
Flags: W
HStem: -12 109<272.063 388.135> 426 104<271.471 385.091> 696 20G<67 205>
VStem: 67 138<-198 64 155.156 376.819 458 716> 434 141<149.351 368.278>
LayerCount: 2
Fore
SplineSet
575 262 m 0
 575 155 526 -12 357 -12 c 0
 300 -12 250 14 205 64 c 1
 205 -198 l 1
 67 -198 l 1
 67 716 l 1
 205 716 l 1
 205 458 l 1
 253 507 303 530 357 530 c 0
 504 530 575 398 575 262 c 0
204 271 m 0
 204 155 245 97 325 97 c 0
 397 97 434 150 434 258 c 0
 434 369 395 426 319 426 c 0
 242 426 204 374 204 271 c 0
EndSplineSet
EndChar

StartChar: dotlessi
Encoding: 351 305 317
Width: 277
VWidth: 2048
Flags: W
HStem: 0 21G<72 208>
VStem: 72 136<0 518>
LayerCount: 2
Fore
SplineSet
72 0 m 1
 72 518 l 1
 208 518 l 1
 208 0 l 1
 72 0 l 1
EndSplineSet
EndChar

StartChar: OE
Encoding: 352 338 318
Width: 999
VWidth: 2048
Flags: W
HStem: -12 127<265.178 420.735> 0 123<635 970> 316 119<635 929> 595 121<635 956> 605 125<263.991 423.045>
VStem: 35 149<221.166 506.991> 501 134<218.158 316 435 507.209>
LayerCount: 2
Fore
SplineSet
35 359 m 0xa6
 35 570 125 730 316 730 c 0xae
 399 730 463 699 509 638 c 1
 509 716 l 1
 956 716 l 1
 956 595 l 1
 635 595 l 1
 635 435 l 1
 929 435 l 1
 929 316 l 1
 635 316 l 1
 635 123 l 1
 970 123 l 1
 970 0 l 1
 509 0 l 1x76
 509 84 l 1
 472 20 409 -12 322 -12 c 0
 135 -12 35 134 35 359 c 0xa6
343 605 m 0
 238 605 184 526 184 369 c 0
 184 199 238 115 343 115 c 0
 448 115 501 199 501 366 c 0
 501 526 448 605 343 605 c 0
EndSplineSet
EndChar

StartChar: oe
Encoding: 353 339 319
Width: 944
VWidth: 2048
Flags: W
HStem: -12 113<243.432 372.183> -12 106<605.998 731.586> 219 86<564 771> 417 113<235.849 374.659> 429 101<604.789 727.146>
VStem: 43 141<167.519 359.951> 426 137<162.952 219 305 359.135> 771 132<305 376.1>
LayerCount: 2
Fore
SplineSet
563 219 m 1x2f
 563 144 606 94 671 94 c 0
 716 94 746 118 763 167 c 1
 897 146 l 1
 861 40 786 -12 671 -12 c 0x6f
 598 -12 536 12 487 61 c 1
 437 12 376 -12 307 -12 c 0
 147 -12 43 103 43 258 c 0
 43 425 148 530 308 530 c 0xb7
 380 530 441 507 489 458 c 1
 535 507 592 530 662 530 c 0
 823 530 903 426 903 219 c 1
 563 219 l 1x2f
771 305 m 1
 771 379 730 429 665 429 c 0
 598 429 564 372 564 305 c 1
 771 305 l 1
426 264 m 0
 426 329 402 417 307 417 c 0
 225 417 184 362 184 251 c 0
 184 179 229 101 307 101 c 0xb7
 386 101 426 173 426 264 c 0
EndSplineSet
EndChar

StartChar: florin
Encoding: 357 402 323
Width: 556
VWidth: 2048
Flags: W
HStem: -210 115<15.4867 142.161> 415 103<153 233 389 472> 598 21G<516 536.727> 612 118<414.222 535.155>
DStem2: 159 -11 288 -63 0.171478 0.985188<-85.1045 432.379 560.604 648.778>
LayerCount: 2
Fore
SplineSet
135 415 m 1xd0
 153 518 l 1
 251 518 l 1
 259 563 l 2
 281 684 300 730 428 730 c 0xd0
 471 730 515 722 558 708 c 1
 532 598 l 1xe0
 500 607 474 612 454 612 c 0
 423 612 403 590 394 546 c 2
 389 518 l 1
 490 518 l 1
 472 415 l 1
 372 415 l 1
 288 -63 l 2
 271 -164 237 -210 127 -210 c 0
 75 -210 29 -204 -9 -192 c 1
 18 -83 l 1
 54 -90 81 -95 100 -95 c 0
 139 -95 150 -73 159 -11 c 2
 233 415 l 1
 135 415 l 1xd0
EndSplineSet
EndChar

StartChar: circumflex
Encoding: 358 710 324
Width: 332
VWidth: 2048
Flags: W
LayerCount: 2
Fore
SplineSet
2 584 m 1
 104 730 l 1
 231 730 l 1
 333 584 l 1
 222 584 l 1
 166 658 l 1
 112 584 l 1
 2 584 l 1
EndSplineSet
EndChar

StartChar: caron
Encoding: 359 711 325
Width: 332
VWidth: 2048
Flags: W
LayerCount: 2
Fore
SplineSet
2 730 m 1
 112 730 l 1
 166 656 l 1
 222 730 l 1
 333 730 l 1
 231 584 l 1
 104 584 l 1
 2 730 l 1
EndSplineSet
EndChar

StartChar: ring
Encoding: 361 730 326
Width: 332
VWidth: 2048
Flags: W
HStem: 559 53<128.737 205.53> 699 52<128.61 205.72>
VStem: 71 53<616.115 694.876> 210 52<616.689 695.046>
LayerCount: 2
Fore
SplineSet
167 751 m 0
 222.286 751 262 707.826 262 656 c 0
 262 595.165 211.669 559 167 559 c 0
 114.25 559 71 597.8 71 656 c 0
 71 707.034 108.381 751 167 751 c 0
210 656 m 0
 210 685 196 699 167 699 c 0
 138 699 124 685 124 656 c 0
 124 627 138 612 167 612 c 0
 196 612 210 627 210 656 c 0
EndSplineSet
EndChar

StartChar: tilde
Encoding: 362 732 327
Width: 332
VWidth: 2048
Flags: W
HStem: 590 81<164.506 262.8> 632 81<59.6218 159.543>
VStem: -6 63<589 628.746> 268 63<674.706 713>
LayerCount: 2
Fore
SplineSet
83 713 m 0x70
 134 713 184 671 228 671 c 0xb0
 251 671 265 685 268 713 c 1
 331 713 l 1x70
 331 632 302 590 245 590 c 0xb0
 204 590 129 632 90 632 c 0
 67 632 57 618 57 589 c 1
 -6 589 l 1
 -6 607 l 2
 -6 677 23 713 83 713 c 0x70
EndSplineSet
EndChar

StartChar: quotesinglbase
Encoding: 365 8218 328
Width: 277
VWidth: 2048
Flags: W
HStem: -159 56<80.625 97.8684> 0 136<67 135>
VStem: 67 138<3.80134 136> 135 70<-65.9734 0>
LayerCount: 2
Fore
SplineSet
67 136 m 1xe0
 205 136 l 1
 205 38 l 2xe0
 205 -57.1223 186.51 -120.559 84 -159 c 1
 57 -103 l 1
 109 -87 135 -54 135 0 c 1xd0
 67 0 l 1
 67 136 l 1xe0
EndSplineSet
EndChar

StartChar: quotedblbase
Encoding: 366 8222 329
Width: 499
VWidth: 2048
Flags: W
HStem: -159 56<91.5 106.887 321.75 340.648> 0 136<80 146 310 376>
VStem: 80 136<2.99351 136> 146 70<-66.0801 0> 310 138<2.99351 136> 376 72<-66.0801 0>
LayerCount: 2
Fore
SplineSet
310 136 m 1xc8
 448 136 l 1
 448 38 l 2xc8
 448 -75 412 -129 325 -159 c 1
 299 -103 l 1
 349 -87 376 -52 376 0 c 1xc4
 310 0 l 1
 310 136 l 1xc8
80 136 m 1xe0
 216 136 l 1
 216 38 l 2xe0
 216 -75 182 -129 95 -159 c 1
 67 -103 l 1
 120 -86 146 -52 146 0 c 1xd0
 80 0 l 1
 80 136 l 1xe0
EndSplineSet
EndChar

StartChar: dagger
Encoding: 367 8224 330
Width: 556
VWidth: 2048
Flags: W
HStem: 406 112<32 212 340 518> 688 20G<212 340>
VStem: 212 128<-172 406 518 708>
LayerCount: 2
Fore
SplineSet
212 -172 m 1
 212 406 l 1
 32 406 l 1
 32 518 l 1
 212 518 l 1
 212 708 l 1
 340 708 l 1
 340 518 l 1
 518 518 l 1
 518 406 l 1
 340 406 l 1
 340 -172 l 1
 212 -172 l 1
EndSplineSet
EndChar

StartChar: daggerdbl
Encoding: 368 8225 331
Width: 556
VWidth: 2048
Flags: W
HStem: -8 114<32 213 342 518> 426 115<32 213 342 518> 688 20G<213 342>
VStem: 213 129<-172 -8 106 426 541 708>
LayerCount: 2
Fore
SplineSet
213 -172 m 1
 213 -8 l 1
 32 -8 l 1
 32 106 l 1
 213 106 l 1
 213 426 l 1
 32 426 l 1
 32 541 l 1
 213 541 l 1
 213 708 l 1
 342 708 l 1
 342 541 l 1
 518 541 l 1
 518 426 l 1
 342 426 l 1
 342 106 l 1
 518 106 l 1
 518 -8 l 1
 342 -8 l 1
 342 -172 l 1
 213 -172 l 1
EndSplineSet
EndChar

StartChar: perthousand
Encoding: 369 8240 332
Width: 999
VWidth: 2048
Flags: W
HStem: -29 77<498.749 561.24 828.374 887.915> 271 77<498.892 561.24 829.288 889.508> 353 76<108.368 171.534> 653 77<109.498 172.24>
VStem: 0 95<439.945 640.608> 136 97<-26 71> 187 97<440.124 640.435> 391 93<61.2294 258.553> 437 95<635 730> 576 97<60.5581 258.755> 717 97<58.0894 259.626> 903 98<60.3567 248.188>
DStem2: 136 -26 233 -26 0.369907 0.929069<35.881 813.718>
LayerCount: 2
Fore
SplineSet
0 547 m 0xfa70
 0 668 48 730 143 730 c 0
 236 730 284 668 284 546 c 0
 284 417 236 353 141 353 c 0
 48 353 0 418 0 547 c 0xfa70
95 541 m 0
 95 474 104 429 141 429 c 0
 172 429 187 468 187 541 c 0
 187 616 172 653 141 653 c 0
 110 653 95 616 95 541 c 0
136 -26 m 1xfcf0
 437 730 l 1
 532 730 l 1
 233 -26 l 1
 136 -26 l 1xfcf0
391 166 m 0xf970
 391 287 438 348 532 348 c 0
 625 348 673 287 673 164 c 0
 673 35 625 -29 532 -29 c 0xf8f0
 437 -29 391 35 391 166 c 0xf970
530 48 m 1
 561 48 576 86 576 159 c 0
 576 235 561 271 530 271 c 0
 500 271 484 235 484 159 c 0xf970
 484 84 500 48 530 48 c 1
717 166 m 0
 717 287 765 348 860 348 c 0
 953 348 1001 287 1001 164 c 0
 1001 35 953 -29 858 -29 c 0
 765 -29 717 35 717 166 c 0
897 236 m 1
 887 259 875 271 858 271 c 0
 829 271 814 235 814 159 c 0
 814 84 828 48 858 48 c 0
 887 48 903 84 903 159 c 0
 903 193 901 219 897 236 c 1
EndSplineSet
EndChar

StartChar: guilsinglleft
Encoding: 370 8249 333
Width: 332
VWidth: 2048
Flags: W
LayerCount: 2
Fore
SplineSet
299 480 m 1
 172 259 l 1
 299 34 l 1
 192 34 l 1
 37 259 l 1
 192 480 l 1
 299 480 l 1
EndSplineSet
EndChar

StartChar: guilsinglright
Encoding: 371 8250 334
Width: 332
VWidth: 2048
Flags: W
LayerCount: 2
Fore
SplineSet
37 34 m 1
 164 256 l 1
 37 480 l 1
 144 480 l 1
 299 256 l 1
 144 34 l 1
 37 34 l 1
EndSplineSet
EndChar

StartChar: trademark
Encoding: 372 8482 335
Width: 999
VWidth: 2048
Flags: W
HStem: 647 69<106 228 311 431>
VStem: 228 83<316 647> 478 77<316 636> 800 78<316 636>
DStem2: 605 716 555 636 0.259541 -0.965732<64.2815 284.263> 677 441 714 316 0.259541 0.965732<0 220.241>
LayerCount: 2
Fore
SplineSet
228 316 m 1
 228 647 l 1
 106 647 l 1
 106 716 l 1
 431 716 l 1
 431 647 l 1
 311 647 l 1
 311 316 l 1
 228 316 l 1
478 316 m 1
 478 716 l 1
 605 716 l 1
 677 441 l 1
 751 716 l 1
 878 716 l 1
 878 316 l 1
 800 316 l 1
 800 636 l 1
 714 316 l 1
 641 316 l 1
 555 636 l 1
 555 316 l 1
 478 316 l 1
EndSplineSet
EndChar

StartChar: uniF71C
Encoding: 375 63260 336
Width: 338
VWidth: 2048
Flags: W
HStem: 0 21G<0 2>
LayerCount: 2
Fore
SplineSet
0 0 m 1
 0 2 l 1
 2 0 l 1
 0 0 l 1
EndSplineSet
EndChar

StartChar: uniF71D
Encoding: 376 63261 337
Width: 338
VWidth: 2048
Flags: W
HStem: -162 159<29 92 253 313> -118 115<92 253>
VStem: 29 63<-162 -118> 253 60<-162 -118>
LayerCount: 2
Fore
SplineSet
253 -162 m 1xb0
 253 -118 l 1
 92 -118 l 1x70
 92 -162 l 1
 29 -162 l 1
 29 -3 l 1
 313 -3 l 1
 313 -162 l 1
 253 -162 l 1xb0
EndSplineSet
EndChar

StartChar: uni0E47.high
Encoding: 222 63263 341
Width: 0
Flags: W
HStem: 998.151 43.1046<-233.58 -195.941> 1056.31 64.3148<-339.186 -291.518> 1089.83 41.052<-233.748 -196.106> 1170.57 54.736<-326.375 -188.006> 1181.52 47.894<-370.301 -231.051>
VStem: -451.521 62.9464<1080 1162.27> -194.262 35.5784<1042.1 1088.76> -177.841 67.7358<1236.11 1284.83>
AnchorPoint: "AboveMark" -309 988 mark 0
LayerCount: 2
Back
SplineSet
-217 1006 m 0x96
 -116 1006 -132 1043 -124 1093 c 1
 -25 1093 l 1
 -30 995 -59 926 -182 926 c 0x96
 -238 926 -281 942 -340 942 c 0
 -410 942 -432 898 -432 845 c 0
 -432 802 -402 786 -400 786 c 1
 -400 796 -388 853 -342 853 c 0xce
 -302 853 -261 805 -261 805 c 1
 -261 805 -248 868 -180 868 c 0xa6
 -129 868 -96 829 -96 771 c 0
 -96 692 -149 674 -182 674 c 0
 -256 674 -287 759 -328 759 c 0
 -359 759 -367 727 -367 699 c 0
 -367 684 -365 673 -365 673 c 1
 -456 674 -524 731 -524 843 c 0
 -524 920 -488 1012 -347 1012 c 0xce
 -303 1012 -258 1006 -217 1006 c 0x96
-178 808 m 0xa6
 -198 808 -208 790 -208 772 c 0
 -208 754 -198 737 -178 737 c 0
 -158 737 -148 754 -148 772 c 0
 -148 790 -158 808 -178 808 c 0xa6
EndSplineSet
Fore
Refer: 197 3655 S 0.6842 0 0 0.6842 -93 537 2
EndChar

